%TF.GenerationSoftware,KiCad,Pcbnew,8.0.2-1*%
%TF.CreationDate,2024-08-15T10:06:31+02:00*%
%TF.ProjectId,PUMA_PCB_REV2,50554d41-5f50-4434-925f-524556322e6b,rev?*%
%TF.SameCoordinates,Original*%
%TF.FileFunction,Legend,Top*%
%TF.FilePolarity,Positive*%
%FSLAX46Y46*%
G04 Gerber Fmt 4.6, Leading zero omitted, Abs format (unit mm)*
G04 Created by KiCad (PCBNEW 8.0.2-1) date 2024-08-15 10:06:31*
%MOMM*%
%LPD*%
G01*
G04 APERTURE LIST*
%ADD10C,0.120000*%
%ADD11C,0.200000*%
%ADD12C,0.100000*%
G04 APERTURE END LIST*
D10*
X91066167Y-92383075D02*
X91028071Y-92421171D01*
X91028071Y-92421171D02*
X90913786Y-92459266D01*
X90913786Y-92459266D02*
X90837595Y-92459266D01*
X90837595Y-92459266D02*
X90723309Y-92421171D01*
X90723309Y-92421171D02*
X90647119Y-92344980D01*
X90647119Y-92344980D02*
X90609024Y-92268790D01*
X90609024Y-92268790D02*
X90570928Y-92116409D01*
X90570928Y-92116409D02*
X90570928Y-92002123D01*
X90570928Y-92002123D02*
X90609024Y-91849742D01*
X90609024Y-91849742D02*
X90647119Y-91773551D01*
X90647119Y-91773551D02*
X90723309Y-91697361D01*
X90723309Y-91697361D02*
X90837595Y-91659266D01*
X90837595Y-91659266D02*
X90913786Y-91659266D01*
X90913786Y-91659266D02*
X91028071Y-91697361D01*
X91028071Y-91697361D02*
X91066167Y-91735456D01*
X91447119Y-92459266D02*
X91599500Y-92459266D01*
X91599500Y-92459266D02*
X91675690Y-92421171D01*
X91675690Y-92421171D02*
X91713786Y-92383075D01*
X91713786Y-92383075D02*
X91789976Y-92268790D01*
X91789976Y-92268790D02*
X91828071Y-92116409D01*
X91828071Y-92116409D02*
X91828071Y-91811647D01*
X91828071Y-91811647D02*
X91789976Y-91735456D01*
X91789976Y-91735456D02*
X91751881Y-91697361D01*
X91751881Y-91697361D02*
X91675690Y-91659266D01*
X91675690Y-91659266D02*
X91523309Y-91659266D01*
X91523309Y-91659266D02*
X91447119Y-91697361D01*
X91447119Y-91697361D02*
X91409024Y-91735456D01*
X91409024Y-91735456D02*
X91370928Y-91811647D01*
X91370928Y-91811647D02*
X91370928Y-92002123D01*
X91370928Y-92002123D02*
X91409024Y-92078313D01*
X91409024Y-92078313D02*
X91447119Y-92116409D01*
X91447119Y-92116409D02*
X91523309Y-92154504D01*
X91523309Y-92154504D02*
X91675690Y-92154504D01*
X91675690Y-92154504D02*
X91751881Y-92116409D01*
X91751881Y-92116409D02*
X91789976Y-92078313D01*
X91789976Y-92078313D02*
X91828071Y-92002123D01*
X91066167Y-90835369D02*
X91028071Y-90873465D01*
X91028071Y-90873465D02*
X90913786Y-90911560D01*
X90913786Y-90911560D02*
X90837595Y-90911560D01*
X90837595Y-90911560D02*
X90723309Y-90873465D01*
X90723309Y-90873465D02*
X90647119Y-90797274D01*
X90647119Y-90797274D02*
X90609024Y-90721084D01*
X90609024Y-90721084D02*
X90570928Y-90568703D01*
X90570928Y-90568703D02*
X90570928Y-90454417D01*
X90570928Y-90454417D02*
X90609024Y-90302036D01*
X90609024Y-90302036D02*
X90647119Y-90225845D01*
X90647119Y-90225845D02*
X90723309Y-90149655D01*
X90723309Y-90149655D02*
X90837595Y-90111560D01*
X90837595Y-90111560D02*
X90913786Y-90111560D01*
X90913786Y-90111560D02*
X91028071Y-90149655D01*
X91028071Y-90149655D02*
X91066167Y-90187750D01*
X91523309Y-90454417D02*
X91447119Y-90416322D01*
X91447119Y-90416322D02*
X91409024Y-90378226D01*
X91409024Y-90378226D02*
X91370928Y-90302036D01*
X91370928Y-90302036D02*
X91370928Y-90263941D01*
X91370928Y-90263941D02*
X91409024Y-90187750D01*
X91409024Y-90187750D02*
X91447119Y-90149655D01*
X91447119Y-90149655D02*
X91523309Y-90111560D01*
X91523309Y-90111560D02*
X91675690Y-90111560D01*
X91675690Y-90111560D02*
X91751881Y-90149655D01*
X91751881Y-90149655D02*
X91789976Y-90187750D01*
X91789976Y-90187750D02*
X91828071Y-90263941D01*
X91828071Y-90263941D02*
X91828071Y-90302036D01*
X91828071Y-90302036D02*
X91789976Y-90378226D01*
X91789976Y-90378226D02*
X91751881Y-90416322D01*
X91751881Y-90416322D02*
X91675690Y-90454417D01*
X91675690Y-90454417D02*
X91523309Y-90454417D01*
X91523309Y-90454417D02*
X91447119Y-90492512D01*
X91447119Y-90492512D02*
X91409024Y-90530607D01*
X91409024Y-90530607D02*
X91370928Y-90606798D01*
X91370928Y-90606798D02*
X91370928Y-90759179D01*
X91370928Y-90759179D02*
X91409024Y-90835369D01*
X91409024Y-90835369D02*
X91447119Y-90873465D01*
X91447119Y-90873465D02*
X91523309Y-90911560D01*
X91523309Y-90911560D02*
X91675690Y-90911560D01*
X91675690Y-90911560D02*
X91751881Y-90873465D01*
X91751881Y-90873465D02*
X91789976Y-90835369D01*
X91789976Y-90835369D02*
X91828071Y-90759179D01*
X91828071Y-90759179D02*
X91828071Y-90606798D01*
X91828071Y-90606798D02*
X91789976Y-90530607D01*
X91789976Y-90530607D02*
X91751881Y-90492512D01*
X91751881Y-90492512D02*
X91675690Y-90454417D01*
X91066167Y-89375269D02*
X91028071Y-89413365D01*
X91028071Y-89413365D02*
X90913786Y-89451460D01*
X90913786Y-89451460D02*
X90837595Y-89451460D01*
X90837595Y-89451460D02*
X90723309Y-89413365D01*
X90723309Y-89413365D02*
X90647119Y-89337174D01*
X90647119Y-89337174D02*
X90609024Y-89260984D01*
X90609024Y-89260984D02*
X90570928Y-89108603D01*
X90570928Y-89108603D02*
X90570928Y-88994317D01*
X90570928Y-88994317D02*
X90609024Y-88841936D01*
X90609024Y-88841936D02*
X90647119Y-88765745D01*
X90647119Y-88765745D02*
X90723309Y-88689555D01*
X90723309Y-88689555D02*
X90837595Y-88651460D01*
X90837595Y-88651460D02*
X90913786Y-88651460D01*
X90913786Y-88651460D02*
X91028071Y-88689555D01*
X91028071Y-88689555D02*
X91066167Y-88727650D01*
X91332833Y-88651460D02*
X91866167Y-88651460D01*
X91866167Y-88651460D02*
X91523309Y-89451460D01*
X108947451Y-92345528D02*
X108909355Y-92383624D01*
X108909355Y-92383624D02*
X108795070Y-92421719D01*
X108795070Y-92421719D02*
X108718879Y-92421719D01*
X108718879Y-92421719D02*
X108604593Y-92383624D01*
X108604593Y-92383624D02*
X108528403Y-92307433D01*
X108528403Y-92307433D02*
X108490308Y-92231243D01*
X108490308Y-92231243D02*
X108452212Y-92078862D01*
X108452212Y-92078862D02*
X108452212Y-91964576D01*
X108452212Y-91964576D02*
X108490308Y-91812195D01*
X108490308Y-91812195D02*
X108528403Y-91736004D01*
X108528403Y-91736004D02*
X108604593Y-91659814D01*
X108604593Y-91659814D02*
X108718879Y-91621719D01*
X108718879Y-91621719D02*
X108795070Y-91621719D01*
X108795070Y-91621719D02*
X108909355Y-91659814D01*
X108909355Y-91659814D02*
X108947451Y-91697909D01*
X109633165Y-91621719D02*
X109480784Y-91621719D01*
X109480784Y-91621719D02*
X109404593Y-91659814D01*
X109404593Y-91659814D02*
X109366498Y-91697909D01*
X109366498Y-91697909D02*
X109290308Y-91812195D01*
X109290308Y-91812195D02*
X109252212Y-91964576D01*
X109252212Y-91964576D02*
X109252212Y-92269338D01*
X109252212Y-92269338D02*
X109290308Y-92345528D01*
X109290308Y-92345528D02*
X109328403Y-92383624D01*
X109328403Y-92383624D02*
X109404593Y-92421719D01*
X109404593Y-92421719D02*
X109556974Y-92421719D01*
X109556974Y-92421719D02*
X109633165Y-92383624D01*
X109633165Y-92383624D02*
X109671260Y-92345528D01*
X109671260Y-92345528D02*
X109709355Y-92269338D01*
X109709355Y-92269338D02*
X109709355Y-92078862D01*
X109709355Y-92078862D02*
X109671260Y-92002671D01*
X109671260Y-92002671D02*
X109633165Y-91964576D01*
X109633165Y-91964576D02*
X109556974Y-91926481D01*
X109556974Y-91926481D02*
X109404593Y-91926481D01*
X109404593Y-91926481D02*
X109328403Y-91964576D01*
X109328403Y-91964576D02*
X109290308Y-92002671D01*
X109290308Y-92002671D02*
X109252212Y-92078862D01*
X109029329Y-90899020D02*
X108991233Y-90937116D01*
X108991233Y-90937116D02*
X108876948Y-90975211D01*
X108876948Y-90975211D02*
X108800757Y-90975211D01*
X108800757Y-90975211D02*
X108686471Y-90937116D01*
X108686471Y-90937116D02*
X108610281Y-90860925D01*
X108610281Y-90860925D02*
X108572186Y-90784735D01*
X108572186Y-90784735D02*
X108534090Y-90632354D01*
X108534090Y-90632354D02*
X108534090Y-90518068D01*
X108534090Y-90518068D02*
X108572186Y-90365687D01*
X108572186Y-90365687D02*
X108610281Y-90289496D01*
X108610281Y-90289496D02*
X108686471Y-90213306D01*
X108686471Y-90213306D02*
X108800757Y-90175211D01*
X108800757Y-90175211D02*
X108876948Y-90175211D01*
X108876948Y-90175211D02*
X108991233Y-90213306D01*
X108991233Y-90213306D02*
X109029329Y-90251401D01*
X109753138Y-90175211D02*
X109372186Y-90175211D01*
X109372186Y-90175211D02*
X109334090Y-90556163D01*
X109334090Y-90556163D02*
X109372186Y-90518068D01*
X109372186Y-90518068D02*
X109448376Y-90479973D01*
X109448376Y-90479973D02*
X109638852Y-90479973D01*
X109638852Y-90479973D02*
X109715043Y-90518068D01*
X109715043Y-90518068D02*
X109753138Y-90556163D01*
X109753138Y-90556163D02*
X109791233Y-90632354D01*
X109791233Y-90632354D02*
X109791233Y-90822830D01*
X109791233Y-90822830D02*
X109753138Y-90899020D01*
X109753138Y-90899020D02*
X109715043Y-90937116D01*
X109715043Y-90937116D02*
X109638852Y-90975211D01*
X109638852Y-90975211D02*
X109448376Y-90975211D01*
X109448376Y-90975211D02*
X109372186Y-90937116D01*
X109372186Y-90937116D02*
X109334090Y-90899020D01*
X109029329Y-89452512D02*
X108991233Y-89490608D01*
X108991233Y-89490608D02*
X108876948Y-89528703D01*
X108876948Y-89528703D02*
X108800757Y-89528703D01*
X108800757Y-89528703D02*
X108686471Y-89490608D01*
X108686471Y-89490608D02*
X108610281Y-89414417D01*
X108610281Y-89414417D02*
X108572186Y-89338227D01*
X108572186Y-89338227D02*
X108534090Y-89185846D01*
X108534090Y-89185846D02*
X108534090Y-89071560D01*
X108534090Y-89071560D02*
X108572186Y-88919179D01*
X108572186Y-88919179D02*
X108610281Y-88842988D01*
X108610281Y-88842988D02*
X108686471Y-88766798D01*
X108686471Y-88766798D02*
X108800757Y-88728703D01*
X108800757Y-88728703D02*
X108876948Y-88728703D01*
X108876948Y-88728703D02*
X108991233Y-88766798D01*
X108991233Y-88766798D02*
X109029329Y-88804893D01*
X109715043Y-88995369D02*
X109715043Y-89528703D01*
X109524567Y-88690608D02*
X109334090Y-89262036D01*
X109334090Y-89262036D02*
X109829329Y-89262036D01*
X108866667Y-85947376D02*
X108828571Y-85985472D01*
X108828571Y-85985472D02*
X108714286Y-86023567D01*
X108714286Y-86023567D02*
X108638095Y-86023567D01*
X108638095Y-86023567D02*
X108523809Y-85985472D01*
X108523809Y-85985472D02*
X108447619Y-85909281D01*
X108447619Y-85909281D02*
X108409524Y-85833091D01*
X108409524Y-85833091D02*
X108371428Y-85680710D01*
X108371428Y-85680710D02*
X108371428Y-85566424D01*
X108371428Y-85566424D02*
X108409524Y-85414043D01*
X108409524Y-85414043D02*
X108447619Y-85337852D01*
X108447619Y-85337852D02*
X108523809Y-85261662D01*
X108523809Y-85261662D02*
X108638095Y-85223567D01*
X108638095Y-85223567D02*
X108714286Y-85223567D01*
X108714286Y-85223567D02*
X108828571Y-85261662D01*
X108828571Y-85261662D02*
X108866667Y-85299757D01*
X109171428Y-85299757D02*
X109209524Y-85261662D01*
X109209524Y-85261662D02*
X109285714Y-85223567D01*
X109285714Y-85223567D02*
X109476190Y-85223567D01*
X109476190Y-85223567D02*
X109552381Y-85261662D01*
X109552381Y-85261662D02*
X109590476Y-85299757D01*
X109590476Y-85299757D02*
X109628571Y-85375948D01*
X109628571Y-85375948D02*
X109628571Y-85452138D01*
X109628571Y-85452138D02*
X109590476Y-85566424D01*
X109590476Y-85566424D02*
X109133333Y-86023567D01*
X109133333Y-86023567D02*
X109628571Y-86023567D01*
X108838281Y-87350982D02*
X108800185Y-87389078D01*
X108800185Y-87389078D02*
X108685900Y-87427173D01*
X108685900Y-87427173D02*
X108609709Y-87427173D01*
X108609709Y-87427173D02*
X108495423Y-87389078D01*
X108495423Y-87389078D02*
X108419233Y-87312887D01*
X108419233Y-87312887D02*
X108381138Y-87236697D01*
X108381138Y-87236697D02*
X108343042Y-87084316D01*
X108343042Y-87084316D02*
X108343042Y-86970030D01*
X108343042Y-86970030D02*
X108381138Y-86817649D01*
X108381138Y-86817649D02*
X108419233Y-86741458D01*
X108419233Y-86741458D02*
X108495423Y-86665268D01*
X108495423Y-86665268D02*
X108609709Y-86627173D01*
X108609709Y-86627173D02*
X108685900Y-86627173D01*
X108685900Y-86627173D02*
X108800185Y-86665268D01*
X108800185Y-86665268D02*
X108838281Y-86703363D01*
X109104947Y-86627173D02*
X109600185Y-86627173D01*
X109600185Y-86627173D02*
X109333519Y-86931935D01*
X109333519Y-86931935D02*
X109447804Y-86931935D01*
X109447804Y-86931935D02*
X109523995Y-86970030D01*
X109523995Y-86970030D02*
X109562090Y-87008125D01*
X109562090Y-87008125D02*
X109600185Y-87084316D01*
X109600185Y-87084316D02*
X109600185Y-87274792D01*
X109600185Y-87274792D02*
X109562090Y-87350982D01*
X109562090Y-87350982D02*
X109523995Y-87389078D01*
X109523995Y-87389078D02*
X109447804Y-87427173D01*
X109447804Y-87427173D02*
X109219233Y-87427173D01*
X109219233Y-87427173D02*
X109143042Y-87389078D01*
X109143042Y-87389078D02*
X109104947Y-87350982D01*
X108866667Y-84601184D02*
X108828571Y-84639280D01*
X108828571Y-84639280D02*
X108714286Y-84677375D01*
X108714286Y-84677375D02*
X108638095Y-84677375D01*
X108638095Y-84677375D02*
X108523809Y-84639280D01*
X108523809Y-84639280D02*
X108447619Y-84563089D01*
X108447619Y-84563089D02*
X108409524Y-84486899D01*
X108409524Y-84486899D02*
X108371428Y-84334518D01*
X108371428Y-84334518D02*
X108371428Y-84220232D01*
X108371428Y-84220232D02*
X108409524Y-84067851D01*
X108409524Y-84067851D02*
X108447619Y-83991660D01*
X108447619Y-83991660D02*
X108523809Y-83915470D01*
X108523809Y-83915470D02*
X108638095Y-83877375D01*
X108638095Y-83877375D02*
X108714286Y-83877375D01*
X108714286Y-83877375D02*
X108828571Y-83915470D01*
X108828571Y-83915470D02*
X108866667Y-83953565D01*
X109628571Y-84677375D02*
X109171428Y-84677375D01*
X109400000Y-84677375D02*
X109400000Y-83877375D01*
X109400000Y-83877375D02*
X109323809Y-83991660D01*
X109323809Y-83991660D02*
X109247619Y-84067851D01*
X109247619Y-84067851D02*
X109171428Y-84105946D01*
X102064143Y-96563855D02*
X102064143Y-97135283D01*
X102064143Y-97135283D02*
X102026048Y-97249569D01*
X102026048Y-97249569D02*
X101949857Y-97325760D01*
X101949857Y-97325760D02*
X101835572Y-97363855D01*
X101835572Y-97363855D02*
X101759381Y-97363855D01*
X102407000Y-96640045D02*
X102445096Y-96601950D01*
X102445096Y-96601950D02*
X102521286Y-96563855D01*
X102521286Y-96563855D02*
X102711762Y-96563855D01*
X102711762Y-96563855D02*
X102787953Y-96601950D01*
X102787953Y-96601950D02*
X102826048Y-96640045D01*
X102826048Y-96640045D02*
X102864143Y-96716236D01*
X102864143Y-96716236D02*
X102864143Y-96792426D01*
X102864143Y-96792426D02*
X102826048Y-96906712D01*
X102826048Y-96906712D02*
X102368905Y-97363855D01*
X102368905Y-97363855D02*
X102864143Y-97363855D01*
X97413337Y-96563855D02*
X97413337Y-97135283D01*
X97413337Y-97135283D02*
X97375242Y-97249569D01*
X97375242Y-97249569D02*
X97299051Y-97325760D01*
X97299051Y-97325760D02*
X97184766Y-97363855D01*
X97184766Y-97363855D02*
X97108575Y-97363855D01*
X97718099Y-96563855D02*
X98213337Y-96563855D01*
X98213337Y-96563855D02*
X97946671Y-96868617D01*
X97946671Y-96868617D02*
X98060956Y-96868617D01*
X98060956Y-96868617D02*
X98137147Y-96906712D01*
X98137147Y-96906712D02*
X98175242Y-96944807D01*
X98175242Y-96944807D02*
X98213337Y-97020998D01*
X98213337Y-97020998D02*
X98213337Y-97211474D01*
X98213337Y-97211474D02*
X98175242Y-97287664D01*
X98175242Y-97287664D02*
X98137147Y-97325760D01*
X98137147Y-97325760D02*
X98060956Y-97363855D01*
X98060956Y-97363855D02*
X97832385Y-97363855D01*
X97832385Y-97363855D02*
X97756194Y-97325760D01*
X97756194Y-97325760D02*
X97718099Y-97287664D01*
D11*
%TO.C,J1*%
X96869149Y-85626877D02*
X96869149Y-84101877D01*
X96869149Y-84101877D02*
X103169149Y-84101877D01*
X103169149Y-84101877D02*
X103169149Y-85626877D01*
X96869149Y-89226877D02*
X96869149Y-90751877D01*
X96869149Y-90751877D02*
X103169149Y-90751877D01*
X103169149Y-90751877D02*
X103169149Y-89226877D01*
D12*
X96019149Y-86426877D02*
X96019149Y-86426877D01*
X96119149Y-86426877D02*
X96119149Y-86426877D01*
X96119149Y-86426877D02*
G75*
G02*
X96019149Y-86426877I-50000J0D01*
G01*
X96019149Y-86426877D02*
G75*
G02*
X96119149Y-86426877I50000J0D01*
G01*
D11*
%TO.C,C7*%
X94150000Y-89356435D02*
X94150000Y-88756435D01*
%TO.C,C4*%
X105954581Y-89410371D02*
X105954581Y-88810371D01*
%TO.C,C1*%
X105850000Y-84606264D02*
X105850000Y-84006264D01*
D12*
%TO.C,J2*%
X102330810Y-92407298D02*
X102330810Y-92407298D01*
X102330810Y-92507298D02*
X102330810Y-92507298D01*
X102330810Y-92407298D02*
G75*
G02*
X102330810Y-92507298I0J-50000D01*
G01*
X102330810Y-92507298D02*
G75*
G02*
X102330810Y-92407298I0J50000D01*
G01*
%TO.C,J3*%
X97680004Y-92407298D02*
X97680004Y-92407298D01*
X97680004Y-92507298D02*
X97680004Y-92507298D01*
X97680004Y-92407298D02*
G75*
G02*
X97680004Y-92507298I0J-50000D01*
G01*
X97680004Y-92507298D02*
G75*
G02*
X97680004Y-92407298I0J50000D01*
G01*
%TD*%
M02*
