%TF.GenerationSoftware,KiCad,Pcbnew,8.0.2-1*%
%TF.CreationDate,2024-09-19T09:16:49+02:00*%
%TF.ProjectId,PUMA_PCB_REV2,50554d41-5f50-4434-925f-524556322e6b,rev?*%
%TF.SameCoordinates,Original*%
%TF.FileFunction,Legend,Top*%
%TF.FilePolarity,Positive*%
%FSLAX46Y46*%
G04 Gerber Fmt 4.6, Leading zero omitted, Abs format (unit mm)*
G04 Created by KiCad (PCBNEW 8.0.2-1) date 2024-09-19 09:16:49*
%MOMM*%
%LPD*%
G01*
G04 APERTURE LIST*
%ADD10C,0.120000*%
%ADD11C,0.254000*%
%ADD12C,0.200000*%
%ADD13C,0.100000*%
G04 APERTURE END LIST*
D10*
X108719239Y-87141112D02*
X108681143Y-87179208D01*
X108681143Y-87179208D02*
X108566858Y-87217303D01*
X108566858Y-87217303D02*
X108490667Y-87217303D01*
X108490667Y-87217303D02*
X108376381Y-87179208D01*
X108376381Y-87179208D02*
X108300191Y-87103017D01*
X108300191Y-87103017D02*
X108262096Y-87026827D01*
X108262096Y-87026827D02*
X108224000Y-86874446D01*
X108224000Y-86874446D02*
X108224000Y-86760160D01*
X108224000Y-86760160D02*
X108262096Y-86607779D01*
X108262096Y-86607779D02*
X108300191Y-86531588D01*
X108300191Y-86531588D02*
X108376381Y-86455398D01*
X108376381Y-86455398D02*
X108490667Y-86417303D01*
X108490667Y-86417303D02*
X108566858Y-86417303D01*
X108566858Y-86417303D02*
X108681143Y-86455398D01*
X108681143Y-86455398D02*
X108719239Y-86493493D01*
X109024000Y-86493493D02*
X109062096Y-86455398D01*
X109062096Y-86455398D02*
X109138286Y-86417303D01*
X109138286Y-86417303D02*
X109328762Y-86417303D01*
X109328762Y-86417303D02*
X109404953Y-86455398D01*
X109404953Y-86455398D02*
X109443048Y-86493493D01*
X109443048Y-86493493D02*
X109481143Y-86569684D01*
X109481143Y-86569684D02*
X109481143Y-86645874D01*
X109481143Y-86645874D02*
X109443048Y-86760160D01*
X109443048Y-86760160D02*
X108985905Y-87217303D01*
X108985905Y-87217303D02*
X109481143Y-87217303D01*
X106219239Y-89717644D02*
X106181143Y-89755740D01*
X106181143Y-89755740D02*
X106066858Y-89793835D01*
X106066858Y-89793835D02*
X105990667Y-89793835D01*
X105990667Y-89793835D02*
X105876381Y-89755740D01*
X105876381Y-89755740D02*
X105800191Y-89679549D01*
X105800191Y-89679549D02*
X105762096Y-89603359D01*
X105762096Y-89603359D02*
X105724000Y-89450978D01*
X105724000Y-89450978D02*
X105724000Y-89336692D01*
X105724000Y-89336692D02*
X105762096Y-89184311D01*
X105762096Y-89184311D02*
X105800191Y-89108120D01*
X105800191Y-89108120D02*
X105876381Y-89031930D01*
X105876381Y-89031930D02*
X105990667Y-88993835D01*
X105990667Y-88993835D02*
X106066858Y-88993835D01*
X106066858Y-88993835D02*
X106181143Y-89031930D01*
X106181143Y-89031930D02*
X106219239Y-89070025D01*
X106485905Y-88993835D02*
X106981143Y-88993835D01*
X106981143Y-88993835D02*
X106714477Y-89298597D01*
X106714477Y-89298597D02*
X106828762Y-89298597D01*
X106828762Y-89298597D02*
X106904953Y-89336692D01*
X106904953Y-89336692D02*
X106943048Y-89374787D01*
X106943048Y-89374787D02*
X106981143Y-89450978D01*
X106981143Y-89450978D02*
X106981143Y-89641454D01*
X106981143Y-89641454D02*
X106943048Y-89717644D01*
X106943048Y-89717644D02*
X106904953Y-89755740D01*
X106904953Y-89755740D02*
X106828762Y-89793835D01*
X106828762Y-89793835D02*
X106600191Y-89793835D01*
X106600191Y-89793835D02*
X106524000Y-89755740D01*
X106524000Y-89755740D02*
X106485905Y-89717644D01*
X108866667Y-85787664D02*
X108828571Y-85825760D01*
X108828571Y-85825760D02*
X108714286Y-85863855D01*
X108714286Y-85863855D02*
X108638095Y-85863855D01*
X108638095Y-85863855D02*
X108523809Y-85825760D01*
X108523809Y-85825760D02*
X108447619Y-85749569D01*
X108447619Y-85749569D02*
X108409524Y-85673379D01*
X108409524Y-85673379D02*
X108371428Y-85520998D01*
X108371428Y-85520998D02*
X108371428Y-85406712D01*
X108371428Y-85406712D02*
X108409524Y-85254331D01*
X108409524Y-85254331D02*
X108447619Y-85178140D01*
X108447619Y-85178140D02*
X108523809Y-85101950D01*
X108523809Y-85101950D02*
X108638095Y-85063855D01*
X108638095Y-85063855D02*
X108714286Y-85063855D01*
X108714286Y-85063855D02*
X108828571Y-85101950D01*
X108828571Y-85101950D02*
X108866667Y-85140045D01*
X109628571Y-85863855D02*
X109171428Y-85863855D01*
X109400000Y-85863855D02*
X109400000Y-85063855D01*
X109400000Y-85063855D02*
X109323809Y-85178140D01*
X109323809Y-85178140D02*
X109247619Y-85254331D01*
X109247619Y-85254331D02*
X109171428Y-85292426D01*
X102064143Y-96563855D02*
X102064143Y-97135283D01*
X102064143Y-97135283D02*
X102026048Y-97249569D01*
X102026048Y-97249569D02*
X101949857Y-97325760D01*
X101949857Y-97325760D02*
X101835572Y-97363855D01*
X101835572Y-97363855D02*
X101759381Y-97363855D01*
X102407000Y-96640045D02*
X102445096Y-96601950D01*
X102445096Y-96601950D02*
X102521286Y-96563855D01*
X102521286Y-96563855D02*
X102711762Y-96563855D01*
X102711762Y-96563855D02*
X102787953Y-96601950D01*
X102787953Y-96601950D02*
X102826048Y-96640045D01*
X102826048Y-96640045D02*
X102864143Y-96716236D01*
X102864143Y-96716236D02*
X102864143Y-96792426D01*
X102864143Y-96792426D02*
X102826048Y-96906712D01*
X102826048Y-96906712D02*
X102368905Y-97363855D01*
X102368905Y-97363855D02*
X102864143Y-97363855D01*
D11*
X99323467Y-87850209D02*
X100230610Y-87850209D01*
X100230610Y-87850209D02*
X100412038Y-87910686D01*
X100412038Y-87910686D02*
X100532991Y-88031638D01*
X100532991Y-88031638D02*
X100593467Y-88213067D01*
X100593467Y-88213067D02*
X100593467Y-88334019D01*
X100593467Y-86580209D02*
X100593467Y-87305924D01*
X100593467Y-86943067D02*
X99323467Y-86943067D01*
X99323467Y-86943067D02*
X99504895Y-87064019D01*
X99504895Y-87064019D02*
X99625848Y-87184971D01*
X99625848Y-87184971D02*
X99686324Y-87305924D01*
D10*
X97413337Y-96563855D02*
X97413337Y-97135283D01*
X97413337Y-97135283D02*
X97375242Y-97249569D01*
X97375242Y-97249569D02*
X97299051Y-97325760D01*
X97299051Y-97325760D02*
X97184766Y-97363855D01*
X97184766Y-97363855D02*
X97108575Y-97363855D01*
X97718099Y-96563855D02*
X98213337Y-96563855D01*
X98213337Y-96563855D02*
X97946671Y-96868617D01*
X97946671Y-96868617D02*
X98060956Y-96868617D01*
X98060956Y-96868617D02*
X98137147Y-96906712D01*
X98137147Y-96906712D02*
X98175242Y-96944807D01*
X98175242Y-96944807D02*
X98213337Y-97020998D01*
X98213337Y-97020998D02*
X98213337Y-97211474D01*
X98213337Y-97211474D02*
X98175242Y-97287664D01*
X98175242Y-97287664D02*
X98137147Y-97325760D01*
X98137147Y-97325760D02*
X98060956Y-97363855D01*
X98060956Y-97363855D02*
X97832385Y-97363855D01*
X97832385Y-97363855D02*
X97756194Y-97325760D01*
X97756194Y-97325760D02*
X97718099Y-97287664D01*
D12*
%TO.C,C1*%
X106013879Y-85800000D02*
X106013879Y-85200000D01*
D13*
%TO.C,J2*%
X102330810Y-92407298D02*
X102330810Y-92407298D01*
X102330810Y-92507298D02*
X102330810Y-92507298D01*
X102330810Y-92407298D02*
G75*
G02*
X102330810Y-92507298I0J-50000D01*
G01*
X102330810Y-92507298D02*
G75*
G02*
X102330810Y-92407298I0J50000D01*
G01*
%TO.C,J1*%
X96019149Y-86426877D02*
X96019149Y-86426877D01*
X96119149Y-86426877D02*
X96119149Y-86426877D01*
D12*
X96869149Y-84101877D02*
X103169149Y-84101877D01*
X96869149Y-85626877D02*
X96869149Y-84101877D01*
X96869149Y-89226877D02*
X96869149Y-90751877D01*
X96869149Y-90751877D02*
X103169149Y-90751877D01*
X103169149Y-84101877D02*
X103169149Y-85626877D01*
X103169149Y-90751877D02*
X103169149Y-89226877D01*
D13*
X96019149Y-86426877D02*
G75*
G02*
X96119149Y-86426877I50000J0D01*
G01*
X96119149Y-86426877D02*
G75*
G02*
X96019149Y-86426877I-50000J0D01*
G01*
%TO.C,J3*%
X97680004Y-92407298D02*
X97680004Y-92407298D01*
X97680004Y-92507298D02*
X97680004Y-92507298D01*
X97680004Y-92407298D02*
G75*
G02*
X97680004Y-92507298I0J-50000D01*
G01*
X97680004Y-92507298D02*
G75*
G02*
X97680004Y-92407298I0J50000D01*
G01*
%TD*%
M02*
