%TF.GenerationSoftware,KiCad,Pcbnew,8.0.2-1*%
%TF.CreationDate,2024-08-15T10:06:31+02:00*%
%TF.ProjectId,PUMA_PCB_REV2,50554d41-5f50-4434-925f-524556322e6b,rev?*%
%TF.SameCoordinates,Original*%
%TF.FileFunction,Copper,L4,Bot*%
%TF.FilePolarity,Positive*%
%FSLAX46Y46*%
G04 Gerber Fmt 4.6, Leading zero omitted, Abs format (unit mm)*
G04 Created by KiCad (PCBNEW 8.0.2-1) date 2024-08-15 10:06:31*
%MOMM*%
%LPD*%
G01*
G04 APERTURE LIST*
G04 Aperture macros list*
%AMRoundRect*
0 Rectangle with rounded corners*
0 $1 Rounding radius*
0 $2 $3 $4 $5 $6 $7 $8 $9 X,Y pos of 4 corners*
0 Add a 4 corners polygon primitive as box body*
4,1,4,$2,$3,$4,$5,$6,$7,$8,$9,$2,$3,0*
0 Add four circle primitives for the rounded corners*
1,1,$1+$1,$2,$3*
1,1,$1+$1,$4,$5*
1,1,$1+$1,$6,$7*
1,1,$1+$1,$8,$9*
0 Add four rect primitives between the rounded corners*
20,1,$1+$1,$2,$3,$4,$5,0*
20,1,$1+$1,$4,$5,$6,$7,0*
20,1,$1+$1,$6,$7,$8,$9,0*
20,1,$1+$1,$8,$9,$2,$3,0*%
%AMHorizOval*
0 Thick line with rounded ends*
0 $1 width*
0 $2 $3 position (X,Y) of the first rounded end (center of the circle)*
0 $4 $5 position (X,Y) of the second rounded end (center of the circle)*
0 Add line between two ends*
20,1,$1,$2,$3,$4,$5,0*
0 Add two circle primitives to create the rounded ends*
1,1,$1,$2,$3*
1,1,$1,$4,$5*%
%AMFreePoly0*
4,1,17,-0.309965,1.070035,-0.309950,1.070000,-0.309950,0.650050,0.660000,0.650050,0.660035,0.650035,0.660050,0.650000,0.660050,-0.650000,0.660035,-0.650035,0.660000,-0.650050,-0.660000,-0.650050,-0.660035,-0.650035,-0.660050,-0.650000,-0.660050,1.070000,-0.660035,1.070035,-0.660000,1.070050,-0.310000,1.070050,-0.309965,1.070035,-0.309965,1.070035,$1*%
%AMFreePoly1*
4,1,23,1.070035,0.660035,1.070050,0.660000,1.070050,0.310000,1.070035,0.309965,1.070000,0.309950,0.660000,0.309950,0.660000,-0.650000,0.650050,-0.650000,0.650050,-0.660000,0.650035,-0.660035,0.650000,-0.660050,-0.650000,-0.660050,-0.650035,-0.660035,-0.650050,-0.660000,-0.650050,-0.650000,-0.660000,-0.650000,-0.660000,0.650000,-0.650050,0.650000,-0.650050,0.660000,-0.650035,0.660035,
-0.650000,0.660050,1.070000,0.660050,1.070035,0.660035,1.070035,0.660035,$1*%
%AMFreePoly2*
4,1,17,0.660035,0.650035,0.660050,0.650000,0.660050,-1.070000,0.660035,-1.070035,0.660000,-1.070050,0.310000,-1.070050,0.309965,-1.070035,0.309950,-1.070000,0.309950,-0.650050,-0.660000,-0.650050,-0.660035,-0.650035,-0.660050,-0.650000,-0.660050,0.650000,-0.660035,0.650035,-0.660000,0.650050,0.660000,0.650050,0.660035,0.650035,0.660035,0.650035,$1*%
%AMFreePoly3*
4,1,23,0.650035,0.660035,0.650050,0.660000,0.650050,0.650000,0.660000,0.650000,0.660000,-0.650000,0.650050,-0.650000,0.650050,-0.660000,0.650035,-0.660035,0.650000,-0.660050,-1.070000,-0.660050,-1.070035,-0.660035,-1.070050,-0.660000,-1.070050,-0.310000,-1.070035,-0.309965,-1.070000,-0.309950,-0.660000,-0.309950,-0.660000,0.650000,-0.650050,0.650000,-0.650050,0.660000,-0.650035,0.660035,
-0.650000,0.660050,0.650000,0.660050,0.650035,0.660035,0.650035,0.660035,$1*%
G04 Aperture macros list end*
%TA.AperFunction,ComponentPad*%
%ADD10HorizOval,2.800000X1.890802X0.186728X-1.890802X-0.186728X0*%
%TD*%
%TA.AperFunction,SMDPad,CuDef*%
%ADD11RoundRect,0.100000X-0.130000X-0.100000X0.130000X-0.100000X0.130000X0.100000X-0.130000X0.100000X0*%
%TD*%
%TA.AperFunction,ComponentPad*%
%ADD12HorizOval,2.800000X1.890802X-0.186728X-1.890802X0.186728X0*%
%TD*%
%TA.AperFunction,SMDPad,CuDef*%
%ADD13RoundRect,0.100000X0.130000X0.100000X-0.130000X0.100000X-0.130000X-0.100000X0.130000X-0.100000X0*%
%TD*%
%TA.AperFunction,SMDPad,CuDef*%
%ADD14FreePoly0,270.000000*%
%TD*%
%TA.AperFunction,SMDPad,CuDef*%
%ADD15FreePoly1,180.000000*%
%TD*%
%TA.AperFunction,SMDPad,CuDef*%
%ADD16FreePoly2,90.000000*%
%TD*%
%TA.AperFunction,SMDPad,CuDef*%
%ADD17FreePoly3,0.000000*%
%TD*%
%TA.AperFunction,SMDPad,CuDef*%
%ADD18FreePoly0,0.000000*%
%TD*%
%TA.AperFunction,SMDPad,CuDef*%
%ADD19FreePoly1,270.000000*%
%TD*%
%TA.AperFunction,SMDPad,CuDef*%
%ADD20FreePoly2,180.000000*%
%TD*%
%TA.AperFunction,SMDPad,CuDef*%
%ADD21FreePoly3,90.000000*%
%TD*%
%TA.AperFunction,ViaPad*%
%ADD22C,0.600000*%
%TD*%
%TA.AperFunction,ViaPad*%
%ADD23C,1.000000*%
%TD*%
%TA.AperFunction,Conductor*%
%ADD24C,0.420000*%
%TD*%
G04 APERTURE END LIST*
D10*
%TO.P,H1,1*%
%TO.N,N/C*%
X86952580Y-87434452D03*
%TD*%
D11*
%TO.P,R2,2*%
%TO.N,Net-(C7-Pad1)*%
X94936408Y-87136622D03*
%TO.P,R2,1*%
%TO.N,HV+*%
X94296408Y-87136622D03*
%TD*%
D10*
%TO.P,H2,1*%
%TO.N,N/C*%
X87710893Y-95553914D03*
%TD*%
D12*
%TO.P,H3,*%
%TO.N,*%
X113052869Y-87485539D03*
%TD*%
D13*
%TO.P,R1,2*%
%TO.N,Net-(C4-Pad2)*%
X105122229Y-87198242D03*
%TO.P,R1,1*%
%TO.N,HV+*%
X105762229Y-87198242D03*
%TD*%
D12*
%TO.P,H4,*%
%TO.N,*%
X112321273Y-95623988D03*
%TD*%
D14*
%TO.P,U1,1*%
%TO.N,Net-(J2-SIGNAL)*%
X101391306Y-89093644D03*
D15*
%TO.P,U1,2*%
%TO.N,unconnected-(U1-Pad2)*%
X101381306Y-87143644D03*
D16*
%TO.P,U1,3*%
%TO.N,Net-(C4-Pad2)*%
X103351306Y-87133644D03*
D17*
%TO.P,U1,4*%
%TO.N,unconnected-(U1-Pad4)*%
X103361306Y-89083644D03*
%TD*%
D18*
%TO.P,U2,1*%
%TO.N,Net-(J3-SIGNAL)*%
X98617090Y-89103644D03*
D19*
%TO.P,U2,2*%
%TO.N,unconnected-(U2-Pad2)*%
X96667090Y-89113644D03*
D20*
%TO.P,U2,3*%
%TO.N,Net-(C7-Pad1)*%
X96657090Y-87143644D03*
D21*
%TO.P,U2,4*%
%TO.N,unconnected-(U2-Pad4)*%
X98607090Y-87133644D03*
%TD*%
D22*
%TO.N,Net-(C4-Pad2)*%
X105129261Y-88016600D03*
%TO.N,HV+*%
X106500000Y-88000000D03*
X93478357Y-87136622D03*
D23*
%TO.N,GND*%
X100500000Y-96000000D03*
X99000000Y-96000000D03*
X92650000Y-89064689D03*
X107602741Y-92052894D03*
X107602741Y-90558216D03*
X107602741Y-89121622D03*
X107522241Y-87014874D03*
X107522241Y-85659869D03*
X92650000Y-92056435D03*
X106000000Y-94000000D03*
X94000000Y-94000000D03*
X96638147Y-90864525D03*
X97500000Y-84365929D03*
D22*
X102500000Y-92000000D03*
D23*
X107522241Y-84306264D03*
X103500000Y-91000000D03*
D22*
X97500000Y-92000000D03*
D23*
X102468490Y-84365929D03*
X92650000Y-90500000D03*
D22*
%TO.N,Net-(J2-SIGNAL)*%
X101388400Y-91400879D03*
%TO.N,Net-(C7-Pad1)*%
X94944781Y-87854292D03*
%TO.N,Net-(J3-SIGNAL)*%
X98500000Y-91500000D03*
%TD*%
D24*
%TO.N,HV+*%
X105762229Y-87198242D02*
X105762229Y-87262229D01*
X105762229Y-87262229D02*
X106500000Y-88000000D01*
%TO.N,Net-(C4-Pad2)*%
X105129261Y-88016600D02*
X105129261Y-87999999D01*
X105122229Y-87198242D02*
X105129261Y-88016600D01*
%TO.N,Net-(C7-Pad1)*%
X94936408Y-87136622D02*
X94944781Y-87854292D01*
X94936408Y-87136622D02*
X94943430Y-87143644D01*
X94943430Y-87143644D02*
X96657090Y-87143644D01*
%TO.N,HV+*%
X93478357Y-87136622D02*
X94296408Y-87136622D01*
%TO.N,Net-(C4-Pad2)*%
X103717662Y-87500000D02*
X103351306Y-87133644D01*
%TO.N,Net-(J2-SIGNAL)*%
X101388400Y-91400879D02*
X101352864Y-91258735D01*
X101391306Y-89093644D02*
X101388400Y-91400879D01*
%TO.N,Net-(J3-SIGNAL)*%
X98617090Y-89103644D02*
X98500000Y-91500000D01*
%TO.N,Net-(C4-Pad2)*%
X105122229Y-87198242D02*
X103351306Y-87133644D01*
%TD*%
%TA.AperFunction,Conductor*%
%TO.N,GND*%
G36*
X102443268Y-83009334D02*
G01*
X102445287Y-83009370D01*
X104889484Y-83074819D01*
X104891648Y-83074897D01*
X107334274Y-83183990D01*
X107336325Y-83184100D01*
X109776610Y-83336801D01*
X109778671Y-83336948D01*
X112215960Y-83533217D01*
X112217848Y-83533385D01*
X113311132Y-83638655D01*
X113375974Y-83664674D01*
X113416457Y-83721620D01*
X113422647Y-83774245D01*
X113255414Y-85471167D01*
X113229250Y-85535953D01*
X113172213Y-85576309D01*
X113119826Y-85582406D01*
X111224886Y-85395269D01*
X111224882Y-85395269D01*
X110975882Y-85403355D01*
X110975876Y-85403355D01*
X110730069Y-85443872D01*
X110491652Y-85516128D01*
X110491648Y-85516129D01*
X110491647Y-85516130D01*
X110454719Y-85532850D01*
X110264690Y-85618890D01*
X110053102Y-85750386D01*
X109943028Y-85840673D01*
X109860476Y-85908386D01*
X109860473Y-85908388D01*
X109860473Y-85908389D01*
X109690123Y-86090175D01*
X109690120Y-86090178D01*
X109544964Y-86292632D01*
X109544962Y-86292636D01*
X109544960Y-86292639D01*
X109544959Y-86292641D01*
X109437452Y-86493645D01*
X109427460Y-86512327D01*
X109339644Y-86745462D01*
X109339642Y-86745469D01*
X109283011Y-86988061D01*
X109283008Y-86988077D01*
X109258525Y-87235990D01*
X109258525Y-87235994D01*
X109258525Y-87235996D01*
X109259766Y-87274210D01*
X109266611Y-87484992D01*
X109266611Y-87485001D01*
X109307128Y-87730808D01*
X109379384Y-87969225D01*
X109379386Y-87969231D01*
X109480607Y-88192789D01*
X109482146Y-88196187D01*
X109613642Y-88407775D01*
X109613645Y-88407779D01*
X109613646Y-88407780D01*
X109771642Y-88600402D01*
X109905446Y-88725788D01*
X109953431Y-88770754D01*
X109953434Y-88770757D01*
X110155888Y-88915913D01*
X110155890Y-88915914D01*
X110155897Y-88915919D01*
X110375579Y-89033416D01*
X110473097Y-89070148D01*
X110608718Y-89121233D01*
X110608725Y-89121235D01*
X110749687Y-89154141D01*
X110851328Y-89177869D01*
X112747092Y-89365087D01*
X112811873Y-89391265D01*
X112852217Y-89448310D01*
X112858308Y-89500648D01*
X112454047Y-93602725D01*
X112427883Y-93667511D01*
X112370846Y-93707867D01*
X112318459Y-93713964D01*
X110493290Y-93533718D01*
X110493286Y-93533718D01*
X110244286Y-93541804D01*
X110244280Y-93541804D01*
X109998473Y-93582321D01*
X109760056Y-93654577D01*
X109760052Y-93654578D01*
X109760051Y-93654579D01*
X109646575Y-93705958D01*
X109533094Y-93757339D01*
X109321506Y-93888835D01*
X109214317Y-93976756D01*
X109128880Y-94046835D01*
X109128877Y-94046837D01*
X109128877Y-94046838D01*
X108958527Y-94228624D01*
X108958524Y-94228627D01*
X108813368Y-94431081D01*
X108813366Y-94431085D01*
X108695864Y-94650776D01*
X108608048Y-94883911D01*
X108608046Y-94883918D01*
X108551415Y-95126510D01*
X108551412Y-95126526D01*
X108526929Y-95374439D01*
X108526929Y-95374443D01*
X108526929Y-95374445D01*
X108532740Y-95553376D01*
X108535015Y-95623441D01*
X108535015Y-95623450D01*
X108575532Y-95869257D01*
X108626553Y-96037606D01*
X108647790Y-96107680D01*
X108750548Y-96334632D01*
X108750550Y-96334636D01*
X108882046Y-96546224D01*
X108882049Y-96546228D01*
X108882050Y-96546229D01*
X109040046Y-96738851D01*
X109147060Y-96839132D01*
X109221835Y-96909203D01*
X109221838Y-96909206D01*
X109424292Y-97054362D01*
X109424294Y-97054363D01*
X109424301Y-97054368D01*
X109643983Y-97171865D01*
X109777710Y-97222236D01*
X109877122Y-97259682D01*
X109877129Y-97259684D01*
X110002981Y-97289063D01*
X110119732Y-97316318D01*
X111945727Y-97496645D01*
X112010506Y-97522823D01*
X112050850Y-97579868D01*
X112056941Y-97632206D01*
X111975114Y-98462518D01*
X111948950Y-98527304D01*
X111891913Y-98567660D01*
X111839827Y-98573786D01*
X110878582Y-98481231D01*
X108706751Y-98306337D01*
X106532129Y-98170257D01*
X104355536Y-98073037D01*
X102177387Y-98014698D01*
X99998658Y-97995266D01*
X97819873Y-98014747D01*
X95641838Y-98073131D01*
X93465191Y-98170401D01*
X93465161Y-98170402D01*
X93465158Y-98170403D01*
X93275208Y-98182293D01*
X91290573Y-98306529D01*
X89118739Y-98481470D01*
X88157479Y-98574049D01*
X88088862Y-98560882D01*
X88038255Y-98512707D01*
X88022192Y-98462804D01*
X87993321Y-98170403D01*
X87933668Y-97566257D01*
X87946670Y-97497610D01*
X87994723Y-97446888D01*
X88044877Y-97430676D01*
X89912434Y-97246244D01*
X90105640Y-97201141D01*
X90155036Y-97189610D01*
X90155043Y-97189608D01*
X90202145Y-97171866D01*
X90388183Y-97101791D01*
X90607865Y-96984294D01*
X90810333Y-96839128D01*
X90992120Y-96668777D01*
X91150116Y-96476155D01*
X91281619Y-96264558D01*
X91384377Y-96037606D01*
X91456633Y-95799185D01*
X91497151Y-95553371D01*
X91505237Y-95304371D01*
X91480753Y-95056447D01*
X91430989Y-94843270D01*
X91424120Y-94813844D01*
X91424119Y-94813842D01*
X91424118Y-94813841D01*
X91424118Y-94813838D01*
X91336300Y-94580698D01*
X91218803Y-94361016D01*
X91218795Y-94361006D01*
X91218793Y-94361001D01*
X91073642Y-94158555D01*
X91073633Y-94158543D01*
X90903281Y-93976756D01*
X90710667Y-93818767D01*
X90710659Y-93818761D01*
X90499071Y-93687265D01*
X90499067Y-93687263D01*
X90272116Y-93584505D01*
X90272111Y-93584503D01*
X90272110Y-93584503D01*
X90033691Y-93512247D01*
X90033692Y-93512247D01*
X89787880Y-93471730D01*
X89538880Y-93463644D01*
X89538878Y-93463644D01*
X89538873Y-93463644D01*
X87671396Y-93648068D01*
X87602747Y-93635067D01*
X87552024Y-93587015D01*
X87535810Y-93536854D01*
X87132383Y-89451038D01*
X87145385Y-89382391D01*
X87193438Y-89331669D01*
X87243589Y-89315458D01*
X89154121Y-89126782D01*
X89310667Y-89090236D01*
X89396723Y-89070148D01*
X89396730Y-89070146D01*
X89416519Y-89062692D01*
X89629870Y-88982329D01*
X89849552Y-88864832D01*
X90052020Y-88719666D01*
X90233807Y-88549315D01*
X90391803Y-88356693D01*
X90523306Y-88145096D01*
X90626064Y-87918144D01*
X90698320Y-87679723D01*
X90738838Y-87433909D01*
X90746924Y-87184909D01*
X90742155Y-87136618D01*
X92672792Y-87136618D01*
X92672792Y-87136625D01*
X92692987Y-87315871D01*
X92692988Y-87315876D01*
X92752568Y-87486145D01*
X92848541Y-87638884D01*
X92976095Y-87766438D01*
X93035308Y-87803644D01*
X93124052Y-87859406D01*
X93128835Y-87862411D01*
X93288111Y-87918144D01*
X93299102Y-87921990D01*
X93299107Y-87921991D01*
X93478353Y-87942187D01*
X93478357Y-87942187D01*
X93478361Y-87942187D01*
X93657606Y-87921991D01*
X93657609Y-87921990D01*
X93657612Y-87921990D01*
X93827879Y-87862411D01*
X93827882Y-87862408D01*
X93834118Y-87859406D01*
X93887928Y-87847122D01*
X94027595Y-87847122D01*
X94094634Y-87866807D01*
X94140389Y-87919611D01*
X94150815Y-87957239D01*
X94159411Y-88033541D01*
X94218991Y-88203813D01*
X94297182Y-88328252D01*
X94314965Y-88356554D01*
X94442519Y-88484108D01*
X94471411Y-88502262D01*
X94582996Y-88572376D01*
X94595259Y-88580081D01*
X94765526Y-88639660D01*
X94765531Y-88639661D01*
X94944777Y-88659857D01*
X94944781Y-88659857D01*
X94944785Y-88659857D01*
X95124030Y-88639661D01*
X95124033Y-88639660D01*
X95124036Y-88639660D01*
X95294303Y-88580081D01*
X95306565Y-88572375D01*
X95373801Y-88553374D01*
X95440637Y-88573740D01*
X95485853Y-88627007D01*
X95496540Y-88677368D01*
X95496540Y-89763649D01*
X95499432Y-89817647D01*
X95499434Y-89817663D01*
X95535010Y-89957065D01*
X95535013Y-89957077D01*
X95536486Y-89960634D01*
X95536492Y-89960647D01*
X95545836Y-89977759D01*
X95588302Y-90055529D01*
X95686348Y-90160830D01*
X95716718Y-90178847D01*
X95719665Y-90180596D01*
X95737596Y-90193525D01*
X95743796Y-90198898D01*
X95766943Y-90209469D01*
X95778678Y-90215607D01*
X95810090Y-90234243D01*
X95813661Y-90235722D01*
X95842047Y-90245736D01*
X95855759Y-90250573D01*
X95866017Y-90254714D01*
X95874674Y-90258668D01*
X96017090Y-90279144D01*
X96383691Y-90279144D01*
X96450730Y-90298829D01*
X96496485Y-90351633D01*
X96503840Y-90372481D01*
X96505009Y-90377063D01*
X96505014Y-90377079D01*
X96506486Y-90380634D01*
X96506492Y-90380647D01*
X96558302Y-90475529D01*
X96656348Y-90580830D01*
X96780090Y-90654243D01*
X96783661Y-90655722D01*
X96834674Y-90673718D01*
X96977090Y-90694194D01*
X96977093Y-90694194D01*
X97327096Y-90694194D01*
X97381093Y-90691301D01*
X97381096Y-90691300D01*
X97381107Y-90691300D01*
X97520519Y-90655722D01*
X97524090Y-90654243D01*
X97618975Y-90602432D01*
X97619437Y-90602001D01*
X97619880Y-90601779D01*
X97625270Y-90597893D01*
X97625898Y-90598765D01*
X97681907Y-90570716D01*
X97751378Y-90578172D01*
X97805790Y-90622002D01*
X97827867Y-90688292D01*
X97827799Y-90698793D01*
X97823408Y-90788674D01*
X97821224Y-90806558D01*
X97728767Y-91276548D01*
X97724142Y-91293563D01*
X97714632Y-91320741D01*
X97714630Y-91320750D01*
X97707881Y-91380652D01*
X97706881Y-91387702D01*
X97706747Y-91388481D01*
X97699689Y-91436333D01*
X97699470Y-91438546D01*
X97699494Y-91447821D01*
X97698715Y-91462012D01*
X97694436Y-91499999D01*
X97694435Y-91500004D01*
X97714630Y-91679249D01*
X97714631Y-91679254D01*
X97774211Y-91849523D01*
X97807902Y-91903141D01*
X97870184Y-92002262D01*
X97997738Y-92129816D01*
X98087547Y-92186247D01*
X98119690Y-92206444D01*
X98150478Y-92225789D01*
X98320745Y-92285368D01*
X98320750Y-92285369D01*
X98499996Y-92305565D01*
X98500000Y-92305565D01*
X98500004Y-92305565D01*
X98679249Y-92285369D01*
X98679252Y-92285368D01*
X98679255Y-92285368D01*
X98849522Y-92225789D01*
X99002262Y-92129816D01*
X99129816Y-92002262D01*
X99225789Y-91849522D01*
X99285368Y-91679255D01*
X99296537Y-91580133D01*
X99305565Y-91500002D01*
X99305565Y-91499999D01*
X99301661Y-91465354D01*
X99300975Y-91446634D01*
X99301439Y-91434759D01*
X99243264Y-90876280D01*
X99242746Y-90857385D01*
X99266655Y-90368059D01*
X99289588Y-90302063D01*
X99344562Y-90258940D01*
X99359834Y-90253968D01*
X99470519Y-90225722D01*
X99474090Y-90224243D01*
X99568975Y-90172432D01*
X99674276Y-90074386D01*
X99747689Y-89950644D01*
X99749168Y-89947073D01*
X99767164Y-89896060D01*
X99787640Y-89753644D01*
X99787640Y-88453644D01*
X99786568Y-88433644D01*
X99784747Y-88399640D01*
X99784746Y-88399636D01*
X99784746Y-88399627D01*
X99768274Y-88335085D01*
X99765686Y-88286783D01*
X99769589Y-88259638D01*
X99798614Y-88196085D01*
X99857392Y-88158312D01*
X99927262Y-88158312D01*
X99983077Y-88192789D01*
X99990564Y-88200830D01*
X100114306Y-88274243D01*
X100117877Y-88275722D01*
X100150948Y-88287388D01*
X100207619Y-88328252D01*
X100233202Y-88393270D01*
X100232434Y-88421968D01*
X100230756Y-88433636D01*
X100230756Y-89753649D01*
X100233648Y-89807647D01*
X100233650Y-89807663D01*
X100269226Y-89947065D01*
X100269229Y-89947077D01*
X100270702Y-89950634D01*
X100270708Y-89950647D01*
X100301446Y-90006938D01*
X100322518Y-90045529D01*
X100420564Y-90150830D01*
X100544306Y-90224243D01*
X100547877Y-90225722D01*
X100588251Y-90239964D01*
X100596463Y-90242862D01*
X100653135Y-90283729D01*
X100678716Y-90348747D01*
X100679210Y-90359955D01*
X100678756Y-90719786D01*
X100677362Y-90738170D01*
X100606925Y-91203986D01*
X100604252Y-91214757D01*
X100604582Y-91214833D01*
X100603030Y-91221631D01*
X100599706Y-91251124D01*
X100599094Y-91255767D01*
X100590608Y-91311900D01*
X100590607Y-91311908D01*
X100590472Y-91313090D01*
X100586421Y-91348622D01*
X100586290Y-91350325D01*
X100586423Y-91360319D01*
X100585655Y-91375849D01*
X100582835Y-91400881D01*
X100582835Y-91400882D01*
X100603030Y-91580128D01*
X100603031Y-91580133D01*
X100662611Y-91750402D01*
X100758584Y-91903141D01*
X100886138Y-92030695D01*
X101038878Y-92126668D01*
X101209145Y-92186247D01*
X101209150Y-92186248D01*
X101388396Y-92206444D01*
X101388400Y-92206444D01*
X101388404Y-92206444D01*
X101567649Y-92186248D01*
X101567652Y-92186247D01*
X101567655Y-92186247D01*
X101737922Y-92126668D01*
X101890662Y-92030695D01*
X102018216Y-91903141D01*
X102114189Y-91750401D01*
X102173768Y-91580134D01*
X102182797Y-91500004D01*
X102193965Y-91400881D01*
X102193965Y-91400878D01*
X102191686Y-91380652D01*
X102187253Y-91341319D01*
X102186475Y-91328047D01*
X102186402Y-91313090D01*
X102177135Y-91250830D01*
X102176575Y-91246544D01*
X102173768Y-91221624D01*
X102173766Y-91221619D01*
X102172218Y-91214833D01*
X102172711Y-91214720D01*
X102170336Y-91205146D01*
X102101106Y-90739962D01*
X102099755Y-90721553D01*
X102100198Y-90369661D01*
X102119967Y-90302649D01*
X102172829Y-90256961D01*
X102241843Y-90247082D01*
X102291306Y-90254194D01*
X102291309Y-90254194D01*
X104011312Y-90254194D01*
X104065309Y-90251301D01*
X104065312Y-90251300D01*
X104065323Y-90251300D01*
X104204735Y-90215722D01*
X104208306Y-90214243D01*
X104303191Y-90162432D01*
X104408492Y-90064386D01*
X104428259Y-90031064D01*
X104441189Y-90013135D01*
X104446560Y-90006938D01*
X104457134Y-89983782D01*
X104463268Y-89972055D01*
X104481905Y-89940644D01*
X104483384Y-89937073D01*
X104498242Y-89894952D01*
X104502381Y-89884706D01*
X104506330Y-89876059D01*
X104514728Y-89817647D01*
X104526806Y-89733644D01*
X104526806Y-88807821D01*
X104546491Y-88740782D01*
X104599295Y-88695027D01*
X104668453Y-88685083D01*
X104716776Y-88702827D01*
X104741441Y-88718325D01*
X104779736Y-88742388D01*
X104950006Y-88801968D01*
X104950011Y-88801969D01*
X105129257Y-88822165D01*
X105129261Y-88822165D01*
X105129265Y-88822165D01*
X105308510Y-88801969D01*
X105308513Y-88801968D01*
X105308516Y-88801968D01*
X105478783Y-88742389D01*
X105631523Y-88646416D01*
X105735252Y-88542686D01*
X105796571Y-88509204D01*
X105866263Y-88514188D01*
X105910611Y-88542689D01*
X105997738Y-88629816D01*
X106075118Y-88678437D01*
X106140739Y-88719670D01*
X106150478Y-88725789D01*
X106278978Y-88770753D01*
X106320745Y-88785368D01*
X106320750Y-88785369D01*
X106499996Y-88805565D01*
X106500000Y-88805565D01*
X106500004Y-88805565D01*
X106679249Y-88785369D01*
X106679252Y-88785368D01*
X106679255Y-88785368D01*
X106849522Y-88725789D01*
X107002262Y-88629816D01*
X107129816Y-88502262D01*
X107225789Y-88349522D01*
X107285368Y-88179255D01*
X107287728Y-88158312D01*
X107305565Y-88000003D01*
X107305565Y-87999996D01*
X107285369Y-87820750D01*
X107285368Y-87820745D01*
X107225788Y-87650476D01*
X107129815Y-87497737D01*
X107002262Y-87370184D01*
X106849524Y-87274212D01*
X106849520Y-87274210D01*
X106767767Y-87245603D01*
X106721041Y-87216243D01*
X106511736Y-87006938D01*
X106480163Y-86949117D01*
X106479376Y-86949329D01*
X106478506Y-86946082D01*
X106478251Y-86945615D01*
X106478009Y-86944228D01*
X106477273Y-86941479D01*
X106416765Y-86795402D01*
X106416765Y-86795401D01*
X106320511Y-86669960D01*
X106195070Y-86573706D01*
X106082227Y-86526965D01*
X106048991Y-86513198D01*
X106048989Y-86513197D01*
X105931599Y-86497743D01*
X105931596Y-86497742D01*
X105931590Y-86497742D01*
X105931583Y-86497742D01*
X105894692Y-86497742D01*
X105870501Y-86495359D01*
X105844449Y-86490177D01*
X105832208Y-86487742D01*
X105832207Y-86487742D01*
X105692251Y-86487742D01*
X105653947Y-86495360D01*
X105629762Y-86497742D01*
X105592866Y-86497742D01*
X105475463Y-86513197D01*
X105474312Y-86513506D01*
X105473120Y-86513506D01*
X105467408Y-86514258D01*
X105467309Y-86513506D01*
X105417148Y-86513506D01*
X105417049Y-86514259D01*
X105411336Y-86513506D01*
X105410146Y-86513507D01*
X105408994Y-86513198D01*
X105291599Y-86497743D01*
X105291596Y-86497742D01*
X105291590Y-86497742D01*
X105291583Y-86497742D01*
X105261986Y-86497742D01*
X105233380Y-86494397D01*
X105218062Y-86490765D01*
X105218058Y-86490764D01*
X105211329Y-86490519D01*
X105192710Y-86488423D01*
X105186099Y-86487167D01*
X105186091Y-86487166D01*
X105134948Y-86487605D01*
X105129365Y-86487528D01*
X105037264Y-86484169D01*
X104970986Y-86462054D01*
X104927186Y-86407617D01*
X104921634Y-86390913D01*
X104917875Y-86376183D01*
X104893384Y-86280215D01*
X104891905Y-86276644D01*
X104840094Y-86181759D01*
X104742048Y-86076458D01*
X104716041Y-86061029D01*
X104618308Y-86003046D01*
X104614740Y-86001568D01*
X104614738Y-86001567D01*
X104614735Y-86001566D01*
X104592069Y-85993570D01*
X104563724Y-85983570D01*
X104490859Y-85973094D01*
X104421306Y-85963094D01*
X102701306Y-85963094D01*
X102701300Y-85963094D01*
X102647302Y-85965986D01*
X102647286Y-85965988D01*
X102507884Y-86001564D01*
X102507872Y-86001567D01*
X102504315Y-86003040D01*
X102504309Y-86003043D01*
X102413778Y-86052477D01*
X102345505Y-86067328D01*
X102291083Y-86050288D01*
X102228311Y-86013047D01*
X102224740Y-86011568D01*
X102224738Y-86011567D01*
X102224735Y-86011566D01*
X102202069Y-86003570D01*
X102173724Y-85993570D01*
X102100859Y-85983094D01*
X102031306Y-85973094D01*
X100731306Y-85973094D01*
X100731300Y-85973094D01*
X100677302Y-85975986D01*
X100677286Y-85975988D01*
X100537884Y-86011564D01*
X100537872Y-86011567D01*
X100534315Y-86013040D01*
X100534302Y-86013046D01*
X100439420Y-86064856D01*
X100334120Y-86162901D01*
X100314349Y-86196225D01*
X100301423Y-86214150D01*
X100296053Y-86220347D01*
X100296052Y-86220348D01*
X100285483Y-86243490D01*
X100279336Y-86255242D01*
X100260707Y-86286644D01*
X100259228Y-86290215D01*
X100258374Y-86292636D01*
X100244374Y-86332319D01*
X100240237Y-86342563D01*
X100236283Y-86351222D01*
X100236282Y-86351224D01*
X100220466Y-86461229D01*
X100216305Y-86490177D01*
X100215806Y-86493645D01*
X100215806Y-86860245D01*
X100196121Y-86927284D01*
X100143317Y-86973039D01*
X100122469Y-86980394D01*
X100117886Y-86981563D01*
X100117870Y-86981568D01*
X100114315Y-86983040D01*
X100114302Y-86983046D01*
X100019420Y-87034856D01*
X99986138Y-87065845D01*
X99923660Y-87097121D01*
X99854190Y-87089654D01*
X99799786Y-87045815D01*
X99777719Y-86979521D01*
X99777640Y-86975092D01*
X99777640Y-86483638D01*
X99774747Y-86429640D01*
X99774746Y-86429635D01*
X99774746Y-86429627D01*
X99739168Y-86290215D01*
X99737689Y-86286644D01*
X99732226Y-86276640D01*
X99713068Y-86241554D01*
X99685878Y-86191759D01*
X99587832Y-86086458D01*
X99554511Y-86066689D01*
X99536588Y-86053766D01*
X99530384Y-86048390D01*
X99530380Y-86048388D01*
X99530379Y-86048387D01*
X99507245Y-86037822D01*
X99495489Y-86031673D01*
X99480946Y-86023045D01*
X99464090Y-86013045D01*
X99464088Y-86013044D01*
X99464086Y-86013043D01*
X99460524Y-86011568D01*
X99460500Y-86011559D01*
X99418414Y-85996712D01*
X99408156Y-85992570D01*
X99399506Y-85988620D01*
X99257090Y-85968144D01*
X97957090Y-85968144D01*
X97957087Y-85968144D01*
X97885147Y-85973289D01*
X97764416Y-86008738D01*
X97760165Y-86009905D01*
X97753667Y-86011564D01*
X97749467Y-86012962D01*
X97749431Y-86012855D01*
X97748510Y-86013179D01*
X97747099Y-86013823D01*
X97741986Y-86017110D01*
X97734376Y-86021625D01*
X97680390Y-86051103D01*
X97612117Y-86065954D01*
X97557696Y-86048915D01*
X97514093Y-86023047D01*
X97514090Y-86023045D01*
X97514088Y-86023044D01*
X97514086Y-86023043D01*
X97510524Y-86021568D01*
X97510522Y-86021567D01*
X97510519Y-86021566D01*
X97488576Y-86013825D01*
X97459508Y-86003570D01*
X97382998Y-85992570D01*
X97317090Y-85983094D01*
X97317088Y-85983094D01*
X96941752Y-85983094D01*
X96874713Y-85963409D01*
X96828958Y-85910605D01*
X96821603Y-85889757D01*
X96820791Y-85886575D01*
X96819168Y-85880215D01*
X96817689Y-85876644D01*
X96765878Y-85781759D01*
X96667832Y-85676458D01*
X96570794Y-85618888D01*
X96544092Y-85603046D01*
X96540524Y-85601568D01*
X96540522Y-85601567D01*
X96540519Y-85601566D01*
X96527731Y-85597054D01*
X96489508Y-85583570D01*
X96418298Y-85573332D01*
X96347090Y-85563094D01*
X95997090Y-85563094D01*
X95997084Y-85563094D01*
X95943086Y-85565986D01*
X95943070Y-85565988D01*
X95803668Y-85601564D01*
X95803656Y-85601567D01*
X95800099Y-85603040D01*
X95800086Y-85603046D01*
X95705204Y-85654856D01*
X95599906Y-85752900D01*
X95599902Y-85752904D01*
X95526492Y-85876641D01*
X95525014Y-85880209D01*
X95507016Y-85931225D01*
X95507016Y-85931226D01*
X95494668Y-86017110D01*
X95487540Y-86066693D01*
X95486540Y-86073645D01*
X95486540Y-86309144D01*
X95466855Y-86376183D01*
X95414051Y-86421938D01*
X95362540Y-86433144D01*
X95053901Y-86433144D01*
X95029709Y-86430761D01*
X95010731Y-86426986D01*
X95006388Y-86426122D01*
X95002875Y-86425776D01*
X95002706Y-86425752D01*
X95001762Y-86425665D01*
X95001599Y-86425658D01*
X94998095Y-86425354D01*
X94998092Y-86425354D01*
X94932961Y-86426114D01*
X94931514Y-86426122D01*
X94866426Y-86426122D01*
X94862900Y-86426469D01*
X94862739Y-86426477D01*
X94861829Y-86426572D01*
X94861651Y-86426600D01*
X94858147Y-86426986D01*
X94827519Y-86433450D01*
X94801919Y-86436122D01*
X94767045Y-86436122D01*
X94649642Y-86451577D01*
X94648491Y-86451886D01*
X94647299Y-86451886D01*
X94641587Y-86452638D01*
X94641488Y-86451886D01*
X94591327Y-86451886D01*
X94591228Y-86452639D01*
X94585515Y-86451886D01*
X94584325Y-86451887D01*
X94583173Y-86451578D01*
X94465778Y-86436123D01*
X94465775Y-86436122D01*
X94465769Y-86436122D01*
X94465762Y-86436122D01*
X94428871Y-86436122D01*
X94404680Y-86433739D01*
X94388835Y-86430587D01*
X94366387Y-86426122D01*
X94366386Y-86426122D01*
X93887928Y-86426122D01*
X93834118Y-86413838D01*
X93827880Y-86410833D01*
X93657611Y-86351253D01*
X93657606Y-86351252D01*
X93478361Y-86331057D01*
X93478353Y-86331057D01*
X93299107Y-86351252D01*
X93299102Y-86351253D01*
X93128833Y-86410833D01*
X92976094Y-86506806D01*
X92848541Y-86634359D01*
X92752568Y-86787098D01*
X92692988Y-86957367D01*
X92692987Y-86957372D01*
X92672792Y-87136618D01*
X90742155Y-87136618D01*
X90722440Y-86936985D01*
X90689389Y-86795402D01*
X90665807Y-86694382D01*
X90665806Y-86694380D01*
X90665805Y-86694379D01*
X90665805Y-86694376D01*
X90577987Y-86461236D01*
X90460490Y-86241554D01*
X90460482Y-86241544D01*
X90460480Y-86241539D01*
X90351953Y-86090174D01*
X90315325Y-86039087D01*
X90315322Y-86039084D01*
X90315320Y-86039081D01*
X90144968Y-85857294D01*
X89952354Y-85699305D01*
X89952346Y-85699299D01*
X89740758Y-85567803D01*
X89740754Y-85567801D01*
X89513803Y-85465043D01*
X89513798Y-85465041D01*
X89513797Y-85465041D01*
X89275378Y-85392785D01*
X89275379Y-85392785D01*
X89029567Y-85352268D01*
X88780567Y-85344182D01*
X88780565Y-85344182D01*
X88780560Y-85344182D01*
X86870111Y-85532850D01*
X86801462Y-85519849D01*
X86750739Y-85471797D01*
X86734525Y-85421636D01*
X86571919Y-83774796D01*
X86584921Y-83706149D01*
X86632974Y-83655427D01*
X86683424Y-83639186D01*
X87776822Y-83533861D01*
X87778564Y-83533707D01*
X90215834Y-83337342D01*
X90217845Y-83337197D01*
X92658281Y-83184389D01*
X92660270Y-83184283D01*
X95102858Y-83075093D01*
X95105054Y-83075015D01*
X97549115Y-83009471D01*
X97551262Y-83009432D01*
X99996252Y-82987548D01*
X99998267Y-82987548D01*
X102443268Y-83009334D01*
G37*
%TD.AperFunction*%
%TD*%
%TA.AperFunction,Conductor*%
%TO.N,Net-(C7-Pad1)*%
G36*
X95146003Y-87256005D02*
G01*
X95149378Y-87262512D01*
X95242601Y-87840775D01*
X95240534Y-87849488D01*
X95232912Y-87854188D01*
X95231089Y-87854337D01*
X94944830Y-87855290D01*
X94944752Y-87855290D01*
X94658175Y-87854336D01*
X94649913Y-87850882D01*
X94646514Y-87842597D01*
X94646625Y-87841033D01*
X94726417Y-87267426D01*
X94730951Y-87259705D01*
X94737866Y-87257340D01*
X95137691Y-87252675D01*
X95146003Y-87256005D01*
G37*
%TD.AperFunction*%
%TD*%
%TA.AperFunction,Conductor*%
%TO.N,Net-(J2-SIGNAL)*%
G36*
X101589080Y-90801206D02*
G01*
X101597349Y-90804643D01*
X101600638Y-90811184D01*
X101686409Y-91387502D01*
X101684237Y-91396189D01*
X101676558Y-91400797D01*
X101674875Y-91400924D01*
X101388438Y-91401877D01*
X101388360Y-91401877D01*
X101101955Y-91400924D01*
X101093693Y-91397470D01*
X101090294Y-91389185D01*
X101090425Y-91387486D01*
X101177649Y-90810651D01*
X101182274Y-90802985D01*
X101189229Y-90800702D01*
X101589080Y-90801206D01*
G37*
%TD.AperFunction*%
%TD*%
%TA.AperFunction,Conductor*%
%TO.N,Net-(J3-SIGNAL)*%
G36*
X98728880Y-90913005D02*
G01*
X98736976Y-90916831D01*
X98739946Y-90923479D01*
X98798659Y-91487131D01*
X98796108Y-91495714D01*
X98788234Y-91499980D01*
X98787061Y-91500043D01*
X98499991Y-91500997D01*
X98499913Y-91500997D01*
X98214177Y-91500047D01*
X98205915Y-91496593D01*
X98202516Y-91488308D01*
X98202735Y-91486094D01*
X98317457Y-90902917D01*
X98322416Y-90895462D01*
X98329506Y-90893490D01*
X98728880Y-90913005D01*
G37*
%TD.AperFunction*%
%TD*%
M02*
