%TF.GenerationSoftware,KiCad,Pcbnew,8.0.2-1*%
%TF.CreationDate,2024-08-19T11:26:23+02:00*%
%TF.ProjectId,PUMA_PCB_REV2,50554d41-5f50-4434-925f-524556322e6b,rev?*%
%TF.SameCoordinates,Original*%
%TF.FileFunction,Copper,L1,Top*%
%TF.FilePolarity,Positive*%
%FSLAX46Y46*%
G04 Gerber Fmt 4.6, Leading zero omitted, Abs format (unit mm)*
G04 Created by KiCad (PCBNEW 8.0.2-1) date 2024-08-19 11:26:23*
%MOMM*%
%LPD*%
G01*
G04 APERTURE LIST*
G04 Aperture macros list*
%AMHorizOval*
0 Thick line with rounded ends*
0 $1 width*
0 $2 $3 position (X,Y) of the first rounded end (center of the circle)*
0 $4 $5 position (X,Y) of the second rounded end (center of the circle)*
0 Add line between two ends*
20,1,$1,$2,$3,$4,$5,0*
0 Add two circle primitives to create the rounded ends*
1,1,$1,$2,$3*
1,1,$1,$4,$5*%
G04 Aperture macros list end*
%TA.AperFunction,ComponentPad*%
%ADD10HorizOval,2.800000X1.890802X0.186728X-1.890802X-0.186728X0*%
%TD*%
%TA.AperFunction,SMDPad,CuDef*%
%ADD11R,0.850000X0.940000*%
%TD*%
%TA.AperFunction,ComponentPad*%
%ADD12HorizOval,2.800000X1.890802X-0.186728X-1.890802X0.186728X0*%
%TD*%
%TA.AperFunction,SMDPad,CuDef*%
%ADD13R,0.540000X0.940000*%
%TD*%
%TA.AperFunction,SMDPad,CuDef*%
%ADD14R,0.600000X0.550000*%
%TD*%
%TA.AperFunction,SMDPad,CuDef*%
%ADD15R,0.580000X1.580000*%
%TD*%
%TA.AperFunction,SMDPad,CuDef*%
%ADD16R,0.500000X0.500000*%
%TD*%
%TA.AperFunction,SMDPad,CuDef*%
%ADD17R,2.750000X1.000000*%
%TD*%
%TA.AperFunction,ViaPad*%
%ADD18C,1.000000*%
%TD*%
%TA.AperFunction,ViaPad*%
%ADD19C,0.600000*%
%TD*%
%TA.AperFunction,ViaPad*%
%ADD20C,0.800000*%
%TD*%
%TA.AperFunction,Conductor*%
%ADD21C,1.000000*%
%TD*%
%TA.AperFunction,Conductor*%
%ADD22C,0.600000*%
%TD*%
G04 APERTURE END LIST*
D10*
%TO.P,H1,1*%
%TO.N,N/C*%
X86952580Y-87434452D03*
%TD*%
D11*
%TO.P,C2,2,2*%
%TO.N,HV+*%
X105511307Y-92423625D03*
%TO.P,C2,1,1*%
%TO.N,GND*%
X106811307Y-92423625D03*
%TD*%
%TO.P,C3,2,2*%
%TO.N,HV+*%
X105511307Y-93763756D03*
%TO.P,C3,1,1*%
%TO.N,GND*%
X106811307Y-93763756D03*
%TD*%
D10*
%TO.P,H2,1*%
%TO.N,N/C*%
X87710893Y-95553914D03*
%TD*%
D12*
%TO.P,H3,*%
%TO.N,*%
X113052869Y-87485539D03*
%TD*%
D13*
%TO.P,C1,2,2*%
%TO.N,HV+*%
X105361307Y-91070020D03*
%TO.P,C1,1,1*%
%TO.N,GND*%
X106961307Y-91070020D03*
%TD*%
D14*
%TO.P,J2,1,SIGNAL*%
%TO.N,Net-(J2-SIGNAL)*%
X102330810Y-93182298D03*
D15*
%TO.P,J2,2,GND_1*%
%TO.N,GND*%
X101370810Y-94157298D03*
D16*
%TO.P,J2,3,GND_2*%
X102330810Y-95157298D03*
D15*
%TO.P,J2,4,GND_3*%
X103290810Y-94157298D03*
%TD*%
D17*
%TO.P,J1,1,1*%
%TO.N,HV+*%
X97894149Y-86426877D03*
%TO.P,J1,2,2*%
X102144149Y-86426877D03*
%TO.P,J1,3,3*%
%TO.N,GND*%
X97894149Y-88426877D03*
%TO.P,J1,4,4*%
X102144149Y-88426877D03*
%TD*%
D14*
%TO.P,J3,1,SIGNAL*%
%TO.N,Net-(J3-SIGNAL)*%
X97680004Y-93182298D03*
D15*
%TO.P,J3,2,GND_1*%
%TO.N,GND*%
X96720004Y-94157298D03*
D16*
%TO.P,J3,3,GND_2*%
X97680004Y-95157298D03*
D15*
%TO.P,J3,4,GND_3*%
X98640004Y-94157298D03*
%TD*%
D12*
%TO.P,H4,*%
%TO.N,*%
X112321273Y-95623988D03*
%TD*%
D18*
%TO.N,GND*%
X96638147Y-90864525D03*
X98500000Y-84365929D03*
D19*
X103500000Y-92500000D03*
D18*
X107833548Y-91070020D03*
X106000000Y-95750000D03*
X107833548Y-92423625D03*
X103500000Y-91000000D03*
X107833548Y-93778630D03*
X100500000Y-96000000D03*
D19*
X96500000Y-92500000D03*
D18*
X99000000Y-96000000D03*
X101750000Y-84250000D03*
X91750000Y-89750000D03*
D19*
%TO.N,HV+*%
X93322070Y-84647999D03*
X106628810Y-84404476D03*
D20*
%TO.N,Net-(J2-SIGNAL)*%
X101388400Y-91400879D03*
%TO.N,Net-(J3-SIGNAL)*%
X98500000Y-91500000D03*
%TD*%
D21*
%TO.N,GND*%
X103500000Y-90975045D02*
X102119427Y-89594472D01*
X107959467Y-93775007D02*
X107948216Y-93763756D01*
X107833548Y-91070020D02*
X106961307Y-91070020D01*
X96638147Y-90864525D02*
X97885918Y-89616754D01*
X97885918Y-89616754D02*
X97894149Y-88426877D01*
X102119427Y-89594472D02*
X102144149Y-88426877D01*
X106811307Y-93763756D02*
X107818674Y-93763756D01*
X107833548Y-92423625D02*
X106811307Y-92423625D01*
X103500000Y-91000000D02*
X103500000Y-90975045D01*
D22*
%TO.N,Net-(J2-SIGNAL)*%
X101400879Y-91400879D02*
X102330810Y-92330810D01*
X102330810Y-92330810D02*
X102330810Y-93182298D01*
X101388400Y-91400879D02*
X101400879Y-91400879D01*
%TO.N,Net-(J3-SIGNAL)*%
X97680004Y-93182298D02*
X97680004Y-92319996D01*
X97680004Y-92319996D02*
X98500000Y-91500000D01*
%TD*%
%TA.AperFunction,Conductor*%
%TO.N,HV+*%
G36*
X102443698Y-83009338D02*
G01*
X102444953Y-83009361D01*
X104889903Y-83074831D01*
X104891217Y-83074877D01*
X107334639Y-83184006D01*
X107335835Y-83184069D01*
X109777037Y-83336828D01*
X109778325Y-83336920D01*
X112216427Y-83533255D01*
X112217363Y-83533338D01*
X113361013Y-83643458D01*
X113411019Y-83670047D01*
X113427578Y-83724210D01*
X113427562Y-83724375D01*
X113221088Y-85819490D01*
X113194387Y-85869438D01*
X113140187Y-85885875D01*
X113140172Y-85885874D01*
X111194012Y-85693680D01*
X111194010Y-85693680D01*
X111194009Y-85693680D01*
X111043113Y-85702539D01*
X110942515Y-85708445D01*
X110750519Y-85750517D01*
X110696432Y-85762370D01*
X110696431Y-85762370D01*
X110696428Y-85762371D01*
X110461813Y-85854127D01*
X110461809Y-85854129D01*
X110244439Y-85981454D01*
X110244435Y-85981457D01*
X110049654Y-86141226D01*
X110049653Y-86141226D01*
X109882264Y-86329496D01*
X109746389Y-86541630D01*
X109746384Y-86541638D01*
X109645366Y-86772421D01*
X109645365Y-86772424D01*
X109581696Y-87016156D01*
X109581694Y-87016167D01*
X109556936Y-87266862D01*
X109556936Y-87266868D01*
X109556936Y-87266869D01*
X109571701Y-87518361D01*
X109617283Y-87726375D01*
X109625627Y-87764449D01*
X109717383Y-87999064D01*
X109717385Y-87999068D01*
X109844710Y-88216438D01*
X109844713Y-88216442D01*
X109844714Y-88216443D01*
X110004482Y-88411224D01*
X110192753Y-88578614D01*
X110404892Y-88714492D01*
X110635676Y-88815511D01*
X110879421Y-88879184D01*
X112826265Y-89071446D01*
X112876205Y-89098157D01*
X112892633Y-89152345D01*
X112419720Y-93951048D01*
X112393019Y-94000996D01*
X112338819Y-94017433D01*
X112338804Y-94017432D01*
X110462416Y-93832129D01*
X110462414Y-93832129D01*
X110462413Y-93832129D01*
X110311517Y-93840988D01*
X110210919Y-93846894D01*
X110036277Y-93885164D01*
X109964836Y-93900819D01*
X109964835Y-93900819D01*
X109964832Y-93900820D01*
X109730217Y-93992576D01*
X109730213Y-93992578D01*
X109512843Y-94119903D01*
X109512839Y-94119906D01*
X109318058Y-94279675D01*
X109318057Y-94279675D01*
X109150668Y-94467945D01*
X109014793Y-94680079D01*
X109014788Y-94680087D01*
X108913770Y-94910870D01*
X108913769Y-94910873D01*
X108850100Y-95154605D01*
X108850098Y-95154616D01*
X108825340Y-95405311D01*
X108825340Y-95405317D01*
X108825340Y-95405318D01*
X108830725Y-95497035D01*
X108840105Y-95656811D01*
X108894031Y-95902898D01*
X108985787Y-96137513D01*
X108985789Y-96137517D01*
X109113114Y-96354887D01*
X109113117Y-96354891D01*
X109113118Y-96354892D01*
X109272886Y-96549673D01*
X109461157Y-96717063D01*
X109673296Y-96852941D01*
X109904080Y-96953960D01*
X110147825Y-97017633D01*
X112024897Y-97203004D01*
X112074838Y-97229716D01*
X112091266Y-97283904D01*
X111970221Y-98512167D01*
X111943520Y-98562114D01*
X111889486Y-98578568D01*
X110878579Y-98481230D01*
X108706791Y-98306341D01*
X108706787Y-98306340D01*
X108706753Y-98306338D01*
X107149498Y-98208890D01*
X106532116Y-98170256D01*
X104355472Y-98073035D01*
X102177440Y-98014699D01*
X99998657Y-97995266D01*
X97819875Y-98014747D01*
X95641845Y-98073130D01*
X93465143Y-98170403D01*
X91290585Y-98306528D01*
X89118751Y-98481468D01*
X88107829Y-98578830D01*
X88053666Y-98562272D01*
X88027093Y-98512442D01*
X88006762Y-98306530D01*
X87899277Y-97217952D01*
X87915705Y-97163751D01*
X87965642Y-97137041D01*
X89884341Y-96947559D01*
X90128087Y-96883886D01*
X90358870Y-96782867D01*
X90571009Y-96646989D01*
X90759281Y-96479599D01*
X90919048Y-96284818D01*
X91046378Y-96067440D01*
X91138136Y-95832821D01*
X91192061Y-95586736D01*
X91197328Y-95497035D01*
X95794500Y-95497035D01*
X95794500Y-96876000D01*
X95799197Y-96919684D01*
X95810407Y-96971215D01*
X95812888Y-96981370D01*
X95812889Y-96981372D01*
X95855899Y-97062083D01*
X95855901Y-97062087D01*
X95887320Y-97098345D01*
X95901655Y-97114889D01*
X95919246Y-97132843D01*
X95999061Y-97177489D01*
X95999060Y-97177489D01*
X96066098Y-97197174D01*
X96066099Y-97197174D01*
X96066102Y-97197175D01*
X96124000Y-97205500D01*
X96124004Y-97205500D01*
X103876001Y-97205500D01*
X103880241Y-97205043D01*
X103919684Y-97200803D01*
X103971195Y-97189597D01*
X103974234Y-97188854D01*
X103981370Y-97187111D01*
X103981371Y-97187110D01*
X103981373Y-97187110D01*
X104062085Y-97144100D01*
X104114889Y-97098345D01*
X104132843Y-97080754D01*
X104177490Y-97000937D01*
X104197175Y-96933898D01*
X104205500Y-96876000D01*
X104205500Y-95749996D01*
X105294355Y-95749996D01*
X105294355Y-95750003D01*
X105314859Y-95918871D01*
X105375181Y-96077929D01*
X105471816Y-96217928D01*
X105547313Y-96284813D01*
X105599148Y-96330734D01*
X105749775Y-96409790D01*
X105914944Y-96450500D01*
X105914948Y-96450500D01*
X106085052Y-96450500D01*
X106085056Y-96450500D01*
X106250225Y-96409790D01*
X106400852Y-96330734D01*
X106528183Y-96217929D01*
X106624818Y-96077930D01*
X106685140Y-95918872D01*
X106705645Y-95750000D01*
X106690022Y-95621338D01*
X106685140Y-95581128D01*
X106624818Y-95422070D01*
X106528183Y-95282071D01*
X106400856Y-95169269D01*
X106400853Y-95169267D01*
X106400852Y-95169266D01*
X106250225Y-95090210D01*
X106250222Y-95090209D01*
X106085058Y-95049500D01*
X106085056Y-95049500D01*
X105914944Y-95049500D01*
X105914941Y-95049500D01*
X105749777Y-95090209D01*
X105599146Y-95169267D01*
X105599143Y-95169269D01*
X105471816Y-95282071D01*
X105375181Y-95422070D01*
X105314859Y-95581128D01*
X105294355Y-95749996D01*
X104205500Y-95749996D01*
X104205500Y-95502937D01*
X104202227Y-95466404D01*
X104197299Y-95439124D01*
X104194387Y-95423004D01*
X104193798Y-95419883D01*
X104193796Y-95419878D01*
X104186046Y-95402461D01*
X104156616Y-95336322D01*
X104114719Y-95280408D01*
X104114715Y-95280403D01*
X104114708Y-95280394D01*
X104098445Y-95261252D01*
X104098443Y-95261251D01*
X104021994Y-95211062D01*
X104021984Y-95211056D01*
X103956529Y-95186678D01*
X103956525Y-95186676D01*
X103956515Y-95186673D01*
X103932468Y-95179357D01*
X103932467Y-95179356D01*
X103932464Y-95179356D01*
X103841020Y-95178464D01*
X103841008Y-95178465D01*
X103836065Y-95179543D01*
X103780324Y-95169507D01*
X103748007Y-95122995D01*
X103746310Y-95107240D01*
X103746310Y-95082947D01*
X103758783Y-95041833D01*
X103769676Y-95025531D01*
X103769676Y-95025530D01*
X103769677Y-95025529D01*
X103781310Y-94967046D01*
X103781310Y-94281584D01*
X104586307Y-94281584D01*
X104592709Y-94341131D01*
X104592710Y-94341136D01*
X104642952Y-94475843D01*
X104642953Y-94475844D01*
X104729118Y-94590944D01*
X104844218Y-94677109D01*
X104844219Y-94677110D01*
X104978926Y-94727352D01*
X104978931Y-94727353D01*
X105038478Y-94733756D01*
X105261307Y-94733756D01*
X105261307Y-94013756D01*
X104586307Y-94013756D01*
X104586307Y-94281584D01*
X103781310Y-94281584D01*
X103781310Y-93347550D01*
X103769677Y-93289067D01*
X103725362Y-93222746D01*
X103703153Y-93207906D01*
X103659042Y-93178431D01*
X103659043Y-93178431D01*
X103629799Y-93172614D01*
X103600558Y-93166798D01*
X102981062Y-93166798D01*
X102919746Y-93178994D01*
X102864197Y-93167944D01*
X102832732Y-93120852D01*
X102831310Y-93106416D01*
X102831310Y-92500000D01*
X102994353Y-92500000D01*
X103014834Y-92642454D01*
X103014834Y-92642455D01*
X103014835Y-92642457D01*
X103064658Y-92751553D01*
X103074623Y-92773373D01*
X103168868Y-92882139D01*
X103168869Y-92882140D01*
X103168872Y-92882143D01*
X103289947Y-92959953D01*
X103368160Y-92982918D01*
X103428035Y-93000499D01*
X103428037Y-93000500D01*
X103428039Y-93000500D01*
X103571963Y-93000500D01*
X103571964Y-93000499D01*
X103710053Y-92959953D01*
X103738840Y-92941453D01*
X104586307Y-92941453D01*
X104592709Y-93001000D01*
X104592710Y-93001005D01*
X104617634Y-93067830D01*
X104617635Y-93119550D01*
X104592709Y-93186381D01*
X104586307Y-93245927D01*
X104586307Y-93513756D01*
X105261307Y-93513756D01*
X105261307Y-92673625D01*
X104586307Y-92673625D01*
X104586307Y-92941453D01*
X103738840Y-92941453D01*
X103831128Y-92882143D01*
X103925377Y-92773373D01*
X103985165Y-92642457D01*
X104005647Y-92500000D01*
X103985165Y-92357543D01*
X103925377Y-92226627D01*
X103848252Y-92137619D01*
X103831131Y-92117860D01*
X103831129Y-92117859D01*
X103831128Y-92117857D01*
X103743195Y-92061346D01*
X103710054Y-92040047D01*
X103710050Y-92040046D01*
X103571964Y-91999500D01*
X103571961Y-91999500D01*
X103428039Y-91999500D01*
X103428036Y-91999500D01*
X103289949Y-92040046D01*
X103289945Y-92040047D01*
X103168875Y-92117855D01*
X103168868Y-92117860D01*
X103074623Y-92226626D01*
X103014834Y-92357545D01*
X102994353Y-92500000D01*
X102831310Y-92500000D01*
X102831310Y-92264916D01*
X102831309Y-92264915D01*
X102828411Y-92254101D01*
X102797202Y-92137624D01*
X102731310Y-92023496D01*
X102638124Y-91930310D01*
X102613610Y-91905796D01*
X104586307Y-91905796D01*
X104586307Y-92173625D01*
X105261307Y-92173625D01*
X105261307Y-92083020D01*
X105185307Y-92083020D01*
X105132981Y-92061346D01*
X105111307Y-92009020D01*
X105111307Y-91410625D01*
X105611307Y-91410625D01*
X105687307Y-91410625D01*
X105739633Y-91432299D01*
X105761307Y-91484625D01*
X105761307Y-94733756D01*
X105984136Y-94733756D01*
X106043682Y-94727353D01*
X106043687Y-94727352D01*
X106178394Y-94677110D01*
X106178395Y-94677109D01*
X106293495Y-94590944D01*
X106379660Y-94475843D01*
X106381328Y-94472791D01*
X106425428Y-94437253D01*
X106446276Y-94434256D01*
X106585849Y-94434256D01*
X106603368Y-94436854D01*
X106603414Y-94436627D01*
X106637170Y-94443341D01*
X106742314Y-94464256D01*
X107679159Y-94464256D01*
X107696868Y-94466406D01*
X107748492Y-94479130D01*
X107748496Y-94479130D01*
X107918600Y-94479130D01*
X107918604Y-94479130D01*
X107924584Y-94477655D01*
X107942293Y-94475506D01*
X108028461Y-94475506D01*
X108163795Y-94448587D01*
X108291278Y-94395781D01*
X108406010Y-94319120D01*
X108503580Y-94221550D01*
X108580241Y-94106818D01*
X108633047Y-93979335D01*
X108659966Y-93844001D01*
X108659966Y-93706013D01*
X108633047Y-93570678D01*
X108580241Y-93443196D01*
X108503580Y-93328464D01*
X108394759Y-93219642D01*
X108388597Y-93215525D01*
X108280027Y-93142981D01*
X108251615Y-93131212D01*
X108211567Y-93091163D01*
X108211567Y-93034526D01*
X108232398Y-93008851D01*
X108231049Y-93007328D01*
X108238757Y-93000499D01*
X108258607Y-92982913D01*
X108266559Y-92976779D01*
X108280090Y-92967739D01*
X108312330Y-92935497D01*
X108315569Y-92932448D01*
X108361731Y-92891554D01*
X108370064Y-92879481D01*
X108375430Y-92873043D01*
X108375354Y-92872980D01*
X108377657Y-92870173D01*
X108377659Y-92870169D01*
X108377662Y-92870167D01*
X108412780Y-92817606D01*
X108413310Y-92816827D01*
X108458366Y-92751555D01*
X108484398Y-92682910D01*
X108485197Y-92680896D01*
X108507128Y-92627953D01*
X108508006Y-92623532D01*
X108511392Y-92611731D01*
X108518688Y-92592497D01*
X108525414Y-92537090D01*
X108526296Y-92531583D01*
X108534048Y-92492618D01*
X108534048Y-92470470D01*
X108534588Y-92461549D01*
X108539193Y-92423626D01*
X108539193Y-92423621D01*
X108534588Y-92385698D01*
X108534048Y-92376778D01*
X108534048Y-92354633D01*
X108531867Y-92343668D01*
X108526294Y-92315658D01*
X108525413Y-92310146D01*
X108518688Y-92254753D01*
X108511391Y-92235515D01*
X108508004Y-92223705D01*
X108507128Y-92219297D01*
X108485201Y-92166361D01*
X108484395Y-92164331D01*
X108458366Y-92095695D01*
X108413342Y-92030467D01*
X108412714Y-92029542D01*
X108377662Y-91977083D01*
X108375355Y-91974272D01*
X108375430Y-91974209D01*
X108370069Y-91967776D01*
X108361729Y-91955693D01*
X108315579Y-91914809D01*
X108312324Y-91911745D01*
X108280092Y-91879513D01*
X108280087Y-91879509D01*
X108273929Y-91875394D01*
X108266559Y-91870469D01*
X108258606Y-91864335D01*
X108234400Y-91842891D01*
X108208240Y-91829161D01*
X108195376Y-91822409D01*
X108188654Y-91818415D01*
X108173592Y-91808351D01*
X108142126Y-91761259D01*
X108153175Y-91705710D01*
X108173587Y-91685296D01*
X108188664Y-91675221D01*
X108195366Y-91671239D01*
X108234400Y-91650754D01*
X108258607Y-91629308D01*
X108266559Y-91623174D01*
X108280090Y-91614134D01*
X108312330Y-91581892D01*
X108315569Y-91578843D01*
X108361731Y-91537949D01*
X108370064Y-91525876D01*
X108375430Y-91519438D01*
X108375354Y-91519375D01*
X108377657Y-91516568D01*
X108377659Y-91516564D01*
X108377662Y-91516562D01*
X108412780Y-91464001D01*
X108413310Y-91463222D01*
X108458366Y-91397950D01*
X108484398Y-91329305D01*
X108485197Y-91327291D01*
X108507128Y-91274348D01*
X108508006Y-91269927D01*
X108511392Y-91258126D01*
X108518688Y-91238892D01*
X108525414Y-91183485D01*
X108526296Y-91177978D01*
X108534048Y-91139013D01*
X108534048Y-91116865D01*
X108534588Y-91107944D01*
X108535380Y-91101426D01*
X108539193Y-91070020D01*
X108539068Y-91068993D01*
X108534588Y-91032093D01*
X108534048Y-91023173D01*
X108534048Y-91001028D01*
X108533844Y-91000001D01*
X108526294Y-90962053D01*
X108525413Y-90956541D01*
X108522618Y-90933519D01*
X108518688Y-90901148D01*
X108511391Y-90881910D01*
X108508004Y-90870100D01*
X108507128Y-90865692D01*
X108495516Y-90837660D01*
X108485201Y-90812756D01*
X108484395Y-90810726D01*
X108458366Y-90742090D01*
X108413342Y-90676862D01*
X108412714Y-90675937D01*
X108377662Y-90623478D01*
X108375355Y-90620667D01*
X108375430Y-90620604D01*
X108370069Y-90614171D01*
X108361729Y-90602088D01*
X108315579Y-90561204D01*
X108312324Y-90558140D01*
X108280092Y-90525908D01*
X108280087Y-90525904D01*
X108273927Y-90521788D01*
X108266559Y-90516864D01*
X108258606Y-90510730D01*
X108234400Y-90489286D01*
X108199434Y-90470934D01*
X108195376Y-90468804D01*
X108188655Y-90464810D01*
X108165360Y-90449245D01*
X108165358Y-90449244D01*
X108134063Y-90436281D01*
X108127993Y-90433438D01*
X108083773Y-90410230D01*
X108058080Y-90403897D01*
X108047475Y-90400415D01*
X108037882Y-90396442D01*
X108037871Y-90396438D01*
X107987433Y-90386406D01*
X107984161Y-90385678D01*
X107918606Y-90369520D01*
X107918604Y-90369520D01*
X107902541Y-90369520D01*
X106892314Y-90369520D01*
X106811083Y-90385678D01*
X106753414Y-90397149D01*
X106753368Y-90396921D01*
X106735849Y-90399520D01*
X106671559Y-90399520D01*
X106642317Y-90405336D01*
X106613074Y-90411153D01*
X106546756Y-90455467D01*
X106546754Y-90455469D01*
X106502439Y-90521788D01*
X106499651Y-90528521D01*
X106498579Y-90528077D01*
X106482485Y-90558184D01*
X106417194Y-90623476D01*
X106417192Y-90623478D01*
X106340530Y-90738211D01*
X106287728Y-90865687D01*
X106287725Y-90865697D01*
X106277885Y-90915170D01*
X106246419Y-90962262D01*
X106190870Y-90973311D01*
X106143778Y-90941845D01*
X106131307Y-90900733D01*
X106131307Y-90552191D01*
X106124904Y-90492644D01*
X106124903Y-90492639D01*
X106074661Y-90357932D01*
X106074660Y-90357931D01*
X105988495Y-90242831D01*
X105873395Y-90156666D01*
X105873394Y-90156665D01*
X105738687Y-90106423D01*
X105738682Y-90106422D01*
X105679136Y-90100020D01*
X105611307Y-90100020D01*
X105611307Y-91410625D01*
X105111307Y-91410625D01*
X105111307Y-91320020D01*
X104591307Y-91320020D01*
X104591307Y-91587848D01*
X104597709Y-91647394D01*
X104622647Y-91714258D01*
X104622647Y-91765977D01*
X104592709Y-91846250D01*
X104586307Y-91905796D01*
X102613610Y-91905796D01*
X102341040Y-91633226D01*
X102327567Y-91614759D01*
X102325582Y-91610902D01*
X102325579Y-91610897D01*
X102321059Y-91605211D01*
X101840244Y-91000393D01*
X101832826Y-90991581D01*
X101831961Y-90990610D01*
X101831958Y-90990608D01*
X101830077Y-90988495D01*
X101823103Y-90980965D01*
X101816682Y-90972597D01*
X101816681Y-90972596D01*
X101816679Y-90972594D01*
X101691241Y-90876343D01*
X101545161Y-90815834D01*
X101388400Y-90795197D01*
X101231639Y-90815834D01*
X101231638Y-90815834D01*
X101085558Y-90876343D01*
X100960120Y-90972594D01*
X100960115Y-90972599D01*
X100863864Y-91098037D01*
X100803355Y-91244117D01*
X100803355Y-91244118D01*
X100782718Y-91400879D01*
X100803355Y-91557639D01*
X100803355Y-91557640D01*
X100863864Y-91703720D01*
X100960115Y-91829158D01*
X100960119Y-91829162D01*
X100980939Y-91845138D01*
X100991302Y-91854800D01*
X100991849Y-91855418D01*
X101064396Y-91910558D01*
X101064397Y-91910558D01*
X101614470Y-92328642D01*
X101614474Y-92328644D01*
X101618184Y-92330611D01*
X101635854Y-92343668D01*
X101808636Y-92516450D01*
X101830310Y-92568776D01*
X101830310Y-93106416D01*
X101808636Y-93158742D01*
X101756310Y-93180416D01*
X101741874Y-93178994D01*
X101680558Y-93166798D01*
X101061062Y-93166798D01*
X101031820Y-93172614D01*
X101002577Y-93178431D01*
X100936259Y-93222745D01*
X100936257Y-93222747D01*
X100891943Y-93289065D01*
X100880310Y-93347551D01*
X100880310Y-93720500D01*
X100858636Y-93772826D01*
X100806310Y-93794500D01*
X99204504Y-93794500D01*
X99152178Y-93772826D01*
X99130504Y-93720500D01*
X99130504Y-93347551D01*
X99130504Y-93347550D01*
X99118871Y-93289067D01*
X99074556Y-93222746D01*
X99052347Y-93207906D01*
X99008236Y-93178431D01*
X99008237Y-93178431D01*
X98978993Y-93172614D01*
X98949752Y-93166798D01*
X98330256Y-93166798D01*
X98268940Y-93178994D01*
X98213391Y-93167944D01*
X98181926Y-93120852D01*
X98180504Y-93106416D01*
X98180504Y-92557961D01*
X98202178Y-92505636D01*
X98258989Y-92448824D01*
X98278156Y-92434994D01*
X98280764Y-92433687D01*
X98898572Y-91953171D01*
X98908189Y-91945211D01*
X98909258Y-91944270D01*
X98910022Y-91943593D01*
X98910022Y-91943592D01*
X98913154Y-91940817D01*
X98913166Y-91940831D01*
X98919206Y-91935245D01*
X98928282Y-91928282D01*
X99024536Y-91802841D01*
X99085044Y-91656762D01*
X99105682Y-91500000D01*
X99085044Y-91343238D01*
X99024536Y-91197159D01*
X98966684Y-91121765D01*
X98928284Y-91071720D01*
X98928279Y-91071715D01*
X98802841Y-90975464D01*
X98656761Y-90914955D01*
X98500000Y-90894318D01*
X98343239Y-90914955D01*
X98343238Y-90914955D01*
X98197158Y-90975464D01*
X98071720Y-91071715D01*
X98071717Y-91071718D01*
X98057642Y-91090060D01*
X98047374Y-91100953D01*
X98046832Y-91101422D01*
X97609387Y-91663853D01*
X97609386Y-91663852D01*
X97566317Y-91719228D01*
X97566311Y-91719237D01*
X97563622Y-91724208D01*
X97550862Y-91741322D01*
X97372690Y-91919496D01*
X97279504Y-92012681D01*
X97213614Y-92126805D01*
X97213610Y-92126814D01*
X97179504Y-92254101D01*
X97179504Y-93106416D01*
X97157830Y-93158742D01*
X97105504Y-93180416D01*
X97091068Y-93178994D01*
X97029752Y-93166798D01*
X96410256Y-93166798D01*
X96381014Y-93172614D01*
X96351771Y-93178431D01*
X96285453Y-93222745D01*
X96285451Y-93222747D01*
X96241137Y-93289065D01*
X96241137Y-93289067D01*
X96229504Y-93347550D01*
X96229504Y-94967046D01*
X96235320Y-94996287D01*
X96241137Y-95025531D01*
X96252031Y-95041833D01*
X96264504Y-95082947D01*
X96264504Y-95103025D01*
X96242830Y-95155351D01*
X96190504Y-95177025D01*
X96184473Y-95176779D01*
X96112403Y-95170885D01*
X96043254Y-95180827D01*
X96018627Y-95185922D01*
X95937913Y-95228933D01*
X95937912Y-95228933D01*
X95885115Y-95274683D01*
X95885111Y-95274687D01*
X95867156Y-95292279D01*
X95867155Y-95292281D01*
X95822510Y-95372094D01*
X95822506Y-95372104D01*
X95804805Y-95432388D01*
X95804806Y-95432389D01*
X95802827Y-95439128D01*
X95794501Y-95497019D01*
X95794500Y-95497035D01*
X91197328Y-95497035D01*
X91206827Y-95335244D01*
X91182068Y-95084540D01*
X91118395Y-94840795D01*
X91017376Y-94610011D01*
X90881499Y-94397872D01*
X90816674Y-94324961D01*
X90714108Y-94209600D01*
X90519326Y-94049832D01*
X90519322Y-94049829D01*
X90301953Y-93922504D01*
X90301949Y-93922502D01*
X90067333Y-93830746D01*
X90067331Y-93830745D01*
X90067330Y-93830745D01*
X89821245Y-93776820D01*
X89821249Y-93776820D01*
X89620052Y-93765008D01*
X89569754Y-93762055D01*
X89569753Y-93762055D01*
X89569747Y-93762055D01*
X87651116Y-93951531D01*
X87596913Y-93935104D01*
X87570202Y-93885164D01*
X87433433Y-92500000D01*
X95994353Y-92500000D01*
X96014834Y-92642454D01*
X96014834Y-92642455D01*
X96014835Y-92642457D01*
X96064658Y-92751553D01*
X96074623Y-92773373D01*
X96168868Y-92882139D01*
X96168869Y-92882140D01*
X96168872Y-92882143D01*
X96289947Y-92959953D01*
X96368160Y-92982918D01*
X96428035Y-93000499D01*
X96428037Y-93000500D01*
X96428039Y-93000500D01*
X96571963Y-93000500D01*
X96571964Y-93000499D01*
X96710053Y-92959953D01*
X96831128Y-92882143D01*
X96925377Y-92773373D01*
X96985165Y-92642457D01*
X97005647Y-92500000D01*
X96985165Y-92357543D01*
X96925377Y-92226627D01*
X96848252Y-92137619D01*
X96831131Y-92117860D01*
X96831129Y-92117859D01*
X96831128Y-92117857D01*
X96743195Y-92061346D01*
X96710054Y-92040047D01*
X96710050Y-92040046D01*
X96571964Y-91999500D01*
X96571961Y-91999500D01*
X96428039Y-91999500D01*
X96428036Y-91999500D01*
X96289949Y-92040046D01*
X96289945Y-92040047D01*
X96168875Y-92117855D01*
X96168868Y-92117860D01*
X96074623Y-92226626D01*
X96014834Y-92357545D01*
X95994353Y-92500000D01*
X87433433Y-92500000D01*
X87271948Y-90864521D01*
X95932502Y-90864521D01*
X95932502Y-90864526D01*
X95937107Y-90902449D01*
X95937647Y-90911370D01*
X95937647Y-90933518D01*
X95945399Y-90972492D01*
X95946281Y-90978008D01*
X95953005Y-91033388D01*
X95953007Y-91033398D01*
X95960301Y-91052630D01*
X95963686Y-91064428D01*
X95964564Y-91068843D01*
X95964568Y-91068857D01*
X95986483Y-91121765D01*
X95987307Y-91123842D01*
X96013328Y-91192454D01*
X96058340Y-91257664D01*
X96058968Y-91258589D01*
X96094032Y-91311067D01*
X96096340Y-91313879D01*
X96096264Y-91313941D01*
X96101626Y-91320375D01*
X96104954Y-91325196D01*
X96109964Y-91332454D01*
X96152064Y-91369751D01*
X96156106Y-91373332D01*
X96159356Y-91376391D01*
X96191604Y-91408639D01*
X96205127Y-91417675D01*
X96205135Y-91417680D01*
X96213094Y-91423819D01*
X96237295Y-91445259D01*
X96276339Y-91465751D01*
X96283035Y-91469731D01*
X96306336Y-91485300D01*
X96337642Y-91498267D01*
X96343681Y-91501095D01*
X96387922Y-91524315D01*
X96413603Y-91530644D01*
X96413607Y-91530645D01*
X96424223Y-91534130D01*
X96433813Y-91538103D01*
X96433815Y-91538103D01*
X96433819Y-91538105D01*
X96484276Y-91548141D01*
X96487492Y-91548856D01*
X96553091Y-91565025D01*
X96553095Y-91565025D01*
X96723199Y-91565025D01*
X96723203Y-91565025D01*
X96788773Y-91548863D01*
X96791960Y-91548152D01*
X96842475Y-91538105D01*
X96852076Y-91534127D01*
X96862672Y-91530648D01*
X96888372Y-91524315D01*
X96932606Y-91501098D01*
X96938645Y-91498269D01*
X96969958Y-91485300D01*
X96993266Y-91469725D01*
X96999967Y-91465744D01*
X97038999Y-91445259D01*
X97063208Y-91423810D01*
X97071158Y-91417680D01*
X97084690Y-91408639D01*
X97116937Y-91376390D01*
X97120187Y-91373332D01*
X97166330Y-91332454D01*
X97174666Y-91320375D01*
X97183236Y-91310091D01*
X98379626Y-90113702D01*
X98426930Y-90067049D01*
X98426940Y-90067033D01*
X98427971Y-90065796D01*
X98428062Y-90065696D01*
X98428415Y-90065267D01*
X98428759Y-90064850D01*
X98428931Y-90064643D01*
X98428984Y-90064572D01*
X98430021Y-90063307D01*
X98430032Y-90063297D01*
X98467045Y-90007901D01*
X98504383Y-89952851D01*
X98504384Y-89952847D01*
X98505170Y-89951402D01*
X98505215Y-89951327D01*
X98505398Y-89950985D01*
X98505707Y-89950412D01*
X98505874Y-89950103D01*
X98505917Y-89950014D01*
X98506681Y-89948581D01*
X98506693Y-89948565D01*
X98532174Y-89887046D01*
X98558068Y-89825737D01*
X98558071Y-89825720D01*
X98558559Y-89824155D01*
X98558595Y-89824055D01*
X98558706Y-89823689D01*
X98558893Y-89823081D01*
X98558994Y-89822756D01*
X98559018Y-89822660D01*
X98559492Y-89821094D01*
X98559498Y-89821082D01*
X98572492Y-89755754D01*
X98585924Y-89690591D01*
X98585924Y-89690586D01*
X98586096Y-89688954D01*
X98586110Y-89688863D01*
X98586142Y-89688540D01*
X98586193Y-89688038D01*
X98586252Y-89687474D01*
X98586258Y-89687361D01*
X98586416Y-89685753D01*
X98586418Y-89685748D01*
X98586418Y-89619396D01*
X98586420Y-89618884D01*
X98589312Y-89200865D01*
X98611347Y-89148690D01*
X98663310Y-89127377D01*
X99288895Y-89127377D01*
X99288897Y-89127377D01*
X99347380Y-89115744D01*
X99413701Y-89071429D01*
X99458016Y-89005108D01*
X99469649Y-88946625D01*
X99469649Y-87907130D01*
X100568649Y-87907130D01*
X100568649Y-88946623D01*
X100580282Y-89005109D01*
X100591450Y-89021822D01*
X100624597Y-89071429D01*
X100664598Y-89098157D01*
X100690916Y-89115743D01*
X100690917Y-89115743D01*
X100690918Y-89115744D01*
X100749401Y-89127377D01*
X101353077Y-89127377D01*
X101405403Y-89149051D01*
X101427077Y-89201377D01*
X101427060Y-89202944D01*
X101420522Y-89511649D01*
X101419120Y-89524505D01*
X101418927Y-89525475D01*
X101418927Y-89586270D01*
X101418910Y-89587837D01*
X101417623Y-89648618D01*
X101417623Y-89648621D01*
X101417794Y-89649586D01*
X101418927Y-89662486D01*
X101418927Y-89663466D01*
X101423997Y-89688954D01*
X101430787Y-89723094D01*
X101431076Y-89724632D01*
X101441670Y-89784485D01*
X101441675Y-89784502D01*
X101442030Y-89785413D01*
X101445653Y-89797828D01*
X101445844Y-89798792D01*
X101445845Y-89798793D01*
X101445846Y-89798795D01*
X101445847Y-89798800D01*
X101469129Y-89855009D01*
X101469695Y-89856419D01*
X101491769Y-89913072D01*
X101491771Y-89913076D01*
X101492300Y-89913905D01*
X101498273Y-89925368D01*
X101498652Y-89926283D01*
X101514774Y-89950412D01*
X101532442Y-89976853D01*
X101533244Y-89978082D01*
X101565982Y-90029396D01*
X101565984Y-90029398D01*
X101566665Y-90030109D01*
X101574759Y-90040187D01*
X101575308Y-90041008D01*
X101575315Y-90041017D01*
X101618315Y-90084017D01*
X101619410Y-90085136D01*
X101661463Y-90129007D01*
X101661467Y-90129011D01*
X101662260Y-90129566D01*
X101672184Y-90137886D01*
X102899293Y-91364995D01*
X102907868Y-91375285D01*
X102920204Y-91393157D01*
X102920831Y-91394080D01*
X102955881Y-91446536D01*
X102958189Y-91449347D01*
X102958112Y-91449409D01*
X102963472Y-91455840D01*
X102971817Y-91467929D01*
X103014051Y-91505345D01*
X103017967Y-91508814D01*
X103021222Y-91511878D01*
X103053458Y-91544114D01*
X103066988Y-91553155D01*
X103074943Y-91559292D01*
X103099145Y-91580733D01*
X103138168Y-91601213D01*
X103144890Y-91605208D01*
X103168185Y-91620773D01*
X103168187Y-91620774D01*
X103168189Y-91620775D01*
X103199495Y-91633742D01*
X103205534Y-91636570D01*
X103249775Y-91659790D01*
X103275456Y-91666119D01*
X103275460Y-91666120D01*
X103286076Y-91669605D01*
X103295666Y-91673578D01*
X103295668Y-91673578D01*
X103295672Y-91673580D01*
X103346169Y-91683624D01*
X103349377Y-91684339D01*
X103414935Y-91700498D01*
X103414938Y-91700498D01*
X103414944Y-91700500D01*
X103414946Y-91700500D01*
X103585054Y-91700500D01*
X103585056Y-91700500D01*
X103585058Y-91700499D01*
X103585061Y-91700499D01*
X103624429Y-91690795D01*
X103650633Y-91684335D01*
X103653828Y-91683624D01*
X103704328Y-91673580D01*
X103713929Y-91669602D01*
X103724525Y-91666123D01*
X103750225Y-91659790D01*
X103794459Y-91636573D01*
X103800498Y-91633744D01*
X103831811Y-91620775D01*
X103855108Y-91605208D01*
X103861818Y-91601219D01*
X103900852Y-91580734D01*
X103925059Y-91559288D01*
X103933011Y-91553154D01*
X103946542Y-91544114D01*
X103978782Y-91511872D01*
X103982032Y-91508814D01*
X104028183Y-91467929D01*
X104036516Y-91455856D01*
X104041882Y-91449418D01*
X104041806Y-91449355D01*
X104044109Y-91446548D01*
X104044111Y-91446544D01*
X104044114Y-91446542D01*
X104079232Y-91393981D01*
X104079762Y-91393202D01*
X104124818Y-91327930D01*
X104150850Y-91259285D01*
X104151649Y-91257271D01*
X104173580Y-91204328D01*
X104174458Y-91199907D01*
X104177844Y-91188106D01*
X104185140Y-91168872D01*
X104191866Y-91113465D01*
X104192748Y-91107958D01*
X104192751Y-91107944D01*
X104200500Y-91068993D01*
X104200500Y-91046845D01*
X104201040Y-91037924D01*
X104205645Y-91000001D01*
X104205645Y-90999996D01*
X104201040Y-90962073D01*
X104200500Y-90953153D01*
X104200500Y-90906052D01*
X104194590Y-90876342D01*
X104173581Y-90770722D01*
X104173580Y-90770721D01*
X104173580Y-90770717D01*
X104120775Y-90643234D01*
X104059942Y-90552191D01*
X104591307Y-90552191D01*
X104591307Y-90820020D01*
X105111307Y-90820020D01*
X105111307Y-90100020D01*
X105043478Y-90100020D01*
X104983931Y-90106422D01*
X104983926Y-90106423D01*
X104849219Y-90156665D01*
X104849218Y-90156666D01*
X104734118Y-90242831D01*
X104647953Y-90357931D01*
X104647952Y-90357932D01*
X104597710Y-90492639D01*
X104597709Y-90492644D01*
X104591307Y-90552191D01*
X104059942Y-90552191D01*
X104044114Y-90528502D01*
X102848422Y-89332810D01*
X102826748Y-89280484D01*
X102826765Y-89278917D01*
X102826798Y-89277398D01*
X102828440Y-89199809D01*
X102851217Y-89147955D01*
X102902423Y-89127377D01*
X103538895Y-89127377D01*
X103538897Y-89127377D01*
X103597380Y-89115744D01*
X103663701Y-89071429D01*
X103708016Y-89005108D01*
X103719649Y-88946625D01*
X103719649Y-87907129D01*
X103708016Y-87848646D01*
X103663701Y-87782325D01*
X103636944Y-87764446D01*
X103597381Y-87738010D01*
X103597382Y-87738010D01*
X103568138Y-87732193D01*
X103538897Y-87726377D01*
X103538895Y-87726377D01*
X102152349Y-87726377D01*
X102150784Y-87726360D01*
X102129025Y-87725899D01*
X102090002Y-87725073D01*
X102089999Y-87725073D01*
X102089533Y-87725155D01*
X102089032Y-87725244D01*
X102076135Y-87726377D01*
X100749401Y-87726377D01*
X100720159Y-87732193D01*
X100690916Y-87738010D01*
X100624598Y-87782324D01*
X100624596Y-87782326D01*
X100580282Y-87848644D01*
X100568649Y-87907130D01*
X99469649Y-87907130D01*
X99469649Y-87907129D01*
X99458016Y-87848646D01*
X99413701Y-87782325D01*
X99386944Y-87764446D01*
X99347381Y-87738010D01*
X99347382Y-87738010D01*
X99318138Y-87732193D01*
X99288897Y-87726377D01*
X99288895Y-87726377D01*
X97896759Y-87726377D01*
X97896248Y-87726375D01*
X97830004Y-87725917D01*
X97830003Y-87725917D01*
X97830002Y-87725917D01*
X97828333Y-87726070D01*
X97821596Y-87726377D01*
X96499401Y-87726377D01*
X96470159Y-87732193D01*
X96440916Y-87738010D01*
X96374598Y-87782324D01*
X96374596Y-87782326D01*
X96330282Y-87848644D01*
X96318649Y-87907130D01*
X96318649Y-88946623D01*
X96330282Y-89005109D01*
X96341450Y-89021822D01*
X96374597Y-89071429D01*
X96414598Y-89098157D01*
X96440916Y-89115743D01*
X96440917Y-89115743D01*
X96440918Y-89115744D01*
X96499401Y-89127377D01*
X97114273Y-89127377D01*
X97166599Y-89149051D01*
X97188273Y-89201377D01*
X97188271Y-89201889D01*
X97187632Y-89294239D01*
X97165960Y-89346053D01*
X96159360Y-90352653D01*
X96156106Y-90355716D01*
X96109963Y-90396596D01*
X96109961Y-90396598D01*
X96101621Y-90408680D01*
X96096264Y-90415111D01*
X96096339Y-90415173D01*
X96094028Y-90417988D01*
X96058957Y-90470476D01*
X96058367Y-90471344D01*
X96043666Y-90492644D01*
X96013329Y-90536594D01*
X95987307Y-90605207D01*
X95986484Y-90607282D01*
X95964566Y-90660199D01*
X95963688Y-90664615D01*
X95960302Y-90676415D01*
X95953006Y-90695653D01*
X95953006Y-90695654D01*
X95946281Y-90751040D01*
X95945399Y-90756555D01*
X95937647Y-90795530D01*
X95937647Y-90817678D01*
X95937107Y-90826598D01*
X95932502Y-90864521D01*
X87271948Y-90864521D01*
X87161902Y-89749996D01*
X91044355Y-89749996D01*
X91044355Y-89750003D01*
X91064859Y-89918871D01*
X91125181Y-90077929D01*
X91163397Y-90133293D01*
X91221817Y-90217929D01*
X91349148Y-90330734D01*
X91499775Y-90409790D01*
X91664944Y-90450500D01*
X91664948Y-90450500D01*
X91835052Y-90450500D01*
X91835056Y-90450500D01*
X92000225Y-90409790D01*
X92150852Y-90330734D01*
X92278183Y-90217929D01*
X92374818Y-90077930D01*
X92435140Y-89918872D01*
X92446653Y-89824055D01*
X92455645Y-89750003D01*
X92455645Y-89749996D01*
X92435140Y-89581128D01*
X92374818Y-89422070D01*
X92278183Y-89282071D01*
X92150856Y-89169269D01*
X92150853Y-89169267D01*
X92150852Y-89169266D01*
X92000225Y-89090210D01*
X92000222Y-89090209D01*
X91835058Y-89049500D01*
X91835056Y-89049500D01*
X91664944Y-89049500D01*
X91664941Y-89049500D01*
X91499777Y-89090209D01*
X91349146Y-89169267D01*
X91349143Y-89169269D01*
X91221816Y-89282071D01*
X91125181Y-89422070D01*
X91064859Y-89581128D01*
X91044355Y-89749996D01*
X87161902Y-89749996D01*
X87097992Y-89102734D01*
X87114420Y-89048533D01*
X87164358Y-89021823D01*
X89126028Y-88828097D01*
X89369774Y-88764424D01*
X89600557Y-88663405D01*
X89812696Y-88527527D01*
X90000968Y-88360137D01*
X90160735Y-88165356D01*
X90288065Y-87947978D01*
X90379823Y-87713359D01*
X90433748Y-87467274D01*
X90448514Y-87215782D01*
X90424706Y-86974705D01*
X96019149Y-86974705D01*
X96025551Y-87034252D01*
X96025552Y-87034257D01*
X96075794Y-87168964D01*
X96075795Y-87168965D01*
X96161960Y-87284065D01*
X96277060Y-87370230D01*
X96277061Y-87370231D01*
X96411768Y-87420473D01*
X96411773Y-87420474D01*
X96471320Y-87426877D01*
X97644149Y-87426877D01*
X98144149Y-87426877D01*
X99316978Y-87426877D01*
X99376524Y-87420474D01*
X99376529Y-87420473D01*
X99511236Y-87370231D01*
X99511237Y-87370230D01*
X99626337Y-87284065D01*
X99712502Y-87168965D01*
X99712503Y-87168964D01*
X99762745Y-87034257D01*
X99762746Y-87034252D01*
X99769149Y-86974705D01*
X100269149Y-86974705D01*
X100275551Y-87034252D01*
X100275552Y-87034257D01*
X100325794Y-87168964D01*
X100325795Y-87168965D01*
X100411960Y-87284065D01*
X100527060Y-87370230D01*
X100527061Y-87370231D01*
X100661768Y-87420473D01*
X100661773Y-87420474D01*
X100721320Y-87426877D01*
X101894149Y-87426877D01*
X102394149Y-87426877D01*
X103566978Y-87426877D01*
X103626524Y-87420474D01*
X103626529Y-87420473D01*
X103761236Y-87370231D01*
X103761237Y-87370230D01*
X103876337Y-87284065D01*
X103962502Y-87168965D01*
X103962503Y-87168964D01*
X104012745Y-87034257D01*
X104012746Y-87034252D01*
X104019149Y-86974705D01*
X104019149Y-86676877D01*
X102394149Y-86676877D01*
X102394149Y-87426877D01*
X101894149Y-87426877D01*
X101894149Y-86676877D01*
X100269149Y-86676877D01*
X100269149Y-86974705D01*
X99769149Y-86974705D01*
X99769149Y-86676877D01*
X98144149Y-86676877D01*
X98144149Y-87426877D01*
X97644149Y-87426877D01*
X97644149Y-86676877D01*
X96019149Y-86676877D01*
X96019149Y-86974705D01*
X90424706Y-86974705D01*
X90423755Y-86965078D01*
X90360082Y-86721333D01*
X90259063Y-86490549D01*
X90123186Y-86278410D01*
X90103782Y-86256586D01*
X89955795Y-86090138D01*
X89761013Y-85930370D01*
X89761009Y-85930367D01*
X89673397Y-85879048D01*
X96019149Y-85879048D01*
X96019149Y-86176877D01*
X97644149Y-86176877D01*
X98144149Y-86176877D01*
X99769149Y-86176877D01*
X99769149Y-85879048D01*
X100269149Y-85879048D01*
X100269149Y-86176877D01*
X101894149Y-86176877D01*
X102394149Y-86176877D01*
X104019149Y-86176877D01*
X104019149Y-85879048D01*
X104012746Y-85819501D01*
X104012745Y-85819496D01*
X103962503Y-85684789D01*
X103962502Y-85684788D01*
X103876337Y-85569688D01*
X103761237Y-85483523D01*
X103761236Y-85483522D01*
X103626529Y-85433280D01*
X103626524Y-85433279D01*
X103566978Y-85426877D01*
X102394149Y-85426877D01*
X102394149Y-86176877D01*
X101894149Y-86176877D01*
X101894149Y-85426877D01*
X100721320Y-85426877D01*
X100661773Y-85433279D01*
X100661768Y-85433280D01*
X100527061Y-85483522D01*
X100527060Y-85483523D01*
X100411960Y-85569688D01*
X100325795Y-85684788D01*
X100325794Y-85684789D01*
X100275552Y-85819496D01*
X100275551Y-85819501D01*
X100269149Y-85879048D01*
X99769149Y-85879048D01*
X99762746Y-85819501D01*
X99762745Y-85819496D01*
X99712503Y-85684789D01*
X99712502Y-85684788D01*
X99626337Y-85569688D01*
X99511237Y-85483523D01*
X99511236Y-85483522D01*
X99376529Y-85433280D01*
X99376524Y-85433279D01*
X99316978Y-85426877D01*
X98144149Y-85426877D01*
X98144149Y-86176877D01*
X97644149Y-86176877D01*
X97644149Y-85426877D01*
X96471320Y-85426877D01*
X96411773Y-85433279D01*
X96411768Y-85433280D01*
X96277061Y-85483522D01*
X96277060Y-85483523D01*
X96161960Y-85569688D01*
X96075795Y-85684788D01*
X96075794Y-85684789D01*
X96025552Y-85819496D01*
X96025551Y-85819501D01*
X96019149Y-85879048D01*
X89673397Y-85879048D01*
X89543640Y-85803042D01*
X89543636Y-85803040D01*
X89309020Y-85711284D01*
X89309018Y-85711283D01*
X89309017Y-85711283D01*
X89062932Y-85657358D01*
X89062936Y-85657358D01*
X88861739Y-85645546D01*
X88811441Y-85642593D01*
X88811440Y-85642593D01*
X88811434Y-85642593D01*
X86849831Y-85836313D01*
X86795628Y-85819886D01*
X86768917Y-85769946D01*
X86630286Y-84365925D01*
X97794355Y-84365925D01*
X97794355Y-84365932D01*
X97814859Y-84534800D01*
X97875181Y-84693858D01*
X97969661Y-84830734D01*
X97971817Y-84833858D01*
X98099148Y-84946663D01*
X98249775Y-85025719D01*
X98414944Y-85066429D01*
X98414948Y-85066429D01*
X98585052Y-85066429D01*
X98585056Y-85066429D01*
X98750225Y-85025719D01*
X98900852Y-84946663D01*
X99028183Y-84833858D01*
X99124818Y-84693859D01*
X99185140Y-84534801D01*
X99190266Y-84492583D01*
X99205645Y-84365932D01*
X99205645Y-84365925D01*
X99191568Y-84249996D01*
X101044355Y-84249996D01*
X101044355Y-84250003D01*
X101064859Y-84418871D01*
X101125181Y-84577929D01*
X101205203Y-84693859D01*
X101221817Y-84717929D01*
X101349148Y-84830734D01*
X101499775Y-84909790D01*
X101664944Y-84950500D01*
X101664948Y-84950500D01*
X101835052Y-84950500D01*
X101835056Y-84950500D01*
X102000225Y-84909790D01*
X102150852Y-84830734D01*
X102278183Y-84717929D01*
X102374818Y-84577930D01*
X102435140Y-84418872D01*
X102455645Y-84250000D01*
X102449216Y-84197057D01*
X102435140Y-84081128D01*
X102374818Y-83922070D01*
X102278183Y-83782071D01*
X102150856Y-83669269D01*
X102150853Y-83669267D01*
X102150852Y-83669266D01*
X102000225Y-83590210D01*
X102000222Y-83590209D01*
X101835058Y-83549500D01*
X101835056Y-83549500D01*
X101664944Y-83549500D01*
X101664941Y-83549500D01*
X101499777Y-83590209D01*
X101349146Y-83669267D01*
X101349143Y-83669269D01*
X101221816Y-83782071D01*
X101125181Y-83922070D01*
X101064859Y-84081128D01*
X101044355Y-84249996D01*
X99191568Y-84249996D01*
X99185140Y-84197057D01*
X99124818Y-84037999D01*
X99028183Y-83898000D01*
X98900856Y-83785198D01*
X98900853Y-83785196D01*
X98900852Y-83785195D01*
X98750225Y-83706139D01*
X98750222Y-83706138D01*
X98585058Y-83665429D01*
X98585056Y-83665429D01*
X98414944Y-83665429D01*
X98414941Y-83665429D01*
X98249777Y-83706138D01*
X98099146Y-83785196D01*
X98099143Y-83785198D01*
X97971816Y-83898000D01*
X97875181Y-84037999D01*
X97814859Y-84197057D01*
X97794355Y-84365925D01*
X86630286Y-84365925D01*
X86566994Y-83724919D01*
X86583422Y-83670719D01*
X86633363Y-83644008D01*
X87777080Y-83533836D01*
X87778192Y-83533737D01*
X90216272Y-83337307D01*
X90217538Y-83337216D01*
X92658586Y-83184370D01*
X92659876Y-83184300D01*
X95103405Y-83075069D01*
X95104511Y-83075029D01*
X97549560Y-83009459D01*
X97550823Y-83009436D01*
X99996698Y-82987544D01*
X99997818Y-82987544D01*
X102443698Y-83009338D01*
G37*
%TD.AperFunction*%
%TD*%
%TA.AperFunction,Conductor*%
%TO.N,GND*%
G36*
X103540810Y-94031298D02*
G01*
X103540810Y-95447298D01*
X103628638Y-95447298D01*
X103628654Y-95447297D01*
X103688182Y-95440896D01*
X103688189Y-95440894D01*
X103831209Y-95387552D01*
X103832374Y-95390676D01*
X103884789Y-95379249D01*
X103950265Y-95403636D01*
X103992162Y-95459550D01*
X104000000Y-95502937D01*
X104000000Y-96876000D01*
X103980315Y-96943039D01*
X103927511Y-96988794D01*
X103876000Y-97000000D01*
X96124000Y-97000000D01*
X96056961Y-96980315D01*
X96011206Y-96927511D01*
X96000000Y-96876000D01*
X96000000Y-95497032D01*
X96001978Y-95490297D01*
X96933784Y-95490297D01*
X96936405Y-95514667D01*
X96936406Y-95514675D01*
X96986649Y-95649384D01*
X96986653Y-95649391D01*
X97072813Y-95764485D01*
X97072816Y-95764488D01*
X97187910Y-95850648D01*
X97187917Y-95850652D01*
X97322624Y-95900894D01*
X97322631Y-95900896D01*
X97382159Y-95907297D01*
X97382176Y-95907298D01*
X97430004Y-95907298D01*
X97930004Y-95907298D01*
X97977832Y-95907298D01*
X97977848Y-95907297D01*
X98037376Y-95900896D01*
X98037383Y-95900894D01*
X98172090Y-95850652D01*
X98172097Y-95850648D01*
X98287191Y-95764488D01*
X98287194Y-95764485D01*
X98373354Y-95649391D01*
X98373358Y-95649384D01*
X98423601Y-95514675D01*
X98423602Y-95514667D01*
X98426223Y-95490297D01*
X101584590Y-95490297D01*
X101587211Y-95514667D01*
X101587212Y-95514675D01*
X101637455Y-95649384D01*
X101637459Y-95649391D01*
X101723619Y-95764485D01*
X101723622Y-95764488D01*
X101838716Y-95850648D01*
X101838723Y-95850652D01*
X101973430Y-95900894D01*
X101973437Y-95900896D01*
X102032965Y-95907297D01*
X102032982Y-95907298D01*
X102080810Y-95907298D01*
X102580810Y-95907298D01*
X102628638Y-95907298D01*
X102628654Y-95907297D01*
X102688182Y-95900896D01*
X102688189Y-95900894D01*
X102822896Y-95850652D01*
X102822903Y-95850648D01*
X102937997Y-95764488D01*
X102938000Y-95764485D01*
X103024160Y-95649391D01*
X103024164Y-95649384D01*
X103074407Y-95514675D01*
X103074408Y-95514667D01*
X103077029Y-95490297D01*
X103072560Y-95485322D01*
X103042406Y-95422294D01*
X103040810Y-95402461D01*
X103040810Y-94407298D01*
X102580810Y-94407298D01*
X102580810Y-95907298D01*
X102080810Y-95907298D01*
X102080810Y-94407298D01*
X101620810Y-94407298D01*
X101620810Y-95402461D01*
X101601125Y-95469500D01*
X101589060Y-95485322D01*
X101584590Y-95490297D01*
X98426223Y-95490297D01*
X98421754Y-95485322D01*
X98403562Y-95447298D01*
X98890004Y-95447298D01*
X98977832Y-95447298D01*
X98977848Y-95447297D01*
X99037376Y-95440896D01*
X99037383Y-95440894D01*
X99172090Y-95390652D01*
X99172097Y-95390648D01*
X99287191Y-95304488D01*
X99287194Y-95304485D01*
X99373354Y-95189391D01*
X99373358Y-95189384D01*
X99423600Y-95054677D01*
X99423602Y-95054670D01*
X99430003Y-94995142D01*
X100580810Y-94995142D01*
X100587211Y-95054670D01*
X100587213Y-95054677D01*
X100637455Y-95189384D01*
X100637459Y-95189391D01*
X100723619Y-95304485D01*
X100723622Y-95304488D01*
X100838716Y-95390648D01*
X100838723Y-95390652D01*
X100973430Y-95440894D01*
X100973437Y-95440896D01*
X101032965Y-95447297D01*
X101032982Y-95447298D01*
X101120810Y-95447298D01*
X101120810Y-94407298D01*
X100580810Y-94407298D01*
X100580810Y-94995142D01*
X99430003Y-94995142D01*
X99430004Y-94995125D01*
X99430004Y-94407298D01*
X98890004Y-94407298D01*
X98890004Y-95447298D01*
X98403562Y-95447298D01*
X98391600Y-95422294D01*
X98390004Y-95402461D01*
X98390004Y-94407298D01*
X97930004Y-94407298D01*
X97930004Y-95907298D01*
X97430004Y-95907298D01*
X97430004Y-94407298D01*
X96970004Y-94407298D01*
X96970004Y-95402461D01*
X96950319Y-95469500D01*
X96938254Y-95485322D01*
X96933784Y-95490297D01*
X96001978Y-95490297D01*
X96019685Y-95429993D01*
X96072489Y-95384238D01*
X96141647Y-95374294D01*
X96183434Y-95388203D01*
X96187922Y-95390654D01*
X96322624Y-95440894D01*
X96322631Y-95440896D01*
X96382159Y-95447297D01*
X96382176Y-95447298D01*
X96470004Y-95447298D01*
X96470004Y-94031298D01*
X96479194Y-94000000D01*
X103534001Y-94000000D01*
X103540810Y-94031298D01*
G37*
%TD.AperFunction*%
%TD*%
%TA.AperFunction,Conductor*%
%TO.N,Net-(J2-SIGNAL)*%
G36*
X101678517Y-91127303D02*
G01*
X101679382Y-91128274D01*
X102164718Y-91738779D01*
X102167183Y-91747388D01*
X102163832Y-91754333D01*
X101754172Y-92163993D01*
X101745899Y-92167420D01*
X101738820Y-92165035D01*
X101188747Y-91746951D01*
X101116200Y-91691811D01*
X101111687Y-91684076D01*
X101113965Y-91675416D01*
X101114973Y-91674258D01*
X101387693Y-91400172D01*
X101661972Y-91127260D01*
X101670252Y-91123855D01*
X101678517Y-91127303D01*
G37*
%TD.AperFunction*%
%TD*%
%TA.AperFunction,Conductor*%
%TO.N,Net-(J3-SIGNAL)*%
G36*
X98225458Y-91225540D02*
G01*
X98226527Y-91226481D01*
X98500707Y-91499293D01*
X98500749Y-91499335D01*
X98773518Y-91773472D01*
X98776924Y-91781753D01*
X98773476Y-91790018D01*
X98772407Y-91790959D01*
X98154599Y-92271475D01*
X98145965Y-92273850D01*
X98139143Y-92270513D01*
X97729486Y-91860856D01*
X97726059Y-91852583D01*
X97728524Y-91845400D01*
X97771599Y-91790018D01*
X98209041Y-91227591D01*
X98216824Y-91223165D01*
X98225458Y-91225540D01*
G37*
%TD.AperFunction*%
%TD*%
M02*
