%TF.GenerationSoftware,KiCad,Pcbnew,8.0.2-1*%
%TF.CreationDate,2024-08-15T10:06:31+02:00*%
%TF.ProjectId,PUMA_PCB_REV2,50554d41-5f50-4434-925f-524556322e6b,rev?*%
%TF.SameCoordinates,Original*%
%TF.FileFunction,Legend,Bot*%
%TF.FilePolarity,Positive*%
%FSLAX46Y46*%
G04 Gerber Fmt 4.6, Leading zero omitted, Abs format (unit mm)*
G04 Created by KiCad (PCBNEW 8.0.2-1) date 2024-08-15 10:06:31*
%MOMM*%
%LPD*%
G01*
G04 APERTURE LIST*
%ADD10C,0.120000*%
%ADD11C,0.150000*%
%ADD12C,0.127000*%
%ADD13C,0.200000*%
G04 APERTURE END LIST*
D10*
X96317621Y-87000173D02*
X95936668Y-86733506D01*
X96317621Y-86543030D02*
X95517621Y-86543030D01*
X95517621Y-86543030D02*
X95517621Y-86847792D01*
X95517621Y-86847792D02*
X95555716Y-86923982D01*
X95555716Y-86923982D02*
X95593811Y-86962077D01*
X95593811Y-86962077D02*
X95670002Y-87000173D01*
X95670002Y-87000173D02*
X95784287Y-87000173D01*
X95784287Y-87000173D02*
X95860478Y-86962077D01*
X95860478Y-86962077D02*
X95898573Y-86923982D01*
X95898573Y-86923982D02*
X95936668Y-86847792D01*
X95936668Y-86847792D02*
X95936668Y-86543030D01*
X95593811Y-87304934D02*
X95555716Y-87343030D01*
X95555716Y-87343030D02*
X95517621Y-87419220D01*
X95517621Y-87419220D02*
X95517621Y-87609696D01*
X95517621Y-87609696D02*
X95555716Y-87685887D01*
X95555716Y-87685887D02*
X95593811Y-87723982D01*
X95593811Y-87723982D02*
X95670002Y-87762077D01*
X95670002Y-87762077D02*
X95746192Y-87762077D01*
X95746192Y-87762077D02*
X95860478Y-87723982D01*
X95860478Y-87723982D02*
X96317621Y-87266839D01*
X96317621Y-87266839D02*
X96317621Y-87762077D01*
X104561404Y-87028696D02*
X104180451Y-86762029D01*
X104561404Y-86571553D02*
X103761404Y-86571553D01*
X103761404Y-86571553D02*
X103761404Y-86876315D01*
X103761404Y-86876315D02*
X103799499Y-86952505D01*
X103799499Y-86952505D02*
X103837594Y-86990600D01*
X103837594Y-86990600D02*
X103913785Y-87028696D01*
X103913785Y-87028696D02*
X104028070Y-87028696D01*
X104028070Y-87028696D02*
X104104261Y-86990600D01*
X104104261Y-86990600D02*
X104142356Y-86952505D01*
X104142356Y-86952505D02*
X104180451Y-86876315D01*
X104180451Y-86876315D02*
X104180451Y-86571553D01*
X104561404Y-87790600D02*
X104561404Y-87333457D01*
X104561404Y-87562029D02*
X103761404Y-87562029D01*
X103761404Y-87562029D02*
X103875689Y-87485838D01*
X103875689Y-87485838D02*
X103951880Y-87409648D01*
X103951880Y-87409648D02*
X103989975Y-87333457D01*
D11*
X101497743Y-84529757D02*
X101497743Y-85177376D01*
X101497743Y-85177376D02*
X101459648Y-85253566D01*
X101459648Y-85253566D02*
X101421553Y-85291662D01*
X101421553Y-85291662D02*
X101345362Y-85329757D01*
X101345362Y-85329757D02*
X101192981Y-85329757D01*
X101192981Y-85329757D02*
X101116791Y-85291662D01*
X101116791Y-85291662D02*
X101078696Y-85253566D01*
X101078696Y-85253566D02*
X101040600Y-85177376D01*
X101040600Y-85177376D02*
X101040600Y-84529757D01*
X100240601Y-85329757D02*
X100697744Y-85329757D01*
X100469172Y-85329757D02*
X100469172Y-84529757D01*
X100469172Y-84529757D02*
X100545363Y-84644042D01*
X100545363Y-84644042D02*
X100621553Y-84720233D01*
X100621553Y-84720233D02*
X100697744Y-84758328D01*
X99609523Y-84562295D02*
X99609523Y-85209914D01*
X99609523Y-85209914D02*
X99571428Y-85286104D01*
X99571428Y-85286104D02*
X99533333Y-85324200D01*
X99533333Y-85324200D02*
X99457142Y-85362295D01*
X99457142Y-85362295D02*
X99304761Y-85362295D01*
X99304761Y-85362295D02*
X99228571Y-85324200D01*
X99228571Y-85324200D02*
X99190476Y-85286104D01*
X99190476Y-85286104D02*
X99152380Y-85209914D01*
X99152380Y-85209914D02*
X99152380Y-84562295D01*
X98809524Y-84638485D02*
X98771428Y-84600390D01*
X98771428Y-84600390D02*
X98695238Y-84562295D01*
X98695238Y-84562295D02*
X98504762Y-84562295D01*
X98504762Y-84562295D02*
X98428571Y-84600390D01*
X98428571Y-84600390D02*
X98390476Y-84638485D01*
X98390476Y-84638485D02*
X98352381Y-84714676D01*
X98352381Y-84714676D02*
X98352381Y-84790866D01*
X98352381Y-84790866D02*
X98390476Y-84905152D01*
X98390476Y-84905152D02*
X98847619Y-85362295D01*
X98847619Y-85362295D02*
X98352381Y-85362295D01*
D12*
%TO.C,U1*%
X100346306Y-86088644D02*
X100346306Y-89083644D01*
X100346306Y-90138644D02*
X103351306Y-90138644D01*
X101391306Y-86088644D02*
X104396306Y-86088644D01*
X104396306Y-87143644D02*
X104396306Y-90138644D01*
D13*
X101571306Y-90713644D02*
G75*
G02*
X101371306Y-90713644I-100000J0D01*
G01*
X101371306Y-90713644D02*
G75*
G02*
X101571306Y-90713644I100000J0D01*
G01*
D12*
%TO.C,U2*%
X95612090Y-89103644D02*
X95612090Y-86098644D01*
X95612090Y-90148644D02*
X98607090Y-90148644D01*
X96667090Y-86098644D02*
X99662090Y-86098644D01*
X99662090Y-90148644D02*
X99662090Y-87143644D01*
D13*
X100337090Y-89023644D02*
G75*
G02*
X100137090Y-89023644I-100000J0D01*
G01*
X100137090Y-89023644D02*
G75*
G02*
X100337090Y-89023644I100000J0D01*
G01*
%TD*%
M02*
