%TF.GenerationSoftware,KiCad,Pcbnew,8.0.2-1*%
%TF.CreationDate,2024-10-11T13:21:46+02:00*%
%TF.ProjectId,PUMA_PCB_REV2,50554d41-5f50-4434-925f-524556322e6b,rev?*%
%TF.SameCoordinates,Original*%
%TF.FileFunction,Copper,L2,Inr*%
%TF.FilePolarity,Positive*%
%FSLAX46Y46*%
G04 Gerber Fmt 4.6, Leading zero omitted, Abs format (unit mm)*
G04 Created by KiCad (PCBNEW 8.0.2-1) date 2024-10-11 13:21:46*
%MOMM*%
%LPD*%
G01*
G04 APERTURE LIST*
%TA.AperFunction,ViaPad*%
%ADD10C,1.000000*%
%TD*%
%TA.AperFunction,ViaPad*%
%ADD11C,0.600000*%
%TD*%
%TA.AperFunction,ViaPad*%
%ADD12C,0.800000*%
%TD*%
G04 APERTURE END LIST*
D10*
%TO.N,GND*%
X96638147Y-90864525D03*
X98500000Y-84365929D03*
X95000000Y-96750000D03*
D11*
X104250000Y-92250000D03*
D10*
X107686120Y-85500000D03*
X104750000Y-96750000D03*
X107686120Y-86853605D03*
X103500000Y-91000000D03*
X107686120Y-88208610D03*
D11*
X96000000Y-92500000D03*
D10*
X99998879Y-96749863D03*
X101750000Y-84250000D03*
X91750000Y-90500000D03*
D11*
%TO.N,HV+*%
X93322070Y-84647999D03*
X106628810Y-84404476D03*
D12*
%TO.N,Net-(J2-SIGNAL)*%
X98500000Y-91500000D03*
%TO.N,Net-(J4-SIGNAL)*%
X101388400Y-91400879D03*
%TD*%
%TA.AperFunction,Conductor*%
%TO.N,GND*%
G36*
X102443268Y-83009334D02*
G01*
X102445287Y-83009370D01*
X104889484Y-83074819D01*
X104891648Y-83074897D01*
X107334274Y-83183990D01*
X107336325Y-83184100D01*
X109776610Y-83336801D01*
X109778671Y-83336948D01*
X112215960Y-83533217D01*
X112217848Y-83533385D01*
X113311132Y-83638655D01*
X113375974Y-83664674D01*
X113416457Y-83721620D01*
X113422647Y-83774245D01*
X113216184Y-85869239D01*
X113190020Y-85934025D01*
X113132983Y-85974381D01*
X113080596Y-85980478D01*
X111142258Y-85789056D01*
X111142255Y-85789056D01*
X111142254Y-85789056D01*
X111024365Y-85795977D01*
X110906472Y-85802898D01*
X110675763Y-85853455D01*
X110675761Y-85853456D01*
X110455809Y-85939477D01*
X110455804Y-85939480D01*
X110252014Y-86058852D01*
X110252011Y-86058854D01*
X110175610Y-86121521D01*
X110069398Y-86208641D01*
X109912466Y-86385148D01*
X109785079Y-86584034D01*
X109785073Y-86584045D01*
X109690373Y-86800395D01*
X109690372Y-86800398D01*
X109630679Y-87028911D01*
X109607467Y-87263947D01*
X109607467Y-87263950D01*
X109621309Y-87499734D01*
X109671866Y-87730443D01*
X109671867Y-87730445D01*
X109757888Y-87950397D01*
X109757890Y-87950400D01*
X109862753Y-88129422D01*
X109877263Y-88154192D01*
X109877262Y-88154192D01*
X109877264Y-88154194D01*
X109877265Y-88154196D01*
X110027051Y-88336807D01*
X110203559Y-88493740D01*
X110402444Y-88621127D01*
X110402449Y-88621129D01*
X110402456Y-88621133D01*
X110587898Y-88702304D01*
X110618808Y-88715834D01*
X110847323Y-88775528D01*
X112786322Y-88967015D01*
X112851103Y-88993193D01*
X112891447Y-89050238D01*
X112897538Y-89102576D01*
X112414817Y-94000797D01*
X112388653Y-94065583D01*
X112331616Y-94105939D01*
X112279229Y-94112036D01*
X110410662Y-93927505D01*
X110410659Y-93927505D01*
X110410658Y-93927505D01*
X110292769Y-93934426D01*
X110174876Y-93941347D01*
X109944167Y-93991904D01*
X109944165Y-93991905D01*
X109724213Y-94077926D01*
X109724208Y-94077929D01*
X109520418Y-94197301D01*
X109520415Y-94197303D01*
X109444014Y-94259970D01*
X109337802Y-94347090D01*
X109180870Y-94523597D01*
X109053483Y-94722483D01*
X109053477Y-94722494D01*
X108958777Y-94938844D01*
X108958776Y-94938847D01*
X108899083Y-95167360D01*
X108875871Y-95402396D01*
X108875871Y-95402399D01*
X108889713Y-95638183D01*
X108940270Y-95868892D01*
X108940271Y-95868894D01*
X109026292Y-96088846D01*
X109026295Y-96088851D01*
X109145667Y-96292641D01*
X109145666Y-96292641D01*
X109145668Y-96292643D01*
X109145669Y-96292645D01*
X109295455Y-96475256D01*
X109471963Y-96632189D01*
X109670848Y-96759576D01*
X109670853Y-96759578D01*
X109670860Y-96759582D01*
X109856302Y-96840753D01*
X109887212Y-96854283D01*
X110115727Y-96913977D01*
X111984957Y-97098574D01*
X112049736Y-97124751D01*
X112090080Y-97181796D01*
X112096171Y-97234134D01*
X111975114Y-98462518D01*
X111948950Y-98527304D01*
X111891913Y-98567660D01*
X111839827Y-98573786D01*
X110878582Y-98481231D01*
X108706751Y-98306337D01*
X106532129Y-98170257D01*
X104355536Y-98073037D01*
X102177387Y-98014698D01*
X99998658Y-97995266D01*
X97819873Y-98014747D01*
X95641838Y-98073131D01*
X93465191Y-98170401D01*
X93465161Y-98170402D01*
X93465158Y-98170403D01*
X93275208Y-98182293D01*
X91290573Y-98306529D01*
X89118739Y-98481470D01*
X88157479Y-98574049D01*
X88088862Y-98560882D01*
X88038255Y-98512707D01*
X88022192Y-98462804D01*
X87993321Y-98170403D01*
X87889469Y-97118622D01*
X87902471Y-97049976D01*
X87950524Y-96999254D01*
X88000675Y-96983043D01*
X89955546Y-96789989D01*
X90141017Y-96741539D01*
X90184055Y-96730297D01*
X90184056Y-96730296D01*
X90184062Y-96730295D01*
X90400425Y-96635588D01*
X90599310Y-96508201D01*
X90775818Y-96351268D01*
X90925604Y-96168657D01*
X91044979Y-95964861D01*
X91048200Y-95956627D01*
X91131002Y-95744906D01*
X91131003Y-95744904D01*
X91181559Y-95514195D01*
X91181560Y-95514192D01*
X91195402Y-95278414D01*
X91172191Y-95043373D01*
X91112497Y-94814858D01*
X91094052Y-94772720D01*
X91017796Y-94598506D01*
X91017790Y-94598495D01*
X91017790Y-94598494D01*
X90890402Y-94399609D01*
X90890400Y-94399607D01*
X90890399Y-94399605D01*
X90733471Y-94223102D01*
X90550858Y-94073315D01*
X90347068Y-93953942D01*
X90127100Y-93867915D01*
X89896394Y-93817359D01*
X89896399Y-93817359D01*
X89739207Y-93808131D01*
X89660615Y-93803517D01*
X89660613Y-93803517D01*
X89660612Y-93803517D01*
X89660608Y-93803517D01*
X87705806Y-93996564D01*
X87637157Y-93983563D01*
X87586434Y-93935511D01*
X87570220Y-93885350D01*
X87334694Y-91500000D01*
X97594540Y-91500000D01*
X97614326Y-91688256D01*
X97614327Y-91688259D01*
X97672818Y-91868277D01*
X97672821Y-91868284D01*
X97767467Y-92032216D01*
X97804880Y-92073767D01*
X97894129Y-92172888D01*
X98047265Y-92284148D01*
X98047270Y-92284151D01*
X98220192Y-92361142D01*
X98220197Y-92361144D01*
X98405354Y-92400500D01*
X98405355Y-92400500D01*
X98594644Y-92400500D01*
X98594646Y-92400500D01*
X98779803Y-92361144D01*
X98952730Y-92284151D01*
X99105871Y-92172888D01*
X99232533Y-92032216D01*
X99327179Y-91868284D01*
X99385674Y-91688256D01*
X99405460Y-91500000D01*
X99395042Y-91400879D01*
X100482940Y-91400879D01*
X100502726Y-91589135D01*
X100502727Y-91589138D01*
X100561218Y-91769156D01*
X100561221Y-91769163D01*
X100655867Y-91933095D01*
X100745116Y-92032216D01*
X100782529Y-92073767D01*
X100935665Y-92185027D01*
X100935670Y-92185030D01*
X101108592Y-92262021D01*
X101108597Y-92262023D01*
X101293754Y-92301379D01*
X101293755Y-92301379D01*
X101483044Y-92301379D01*
X101483046Y-92301379D01*
X101668203Y-92262023D01*
X101841130Y-92185030D01*
X101994271Y-92073767D01*
X102120933Y-91933095D01*
X102215579Y-91769163D01*
X102274074Y-91589135D01*
X102293860Y-91400879D01*
X102274074Y-91212623D01*
X102215579Y-91032595D01*
X102120933Y-90868663D01*
X101994271Y-90727991D01*
X101977558Y-90715848D01*
X101841134Y-90616730D01*
X101841129Y-90616727D01*
X101668207Y-90539736D01*
X101668202Y-90539734D01*
X101522401Y-90508744D01*
X101483046Y-90500379D01*
X101293754Y-90500379D01*
X101261297Y-90507277D01*
X101108597Y-90539734D01*
X101108592Y-90539736D01*
X100935670Y-90616727D01*
X100935665Y-90616730D01*
X100782529Y-90727990D01*
X100655866Y-90868664D01*
X100561221Y-91032594D01*
X100561218Y-91032601D01*
X100529014Y-91131716D01*
X100502726Y-91212623D01*
X100482940Y-91400879D01*
X99395042Y-91400879D01*
X99385674Y-91311744D01*
X99327179Y-91131716D01*
X99232533Y-90967784D01*
X99105871Y-90827112D01*
X99105870Y-90827111D01*
X98952734Y-90715851D01*
X98952729Y-90715848D01*
X98779807Y-90638857D01*
X98779802Y-90638855D01*
X98634001Y-90607865D01*
X98594646Y-90599500D01*
X98405354Y-90599500D01*
X98372897Y-90606398D01*
X98220197Y-90638855D01*
X98220192Y-90638857D01*
X98047270Y-90715848D01*
X98047265Y-90715851D01*
X97894129Y-90827111D01*
X97767466Y-90967785D01*
X97672821Y-91131715D01*
X97672818Y-91131722D01*
X97614327Y-91311740D01*
X97614326Y-91311744D01*
X97594540Y-91500000D01*
X87334694Y-91500000D01*
X87093079Y-89052975D01*
X87106081Y-88984327D01*
X87154134Y-88933605D01*
X87204288Y-88917393D01*
X89257642Y-88714613D01*
X89443113Y-88666163D01*
X89486151Y-88654921D01*
X89486152Y-88654920D01*
X89486158Y-88654919D01*
X89702521Y-88560212D01*
X89901406Y-88432825D01*
X90077914Y-88275892D01*
X90227700Y-88093281D01*
X90347075Y-87889485D01*
X90433099Y-87669525D01*
X90483656Y-87438816D01*
X90497498Y-87203038D01*
X90474286Y-86967997D01*
X90414592Y-86739482D01*
X90368539Y-86634271D01*
X90319891Y-86523130D01*
X90319885Y-86523119D01*
X90319885Y-86523118D01*
X90192498Y-86324233D01*
X90089725Y-86208641D01*
X90035566Y-86147726D01*
X90035565Y-86147725D01*
X89852954Y-85997939D01*
X89649158Y-85878564D01*
X89649155Y-85878562D01*
X89429203Y-85792541D01*
X89429201Y-85792540D01*
X89198490Y-85741983D01*
X89198495Y-85741983D01*
X89041303Y-85732755D01*
X88962711Y-85728141D01*
X88962709Y-85728141D01*
X88962708Y-85728141D01*
X88962704Y-85728141D01*
X86909415Y-85930915D01*
X86840766Y-85917914D01*
X86790043Y-85869862D01*
X86773830Y-85819703D01*
X86658137Y-84647995D01*
X92516505Y-84647995D01*
X92516505Y-84648002D01*
X92536700Y-84827248D01*
X92536701Y-84827253D01*
X92596281Y-84997522D01*
X92679689Y-85130264D01*
X92692254Y-85150261D01*
X92819808Y-85277815D01*
X92972548Y-85373788D01*
X93142815Y-85433367D01*
X93142820Y-85433368D01*
X93322066Y-85453564D01*
X93322070Y-85453564D01*
X93322074Y-85453564D01*
X93501319Y-85433368D01*
X93501322Y-85433367D01*
X93501325Y-85433367D01*
X93671592Y-85373788D01*
X93824332Y-85277815D01*
X93951886Y-85150261D01*
X94047859Y-84997521D01*
X94107438Y-84827254D01*
X94127635Y-84647999D01*
X94120393Y-84583725D01*
X94107439Y-84468749D01*
X94107438Y-84468744D01*
X94084948Y-84404472D01*
X105823245Y-84404472D01*
X105823245Y-84404479D01*
X105843440Y-84583725D01*
X105843441Y-84583730D01*
X105903021Y-84753999D01*
X105949047Y-84827248D01*
X105998994Y-84906738D01*
X106126548Y-85034292D01*
X106279288Y-85130265D01*
X106449555Y-85189844D01*
X106449560Y-85189845D01*
X106628806Y-85210041D01*
X106628810Y-85210041D01*
X106628814Y-85210041D01*
X106808059Y-85189845D01*
X106808062Y-85189844D01*
X106808065Y-85189844D01*
X106978332Y-85130265D01*
X107131072Y-85034292D01*
X107258626Y-84906738D01*
X107354599Y-84753998D01*
X107414178Y-84583731D01*
X107414179Y-84583725D01*
X107434375Y-84404479D01*
X107434375Y-84404472D01*
X107414179Y-84225226D01*
X107414178Y-84225221D01*
X107354598Y-84054952D01*
X107258625Y-83902213D01*
X107131072Y-83774660D01*
X106978333Y-83678687D01*
X106808064Y-83619107D01*
X106808059Y-83619106D01*
X106628814Y-83598911D01*
X106628806Y-83598911D01*
X106449560Y-83619106D01*
X106449555Y-83619107D01*
X106279286Y-83678687D01*
X106126547Y-83774660D01*
X105998994Y-83902213D01*
X105903021Y-84054952D01*
X105843441Y-84225221D01*
X105843440Y-84225226D01*
X105823245Y-84404472D01*
X94084948Y-84404472D01*
X94047858Y-84298475D01*
X93951885Y-84145736D01*
X93824332Y-84018183D01*
X93671593Y-83922210D01*
X93501324Y-83862630D01*
X93501319Y-83862629D01*
X93322074Y-83842434D01*
X93322066Y-83842434D01*
X93142820Y-83862629D01*
X93142815Y-83862630D01*
X92972546Y-83922210D01*
X92819807Y-84018183D01*
X92692254Y-84145736D01*
X92596281Y-84298475D01*
X92536701Y-84468744D01*
X92536700Y-84468749D01*
X92516505Y-84647995D01*
X86658137Y-84647995D01*
X86571919Y-83774796D01*
X86584921Y-83706149D01*
X86632974Y-83655427D01*
X86683424Y-83639186D01*
X87776822Y-83533861D01*
X87778564Y-83533707D01*
X90215834Y-83337342D01*
X90217845Y-83337197D01*
X92658281Y-83184389D01*
X92660270Y-83184283D01*
X95102858Y-83075093D01*
X95105054Y-83075015D01*
X97549115Y-83009471D01*
X97551262Y-83009432D01*
X99996252Y-82987548D01*
X99998267Y-82987548D01*
X102443268Y-83009334D01*
G37*
%TD.AperFunction*%
%TD*%
M02*
