%TF.GenerationSoftware,KiCad,Pcbnew,8.0.2-1*%
%TF.CreationDate,2024-10-11T13:21:46+02:00*%
%TF.ProjectId,PUMA_PCB_REV2,50554d41-5f50-4434-925f-524556322e6b,rev?*%
%TF.SameCoordinates,Original*%
%TF.FileFunction,Legend,Bot*%
%TF.FilePolarity,Positive*%
%FSLAX46Y46*%
G04 Gerber Fmt 4.6, Leading zero omitted, Abs format (unit mm)*
G04 Created by KiCad (PCBNEW 8.0.2-1) date 2024-10-11 13:21:46*
%MOMM*%
%LPD*%
G01*
G04 APERTURE LIST*
%ADD10C,0.120000*%
%ADD11C,0.150000*%
%ADD12C,0.508000*%
%ADD13C,0.200000*%
%ADD14C,0.127000*%
G04 APERTURE END LIST*
D10*
X92092085Y-87475570D02*
X92130181Y-87513666D01*
X92130181Y-87513666D02*
X92244466Y-87551761D01*
X92244466Y-87551761D02*
X92320657Y-87551761D01*
X92320657Y-87551761D02*
X92434943Y-87513666D01*
X92434943Y-87513666D02*
X92511133Y-87437475D01*
X92511133Y-87437475D02*
X92549228Y-87361285D01*
X92549228Y-87361285D02*
X92587324Y-87208904D01*
X92587324Y-87208904D02*
X92587324Y-87094618D01*
X92587324Y-87094618D02*
X92549228Y-86942237D01*
X92549228Y-86942237D02*
X92511133Y-86866046D01*
X92511133Y-86866046D02*
X92434943Y-86789856D01*
X92434943Y-86789856D02*
X92320657Y-86751761D01*
X92320657Y-86751761D02*
X92244466Y-86751761D01*
X92244466Y-86751761D02*
X92130181Y-86789856D01*
X92130181Y-86789856D02*
X92092085Y-86827951D01*
X91634943Y-87094618D02*
X91711133Y-87056523D01*
X91711133Y-87056523D02*
X91749228Y-87018427D01*
X91749228Y-87018427D02*
X91787324Y-86942237D01*
X91787324Y-86942237D02*
X91787324Y-86904142D01*
X91787324Y-86904142D02*
X91749228Y-86827951D01*
X91749228Y-86827951D02*
X91711133Y-86789856D01*
X91711133Y-86789856D02*
X91634943Y-86751761D01*
X91634943Y-86751761D02*
X91482562Y-86751761D01*
X91482562Y-86751761D02*
X91406371Y-86789856D01*
X91406371Y-86789856D02*
X91368276Y-86827951D01*
X91368276Y-86827951D02*
X91330181Y-86904142D01*
X91330181Y-86904142D02*
X91330181Y-86942237D01*
X91330181Y-86942237D02*
X91368276Y-87018427D01*
X91368276Y-87018427D02*
X91406371Y-87056523D01*
X91406371Y-87056523D02*
X91482562Y-87094618D01*
X91482562Y-87094618D02*
X91634943Y-87094618D01*
X91634943Y-87094618D02*
X91711133Y-87132713D01*
X91711133Y-87132713D02*
X91749228Y-87170808D01*
X91749228Y-87170808D02*
X91787324Y-87246999D01*
X91787324Y-87246999D02*
X91787324Y-87399380D01*
X91787324Y-87399380D02*
X91749228Y-87475570D01*
X91749228Y-87475570D02*
X91711133Y-87513666D01*
X91711133Y-87513666D02*
X91634943Y-87551761D01*
X91634943Y-87551761D02*
X91482562Y-87551761D01*
X91482562Y-87551761D02*
X91406371Y-87513666D01*
X91406371Y-87513666D02*
X91368276Y-87475570D01*
X91368276Y-87475570D02*
X91330181Y-87399380D01*
X91330181Y-87399380D02*
X91330181Y-87246999D01*
X91330181Y-87246999D02*
X91368276Y-87170808D01*
X91368276Y-87170808D02*
X91406371Y-87132713D01*
X91406371Y-87132713D02*
X91482562Y-87094618D01*
X92092085Y-88975570D02*
X92130181Y-89013666D01*
X92130181Y-89013666D02*
X92244466Y-89051761D01*
X92244466Y-89051761D02*
X92320657Y-89051761D01*
X92320657Y-89051761D02*
X92434943Y-89013666D01*
X92434943Y-89013666D02*
X92511133Y-88937475D01*
X92511133Y-88937475D02*
X92549228Y-88861285D01*
X92549228Y-88861285D02*
X92587324Y-88708904D01*
X92587324Y-88708904D02*
X92587324Y-88594618D01*
X92587324Y-88594618D02*
X92549228Y-88442237D01*
X92549228Y-88442237D02*
X92511133Y-88366046D01*
X92511133Y-88366046D02*
X92434943Y-88289856D01*
X92434943Y-88289856D02*
X92320657Y-88251761D01*
X92320657Y-88251761D02*
X92244466Y-88251761D01*
X92244466Y-88251761D02*
X92130181Y-88289856D01*
X92130181Y-88289856D02*
X92092085Y-88327951D01*
X91711133Y-89051761D02*
X91558752Y-89051761D01*
X91558752Y-89051761D02*
X91482562Y-89013666D01*
X91482562Y-89013666D02*
X91444466Y-88975570D01*
X91444466Y-88975570D02*
X91368276Y-88861285D01*
X91368276Y-88861285D02*
X91330181Y-88708904D01*
X91330181Y-88708904D02*
X91330181Y-88404142D01*
X91330181Y-88404142D02*
X91368276Y-88327951D01*
X91368276Y-88327951D02*
X91406371Y-88289856D01*
X91406371Y-88289856D02*
X91482562Y-88251761D01*
X91482562Y-88251761D02*
X91634943Y-88251761D01*
X91634943Y-88251761D02*
X91711133Y-88289856D01*
X91711133Y-88289856D02*
X91749228Y-88327951D01*
X91749228Y-88327951D02*
X91787324Y-88404142D01*
X91787324Y-88404142D02*
X91787324Y-88594618D01*
X91787324Y-88594618D02*
X91749228Y-88670808D01*
X91749228Y-88670808D02*
X91711133Y-88708904D01*
X91711133Y-88708904D02*
X91634943Y-88746999D01*
X91634943Y-88746999D02*
X91482562Y-88746999D01*
X91482562Y-88746999D02*
X91406371Y-88708904D01*
X91406371Y-88708904D02*
X91368276Y-88670808D01*
X91368276Y-88670808D02*
X91330181Y-88594618D01*
X109133332Y-85787664D02*
X109171428Y-85825760D01*
X109171428Y-85825760D02*
X109285713Y-85863855D01*
X109285713Y-85863855D02*
X109361904Y-85863855D01*
X109361904Y-85863855D02*
X109476190Y-85825760D01*
X109476190Y-85825760D02*
X109552380Y-85749569D01*
X109552380Y-85749569D02*
X109590475Y-85673379D01*
X109590475Y-85673379D02*
X109628571Y-85520998D01*
X109628571Y-85520998D02*
X109628571Y-85406712D01*
X109628571Y-85406712D02*
X109590475Y-85254331D01*
X109590475Y-85254331D02*
X109552380Y-85178140D01*
X109552380Y-85178140D02*
X109476190Y-85101950D01*
X109476190Y-85101950D02*
X109361904Y-85063855D01*
X109361904Y-85063855D02*
X109285713Y-85063855D01*
X109285713Y-85063855D02*
X109171428Y-85101950D01*
X109171428Y-85101950D02*
X109133332Y-85140045D01*
X108447618Y-85330521D02*
X108447618Y-85863855D01*
X108638094Y-85025760D02*
X108828571Y-85597188D01*
X108828571Y-85597188D02*
X108333332Y-85597188D01*
D11*
X101497743Y-84529757D02*
X101497743Y-85177376D01*
X101497743Y-85177376D02*
X101459648Y-85253566D01*
X101459648Y-85253566D02*
X101421553Y-85291662D01*
X101421553Y-85291662D02*
X101345362Y-85329757D01*
X101345362Y-85329757D02*
X101192981Y-85329757D01*
X101192981Y-85329757D02*
X101116791Y-85291662D01*
X101116791Y-85291662D02*
X101078696Y-85253566D01*
X101078696Y-85253566D02*
X101040600Y-85177376D01*
X101040600Y-85177376D02*
X101040600Y-84529757D01*
X100240601Y-85329757D02*
X100697744Y-85329757D01*
X100469172Y-85329757D02*
X100469172Y-84529757D01*
X100469172Y-84529757D02*
X100545363Y-84644042D01*
X100545363Y-84644042D02*
X100621553Y-84720233D01*
X100621553Y-84720233D02*
X100697744Y-84758328D01*
D10*
X92133332Y-84863855D02*
X92399999Y-84482902D01*
X92590475Y-84863855D02*
X92590475Y-84063855D01*
X92590475Y-84063855D02*
X92285713Y-84063855D01*
X92285713Y-84063855D02*
X92209523Y-84101950D01*
X92209523Y-84101950D02*
X92171428Y-84140045D01*
X92171428Y-84140045D02*
X92133332Y-84216236D01*
X92133332Y-84216236D02*
X92133332Y-84330521D01*
X92133332Y-84330521D02*
X92171428Y-84406712D01*
X92171428Y-84406712D02*
X92209523Y-84444807D01*
X92209523Y-84444807D02*
X92285713Y-84482902D01*
X92285713Y-84482902D02*
X92590475Y-84482902D01*
X91828571Y-84140045D02*
X91790475Y-84101950D01*
X91790475Y-84101950D02*
X91714285Y-84063855D01*
X91714285Y-84063855D02*
X91523809Y-84063855D01*
X91523809Y-84063855D02*
X91447618Y-84101950D01*
X91447618Y-84101950D02*
X91409523Y-84140045D01*
X91409523Y-84140045D02*
X91371428Y-84216236D01*
X91371428Y-84216236D02*
X91371428Y-84292426D01*
X91371428Y-84292426D02*
X91409523Y-84406712D01*
X91409523Y-84406712D02*
X91866666Y-84863855D01*
X91866666Y-84863855D02*
X91371428Y-84863855D01*
D11*
X99609523Y-84562295D02*
X99609523Y-85209914D01*
X99609523Y-85209914D02*
X99571428Y-85286104D01*
X99571428Y-85286104D02*
X99533333Y-85324200D01*
X99533333Y-85324200D02*
X99457142Y-85362295D01*
X99457142Y-85362295D02*
X99304761Y-85362295D01*
X99304761Y-85362295D02*
X99228571Y-85324200D01*
X99228571Y-85324200D02*
X99190476Y-85286104D01*
X99190476Y-85286104D02*
X99152380Y-85209914D01*
X99152380Y-85209914D02*
X99152380Y-84562295D01*
X98809524Y-84638485D02*
X98771428Y-84600390D01*
X98771428Y-84600390D02*
X98695238Y-84562295D01*
X98695238Y-84562295D02*
X98504762Y-84562295D01*
X98504762Y-84562295D02*
X98428571Y-84600390D01*
X98428571Y-84600390D02*
X98390476Y-84638485D01*
X98390476Y-84638485D02*
X98352381Y-84714676D01*
X98352381Y-84714676D02*
X98352381Y-84790866D01*
X98352381Y-84790866D02*
X98390476Y-84905152D01*
X98390476Y-84905152D02*
X98847619Y-85362295D01*
X98847619Y-85362295D02*
X98352381Y-85362295D01*
D10*
X108140410Y-84590930D02*
X108407077Y-84209977D01*
X108597553Y-84590930D02*
X108597553Y-83790930D01*
X108597553Y-83790930D02*
X108292791Y-83790930D01*
X108292791Y-83790930D02*
X108216601Y-83829025D01*
X108216601Y-83829025D02*
X108178506Y-83867120D01*
X108178506Y-83867120D02*
X108140410Y-83943311D01*
X108140410Y-83943311D02*
X108140410Y-84057596D01*
X108140410Y-84057596D02*
X108178506Y-84133787D01*
X108178506Y-84133787D02*
X108216601Y-84171882D01*
X108216601Y-84171882D02*
X108292791Y-84209977D01*
X108292791Y-84209977D02*
X108597553Y-84209977D01*
X107378506Y-84590930D02*
X107835649Y-84590930D01*
X107607077Y-84590930D02*
X107607077Y-83790930D01*
X107607077Y-83790930D02*
X107683268Y-83905215D01*
X107683268Y-83905215D02*
X107759458Y-83981406D01*
X107759458Y-83981406D02*
X107835649Y-84019501D01*
X109133332Y-87234524D02*
X109171428Y-87272620D01*
X109171428Y-87272620D02*
X109285713Y-87310715D01*
X109285713Y-87310715D02*
X109361904Y-87310715D01*
X109361904Y-87310715D02*
X109476190Y-87272620D01*
X109476190Y-87272620D02*
X109552380Y-87196429D01*
X109552380Y-87196429D02*
X109590475Y-87120239D01*
X109590475Y-87120239D02*
X109628571Y-86967858D01*
X109628571Y-86967858D02*
X109628571Y-86853572D01*
X109628571Y-86853572D02*
X109590475Y-86701191D01*
X109590475Y-86701191D02*
X109552380Y-86625000D01*
X109552380Y-86625000D02*
X109476190Y-86548810D01*
X109476190Y-86548810D02*
X109361904Y-86510715D01*
X109361904Y-86510715D02*
X109285713Y-86510715D01*
X109285713Y-86510715D02*
X109171428Y-86548810D01*
X109171428Y-86548810D02*
X109133332Y-86586905D01*
X108409523Y-86510715D02*
X108790475Y-86510715D01*
X108790475Y-86510715D02*
X108828571Y-86891667D01*
X108828571Y-86891667D02*
X108790475Y-86853572D01*
X108790475Y-86853572D02*
X108714285Y-86815477D01*
X108714285Y-86815477D02*
X108523809Y-86815477D01*
X108523809Y-86815477D02*
X108447618Y-86853572D01*
X108447618Y-86853572D02*
X108409523Y-86891667D01*
X108409523Y-86891667D02*
X108371428Y-86967858D01*
X108371428Y-86967858D02*
X108371428Y-87158334D01*
X108371428Y-87158334D02*
X108409523Y-87234524D01*
X108409523Y-87234524D02*
X108447618Y-87272620D01*
X108447618Y-87272620D02*
X108523809Y-87310715D01*
X108523809Y-87310715D02*
X108714285Y-87310715D01*
X108714285Y-87310715D02*
X108790475Y-87272620D01*
X108790475Y-87272620D02*
X108828571Y-87234524D01*
X92092085Y-85944400D02*
X92130181Y-85982496D01*
X92130181Y-85982496D02*
X92244466Y-86020591D01*
X92244466Y-86020591D02*
X92320657Y-86020591D01*
X92320657Y-86020591D02*
X92434943Y-85982496D01*
X92434943Y-85982496D02*
X92511133Y-85906305D01*
X92511133Y-85906305D02*
X92549228Y-85830115D01*
X92549228Y-85830115D02*
X92587324Y-85677734D01*
X92587324Y-85677734D02*
X92587324Y-85563448D01*
X92587324Y-85563448D02*
X92549228Y-85411067D01*
X92549228Y-85411067D02*
X92511133Y-85334876D01*
X92511133Y-85334876D02*
X92434943Y-85258686D01*
X92434943Y-85258686D02*
X92320657Y-85220591D01*
X92320657Y-85220591D02*
X92244466Y-85220591D01*
X92244466Y-85220591D02*
X92130181Y-85258686D01*
X92130181Y-85258686D02*
X92092085Y-85296781D01*
X91825419Y-85220591D02*
X91292085Y-85220591D01*
X91292085Y-85220591D02*
X91634943Y-86020591D01*
X109133332Y-88756124D02*
X109171428Y-88794220D01*
X109171428Y-88794220D02*
X109285713Y-88832315D01*
X109285713Y-88832315D02*
X109361904Y-88832315D01*
X109361904Y-88832315D02*
X109476190Y-88794220D01*
X109476190Y-88794220D02*
X109552380Y-88718029D01*
X109552380Y-88718029D02*
X109590475Y-88641839D01*
X109590475Y-88641839D02*
X109628571Y-88489458D01*
X109628571Y-88489458D02*
X109628571Y-88375172D01*
X109628571Y-88375172D02*
X109590475Y-88222791D01*
X109590475Y-88222791D02*
X109552380Y-88146600D01*
X109552380Y-88146600D02*
X109476190Y-88070410D01*
X109476190Y-88070410D02*
X109361904Y-88032315D01*
X109361904Y-88032315D02*
X109285713Y-88032315D01*
X109285713Y-88032315D02*
X109171428Y-88070410D01*
X109171428Y-88070410D02*
X109133332Y-88108505D01*
X108447618Y-88032315D02*
X108599999Y-88032315D01*
X108599999Y-88032315D02*
X108676190Y-88070410D01*
X108676190Y-88070410D02*
X108714285Y-88108505D01*
X108714285Y-88108505D02*
X108790475Y-88222791D01*
X108790475Y-88222791D02*
X108828571Y-88375172D01*
X108828571Y-88375172D02*
X108828571Y-88679934D01*
X108828571Y-88679934D02*
X108790475Y-88756124D01*
X108790475Y-88756124D02*
X108752380Y-88794220D01*
X108752380Y-88794220D02*
X108676190Y-88832315D01*
X108676190Y-88832315D02*
X108523809Y-88832315D01*
X108523809Y-88832315D02*
X108447618Y-88794220D01*
X108447618Y-88794220D02*
X108409523Y-88756124D01*
X108409523Y-88756124D02*
X108371428Y-88679934D01*
X108371428Y-88679934D02*
X108371428Y-88489458D01*
X108371428Y-88489458D02*
X108409523Y-88413267D01*
X108409523Y-88413267D02*
X108447618Y-88375172D01*
X108447618Y-88375172D02*
X108523809Y-88337077D01*
X108523809Y-88337077D02*
X108676190Y-88337077D01*
X108676190Y-88337077D02*
X108752380Y-88375172D01*
X108752380Y-88375172D02*
X108790475Y-88413267D01*
X108790475Y-88413267D02*
X108828571Y-88489458D01*
D12*
%TO.C,J2*%
X100351368Y-93261333D02*
G75*
G02*
X99589368Y-93261333I-381000J0D01*
G01*
X99589368Y-93261333D02*
G75*
G02*
X100351368Y-93261333I381000J0D01*
G01*
%TO.C,J4*%
X104864800Y-93238700D02*
G75*
G02*
X104102800Y-93238700I-381000J0D01*
G01*
X104102800Y-93238700D02*
G75*
G02*
X104864800Y-93238700I381000J0D01*
G01*
D13*
%TO.C,C4*%
X106000000Y-85852155D02*
X106000000Y-85252155D01*
D14*
%TO.C,U1*%
X100346306Y-86088644D02*
X100346306Y-89083644D01*
X100346306Y-90138644D02*
X103351306Y-90138644D01*
X101391306Y-86088644D02*
X104396306Y-86088644D01*
X104396306Y-87143644D02*
X104396306Y-90138644D01*
D13*
X101571306Y-90713644D02*
G75*
G02*
X101371306Y-90713644I-100000J0D01*
G01*
X101371306Y-90713644D02*
G75*
G02*
X101571306Y-90713644I100000J0D01*
G01*
D14*
%TO.C,U2*%
X95612090Y-89103644D02*
X95612090Y-86098644D01*
X95612090Y-90148644D02*
X98607090Y-90148644D01*
X96667090Y-86098644D02*
X99662090Y-86098644D01*
X99662090Y-90148644D02*
X99662090Y-87143644D01*
D13*
X100337090Y-89023644D02*
G75*
G02*
X100137090Y-89023644I-100000J0D01*
G01*
X100137090Y-89023644D02*
G75*
G02*
X100337090Y-89023644I100000J0D01*
G01*
%TO.C,C7*%
X93958753Y-85987906D02*
X93958753Y-85387906D01*
%TD*%
M02*
