%TF.GenerationSoftware,KiCad,Pcbnew,8.0.2-1*%
%TF.CreationDate,2024-08-19T11:26:23+02:00*%
%TF.ProjectId,PUMA_PCB_REV2,50554d41-5f50-4434-925f-524556322e6b,rev?*%
%TF.SameCoordinates,Original*%
%TF.FileFunction,Legend,Top*%
%TF.FilePolarity,Positive*%
%FSLAX46Y46*%
G04 Gerber Fmt 4.6, Leading zero omitted, Abs format (unit mm)*
G04 Created by KiCad (PCBNEW 8.0.2-1) date 2024-08-19 11:26:23*
%MOMM*%
%LPD*%
G01*
G04 APERTURE LIST*
%ADD10C,0.120000*%
%ADD11C,0.200000*%
%ADD12C,0.100000*%
G04 APERTURE END LIST*
D10*
X108866667Y-92711132D02*
X108828571Y-92749228D01*
X108828571Y-92749228D02*
X108714286Y-92787323D01*
X108714286Y-92787323D02*
X108638095Y-92787323D01*
X108638095Y-92787323D02*
X108523809Y-92749228D01*
X108523809Y-92749228D02*
X108447619Y-92673037D01*
X108447619Y-92673037D02*
X108409524Y-92596847D01*
X108409524Y-92596847D02*
X108371428Y-92444466D01*
X108371428Y-92444466D02*
X108371428Y-92330180D01*
X108371428Y-92330180D02*
X108409524Y-92177799D01*
X108409524Y-92177799D02*
X108447619Y-92101608D01*
X108447619Y-92101608D02*
X108523809Y-92025418D01*
X108523809Y-92025418D02*
X108638095Y-91987323D01*
X108638095Y-91987323D02*
X108714286Y-91987323D01*
X108714286Y-91987323D02*
X108828571Y-92025418D01*
X108828571Y-92025418D02*
X108866667Y-92063513D01*
X109171428Y-92063513D02*
X109209524Y-92025418D01*
X109209524Y-92025418D02*
X109285714Y-91987323D01*
X109285714Y-91987323D02*
X109476190Y-91987323D01*
X109476190Y-91987323D02*
X109552381Y-92025418D01*
X109552381Y-92025418D02*
X109590476Y-92063513D01*
X109590476Y-92063513D02*
X109628571Y-92139704D01*
X109628571Y-92139704D02*
X109628571Y-92215894D01*
X109628571Y-92215894D02*
X109590476Y-92330180D01*
X109590476Y-92330180D02*
X109133333Y-92787323D01*
X109133333Y-92787323D02*
X109628571Y-92787323D01*
X106366667Y-95287664D02*
X106328571Y-95325760D01*
X106328571Y-95325760D02*
X106214286Y-95363855D01*
X106214286Y-95363855D02*
X106138095Y-95363855D01*
X106138095Y-95363855D02*
X106023809Y-95325760D01*
X106023809Y-95325760D02*
X105947619Y-95249569D01*
X105947619Y-95249569D02*
X105909524Y-95173379D01*
X105909524Y-95173379D02*
X105871428Y-95020998D01*
X105871428Y-95020998D02*
X105871428Y-94906712D01*
X105871428Y-94906712D02*
X105909524Y-94754331D01*
X105909524Y-94754331D02*
X105947619Y-94678140D01*
X105947619Y-94678140D02*
X106023809Y-94601950D01*
X106023809Y-94601950D02*
X106138095Y-94563855D01*
X106138095Y-94563855D02*
X106214286Y-94563855D01*
X106214286Y-94563855D02*
X106328571Y-94601950D01*
X106328571Y-94601950D02*
X106366667Y-94640045D01*
X106633333Y-94563855D02*
X107128571Y-94563855D01*
X107128571Y-94563855D02*
X106861905Y-94868617D01*
X106861905Y-94868617D02*
X106976190Y-94868617D01*
X106976190Y-94868617D02*
X107052381Y-94906712D01*
X107052381Y-94906712D02*
X107090476Y-94944807D01*
X107090476Y-94944807D02*
X107128571Y-95020998D01*
X107128571Y-95020998D02*
X107128571Y-95211474D01*
X107128571Y-95211474D02*
X107090476Y-95287664D01*
X107090476Y-95287664D02*
X107052381Y-95325760D01*
X107052381Y-95325760D02*
X106976190Y-95363855D01*
X106976190Y-95363855D02*
X106747619Y-95363855D01*
X106747619Y-95363855D02*
X106671428Y-95325760D01*
X106671428Y-95325760D02*
X106633333Y-95287664D01*
X106366667Y-90287664D02*
X106328571Y-90325760D01*
X106328571Y-90325760D02*
X106214286Y-90363855D01*
X106214286Y-90363855D02*
X106138095Y-90363855D01*
X106138095Y-90363855D02*
X106023809Y-90325760D01*
X106023809Y-90325760D02*
X105947619Y-90249569D01*
X105947619Y-90249569D02*
X105909524Y-90173379D01*
X105909524Y-90173379D02*
X105871428Y-90020998D01*
X105871428Y-90020998D02*
X105871428Y-89906712D01*
X105871428Y-89906712D02*
X105909524Y-89754331D01*
X105909524Y-89754331D02*
X105947619Y-89678140D01*
X105947619Y-89678140D02*
X106023809Y-89601950D01*
X106023809Y-89601950D02*
X106138095Y-89563855D01*
X106138095Y-89563855D02*
X106214286Y-89563855D01*
X106214286Y-89563855D02*
X106328571Y-89601950D01*
X106328571Y-89601950D02*
X106366667Y-89640045D01*
X107128571Y-90363855D02*
X106671428Y-90363855D01*
X106900000Y-90363855D02*
X106900000Y-89563855D01*
X106900000Y-89563855D02*
X106823809Y-89678140D01*
X106823809Y-89678140D02*
X106747619Y-89754331D01*
X106747619Y-89754331D02*
X106671428Y-89792426D01*
X102064143Y-96563855D02*
X102064143Y-97135283D01*
X102064143Y-97135283D02*
X102026048Y-97249569D01*
X102026048Y-97249569D02*
X101949857Y-97325760D01*
X101949857Y-97325760D02*
X101835572Y-97363855D01*
X101835572Y-97363855D02*
X101759381Y-97363855D01*
X102407000Y-96640045D02*
X102445096Y-96601950D01*
X102445096Y-96601950D02*
X102521286Y-96563855D01*
X102521286Y-96563855D02*
X102711762Y-96563855D01*
X102711762Y-96563855D02*
X102787953Y-96601950D01*
X102787953Y-96601950D02*
X102826048Y-96640045D01*
X102826048Y-96640045D02*
X102864143Y-96716236D01*
X102864143Y-96716236D02*
X102864143Y-96792426D01*
X102864143Y-96792426D02*
X102826048Y-96906712D01*
X102826048Y-96906712D02*
X102368905Y-97363855D01*
X102368905Y-97363855D02*
X102864143Y-97363855D01*
X97413337Y-96563855D02*
X97413337Y-97135283D01*
X97413337Y-97135283D02*
X97375242Y-97249569D01*
X97375242Y-97249569D02*
X97299051Y-97325760D01*
X97299051Y-97325760D02*
X97184766Y-97363855D01*
X97184766Y-97363855D02*
X97108575Y-97363855D01*
X97718099Y-96563855D02*
X98213337Y-96563855D01*
X98213337Y-96563855D02*
X97946671Y-96868617D01*
X97946671Y-96868617D02*
X98060956Y-96868617D01*
X98060956Y-96868617D02*
X98137147Y-96906712D01*
X98137147Y-96906712D02*
X98175242Y-96944807D01*
X98175242Y-96944807D02*
X98213337Y-97020998D01*
X98213337Y-97020998D02*
X98213337Y-97211474D01*
X98213337Y-97211474D02*
X98175242Y-97287664D01*
X98175242Y-97287664D02*
X98137147Y-97325760D01*
X98137147Y-97325760D02*
X98060956Y-97363855D01*
X98060956Y-97363855D02*
X97832385Y-97363855D01*
X97832385Y-97363855D02*
X97756194Y-97325760D01*
X97756194Y-97325760D02*
X97718099Y-97287664D01*
D11*
%TO.C,C1*%
X106161307Y-91370020D02*
X106161307Y-90770020D01*
D12*
%TO.C,J2*%
X102330810Y-92407298D02*
X102330810Y-92407298D01*
X102330810Y-92507298D02*
X102330810Y-92507298D01*
X102330810Y-92407298D02*
G75*
G02*
X102330810Y-92507298I0J-50000D01*
G01*
X102330810Y-92507298D02*
G75*
G02*
X102330810Y-92407298I0J50000D01*
G01*
%TO.C,J1*%
X96019149Y-86426877D02*
X96019149Y-86426877D01*
X96119149Y-86426877D02*
X96119149Y-86426877D01*
D11*
X96869149Y-84101877D02*
X103169149Y-84101877D01*
X96869149Y-85626877D02*
X96869149Y-84101877D01*
X96869149Y-89226877D02*
X96869149Y-90751877D01*
X96869149Y-90751877D02*
X103169149Y-90751877D01*
X103169149Y-84101877D02*
X103169149Y-85626877D01*
X103169149Y-90751877D02*
X103169149Y-89226877D01*
D12*
X96019149Y-86426877D02*
G75*
G02*
X96119149Y-86426877I50000J0D01*
G01*
X96119149Y-86426877D02*
G75*
G02*
X96019149Y-86426877I-50000J0D01*
G01*
%TO.C,J3*%
X97680004Y-92407298D02*
X97680004Y-92407298D01*
X97680004Y-92507298D02*
X97680004Y-92507298D01*
X97680004Y-92407298D02*
G75*
G02*
X97680004Y-92507298I0J-50000D01*
G01*
X97680004Y-92507298D02*
G75*
G02*
X97680004Y-92407298I0J50000D01*
G01*
%TD*%
M02*
