%TF.GenerationSoftware,KiCad,Pcbnew,8.0.2-1*%
%TF.CreationDate,2024-09-19T09:16:49+02:00*%
%TF.ProjectId,PUMA_PCB_REV2,50554d41-5f50-4434-925f-524556322e6b,rev?*%
%TF.SameCoordinates,Original*%
%TF.FileFunction,Copper,L1,Top*%
%TF.FilePolarity,Positive*%
%FSLAX46Y46*%
G04 Gerber Fmt 4.6, Leading zero omitted, Abs format (unit mm)*
G04 Created by KiCad (PCBNEW 8.0.2-1) date 2024-09-19 09:16:49*
%MOMM*%
%LPD*%
G01*
G04 APERTURE LIST*
%TA.AperFunction,SMDPad,CuDef*%
%ADD10R,0.850000X0.940000*%
%TD*%
%TA.AperFunction,SMDPad,CuDef*%
%ADD11R,0.540000X0.940000*%
%TD*%
%TA.AperFunction,SMDPad,CuDef*%
%ADD12R,0.600000X0.550000*%
%TD*%
%TA.AperFunction,SMDPad,CuDef*%
%ADD13R,0.580000X1.580000*%
%TD*%
%TA.AperFunction,SMDPad,CuDef*%
%ADD14R,0.500000X0.500000*%
%TD*%
%TA.AperFunction,SMDPad,CuDef*%
%ADD15R,2.750000X1.000000*%
%TD*%
%TA.AperFunction,ViaPad*%
%ADD16C,1.000000*%
%TD*%
%TA.AperFunction,ViaPad*%
%ADD17C,0.600000*%
%TD*%
%TA.AperFunction,ViaPad*%
%ADD18C,0.800000*%
%TD*%
%TA.AperFunction,Conductor*%
%ADD19C,1.000000*%
%TD*%
%TA.AperFunction,Conductor*%
%ADD20C,0.600000*%
%TD*%
G04 APERTURE END LIST*
D10*
%TO.P,C2,1,1*%
%TO.N,GND*%
X106663879Y-86853605D03*
%TO.P,C2,2,2*%
%TO.N,HV+*%
X105363879Y-86853605D03*
%TD*%
%TO.P,C3,1,1*%
%TO.N,GND*%
X106663879Y-88193736D03*
%TO.P,C3,2,2*%
%TO.N,HV+*%
X105363879Y-88193736D03*
%TD*%
D11*
%TO.P,C1,1,1*%
%TO.N,GND*%
X106813879Y-85500000D03*
%TO.P,C1,2,2*%
%TO.N,HV+*%
X105213879Y-85500000D03*
%TD*%
D12*
%TO.P,J2,1,SIGNAL*%
%TO.N,Net-(J2-SIGNAL)*%
X102330810Y-93182298D03*
D13*
%TO.P,J2,2,GND_1*%
%TO.N,GND*%
X101370810Y-94157298D03*
D14*
%TO.P,J2,3,GND_2*%
X102330810Y-95157298D03*
D13*
%TO.P,J2,4,GND_3*%
X103290810Y-94157298D03*
%TD*%
D15*
%TO.P,J1,1,1*%
%TO.N,HV+*%
X97894149Y-86426877D03*
%TO.P,J1,2,2*%
X102144149Y-86426877D03*
%TO.P,J1,3,3*%
%TO.N,GND*%
X97894149Y-88426877D03*
%TO.P,J1,4,4*%
X102144149Y-88426877D03*
%TD*%
D12*
%TO.P,J3,1,SIGNAL*%
%TO.N,Net-(J3-SIGNAL)*%
X97680004Y-93182298D03*
D13*
%TO.P,J3,2,GND_1*%
%TO.N,GND*%
X96720004Y-94157298D03*
D14*
%TO.P,J3,3,GND_2*%
X97680004Y-95157298D03*
D13*
%TO.P,J3,4,GND_3*%
X98640004Y-94157298D03*
%TD*%
D16*
%TO.N,GND*%
X96638147Y-90864525D03*
X98500000Y-84365929D03*
X94500000Y-96000000D03*
D17*
X103500000Y-92500000D03*
D16*
X107686120Y-85500000D03*
X106000000Y-95750000D03*
X107686120Y-86853605D03*
X103500000Y-91000000D03*
X107686120Y-88208610D03*
X100500000Y-96000000D03*
D17*
X96500000Y-92500000D03*
D16*
X99000000Y-96000000D03*
X101750000Y-84250000D03*
X91750000Y-90500000D03*
D17*
%TO.N,HV+*%
X93322070Y-84647999D03*
X106628810Y-84404476D03*
D18*
%TO.N,Net-(J2-SIGNAL)*%
X101388400Y-91400879D03*
%TO.N,Net-(J3-SIGNAL)*%
X98500000Y-91500000D03*
%TD*%
D19*
%TO.N,GND*%
X103500000Y-90975045D02*
X102119427Y-89594472D01*
X107686120Y-85500000D02*
X106813879Y-85500000D01*
X96638147Y-90864525D02*
X97885918Y-89616754D01*
X97885918Y-89616754D02*
X97894149Y-88426877D01*
X102119427Y-89594472D02*
X102144149Y-88426877D01*
X106663879Y-88193736D02*
X107671246Y-88193736D01*
X107686120Y-86853605D02*
X106663879Y-86853605D01*
X103500000Y-91000000D02*
X103500000Y-90975045D01*
D20*
%TO.N,Net-(J2-SIGNAL)*%
X101400879Y-91400879D02*
X102330810Y-92330810D01*
X102330810Y-92330810D02*
X102330810Y-93182298D01*
X101388400Y-91400879D02*
X101400879Y-91400879D01*
%TO.N,Net-(J3-SIGNAL)*%
X97680004Y-93182298D02*
X97680004Y-92319996D01*
X97680004Y-92319996D02*
X98500000Y-91500000D01*
%TD*%
%TA.AperFunction,Conductor*%
%TO.N,HV+*%
G36*
X102443698Y-83009338D02*
G01*
X102444953Y-83009361D01*
X104889903Y-83074831D01*
X104891217Y-83074877D01*
X107334639Y-83184006D01*
X107335835Y-83184069D01*
X109777037Y-83336828D01*
X109778325Y-83336920D01*
X112216427Y-83533255D01*
X112217363Y-83533338D01*
X113361013Y-83643458D01*
X113411019Y-83670047D01*
X113427578Y-83724210D01*
X113427562Y-83724375D01*
X113211280Y-85919008D01*
X113184579Y-85968956D01*
X113130379Y-85985393D01*
X113130364Y-85985392D01*
X111142258Y-85789056D01*
X111142255Y-85789056D01*
X111142254Y-85789056D01*
X110985068Y-85798284D01*
X110906474Y-85802898D01*
X110734406Y-85840605D01*
X110675767Y-85853455D01*
X110675766Y-85853455D01*
X110675763Y-85853456D01*
X110455803Y-85939480D01*
X110252015Y-86058850D01*
X110252011Y-86058853D01*
X110069400Y-86208640D01*
X110069399Y-86208640D01*
X109912466Y-86385148D01*
X109912463Y-86385152D01*
X109785081Y-86584030D01*
X109785078Y-86584035D01*
X109690372Y-86800398D01*
X109690371Y-86800401D01*
X109630681Y-87028903D01*
X109630679Y-87028912D01*
X109609121Y-87247211D01*
X109607467Y-87263955D01*
X109621309Y-87499732D01*
X109632222Y-87549530D01*
X109670975Y-87726375D01*
X109671867Y-87730443D01*
X109757891Y-87950403D01*
X109877261Y-88154191D01*
X109877264Y-88154195D01*
X109877265Y-88154196D01*
X110027051Y-88336807D01*
X110203559Y-88493740D01*
X110203563Y-88493743D01*
X110307336Y-88560210D01*
X110402444Y-88621127D01*
X110618808Y-88715834D01*
X110847323Y-88775528D01*
X112836072Y-88971928D01*
X112886012Y-88998639D01*
X112902440Y-89052827D01*
X112409913Y-94050566D01*
X112383212Y-94100513D01*
X112329012Y-94116951D01*
X112328998Y-94116950D01*
X110410662Y-93927505D01*
X110410659Y-93927505D01*
X110410658Y-93927505D01*
X110253472Y-93936733D01*
X110174878Y-93941347D01*
X109994870Y-93980793D01*
X109944171Y-93991904D01*
X109944170Y-93991904D01*
X109944167Y-93991905D01*
X109724207Y-94077929D01*
X109520419Y-94197299D01*
X109520415Y-94197302D01*
X109337804Y-94347089D01*
X109337803Y-94347089D01*
X109180870Y-94523597D01*
X109180867Y-94523601D01*
X109053485Y-94722479D01*
X109053482Y-94722484D01*
X108958776Y-94938847D01*
X108958775Y-94938850D01*
X108904600Y-95146240D01*
X108899083Y-95167361D01*
X108879375Y-95366927D01*
X108875871Y-95402404D01*
X108889713Y-95638181D01*
X108940271Y-95868892D01*
X109026295Y-96088852D01*
X109145665Y-96292640D01*
X109145668Y-96292644D01*
X109145669Y-96292645D01*
X109295455Y-96475256D01*
X109471963Y-96632189D01*
X109471967Y-96632192D01*
X109615896Y-96724379D01*
X109670848Y-96759576D01*
X109887212Y-96854283D01*
X110115727Y-96913977D01*
X112034704Y-97103486D01*
X112084645Y-97130198D01*
X112101073Y-97184385D01*
X111970221Y-98512166D01*
X111943520Y-98562114D01*
X111889486Y-98578568D01*
X110878579Y-98481230D01*
X108706791Y-98306341D01*
X108706787Y-98306340D01*
X108706753Y-98306338D01*
X107149498Y-98208890D01*
X106532116Y-98170256D01*
X104355472Y-98073035D01*
X102177440Y-98014699D01*
X99998657Y-97995266D01*
X97819875Y-98014747D01*
X95641845Y-98073130D01*
X93465143Y-98170403D01*
X91290585Y-98306528D01*
X89118751Y-98481468D01*
X88107829Y-98578830D01*
X88053666Y-98562272D01*
X88027093Y-98512442D01*
X88024011Y-98481230D01*
X87884556Y-97068866D01*
X87900984Y-97014666D01*
X87950922Y-96987956D01*
X89955546Y-96789989D01*
X90184062Y-96730295D01*
X90400425Y-96635588D01*
X90599310Y-96508201D01*
X90775818Y-96351268D01*
X90925604Y-96168657D01*
X91024398Y-95999996D01*
X93794355Y-95999996D01*
X93794355Y-96000003D01*
X93814859Y-96168871D01*
X93875181Y-96327929D01*
X93959787Y-96450500D01*
X93971817Y-96467929D01*
X94099148Y-96580734D01*
X94249775Y-96659790D01*
X94414944Y-96700500D01*
X94414948Y-96700500D01*
X94585052Y-96700500D01*
X94585056Y-96700500D01*
X94750225Y-96659790D01*
X94900852Y-96580734D01*
X95028183Y-96467929D01*
X95124818Y-96327930D01*
X95185140Y-96168872D01*
X95195344Y-96084834D01*
X95205645Y-96000003D01*
X95205645Y-95999996D01*
X95185140Y-95831128D01*
X95124818Y-95672070D01*
X95028183Y-95532071D01*
X94907681Y-95425315D01*
X95662563Y-95425315D01*
X95662564Y-95425327D01*
X95669399Y-95507339D01*
X95669399Y-95507351D01*
X95669400Y-95507351D01*
X95669446Y-95507906D01*
X95765206Y-96657024D01*
X95785732Y-96903343D01*
X95785735Y-96903366D01*
X95791707Y-96938275D01*
X95802498Y-96979539D01*
X95802985Y-96981368D01*
X95802989Y-96981378D01*
X95845993Y-97062080D01*
X95845998Y-97062087D01*
X95859556Y-97077733D01*
X95891752Y-97114889D01*
X95909343Y-97132843D01*
X95989158Y-97177489D01*
X95989157Y-97177489D01*
X96056195Y-97197174D01*
X96056196Y-97197174D01*
X96056199Y-97197175D01*
X96114097Y-97205500D01*
X96114101Y-97205500D01*
X105115237Y-97205500D01*
X105125633Y-97204163D01*
X105167225Y-97198815D01*
X105227926Y-97182942D01*
X105246084Y-97177284D01*
X105322945Y-97127720D01*
X105371766Y-97077738D01*
X105388196Y-97058718D01*
X105426060Y-96975468D01*
X105426060Y-96975466D01*
X105426061Y-96975466D01*
X105433245Y-96940465D01*
X105440110Y-96907025D01*
X105443598Y-96848636D01*
X105399926Y-96324578D01*
X105417179Y-96270633D01*
X105467524Y-96244689D01*
X105521470Y-96261942D01*
X105522712Y-96263018D01*
X105531308Y-96270633D01*
X105595982Y-96327930D01*
X105599148Y-96330734D01*
X105749775Y-96409790D01*
X105914944Y-96450500D01*
X105914948Y-96450500D01*
X106085052Y-96450500D01*
X106085056Y-96450500D01*
X106250225Y-96409790D01*
X106400852Y-96330734D01*
X106528183Y-96217929D01*
X106624818Y-96077930D01*
X106685140Y-95918872D01*
X106705645Y-95750000D01*
X106705026Y-95744904D01*
X106685140Y-95581128D01*
X106624818Y-95422070D01*
X106528183Y-95282071D01*
X106400856Y-95169269D01*
X106400853Y-95169267D01*
X106400852Y-95169266D01*
X106250225Y-95090210D01*
X106250222Y-95090209D01*
X106085058Y-95049500D01*
X106085056Y-95049500D01*
X105914944Y-95049500D01*
X105914941Y-95049500D01*
X105749777Y-95090209D01*
X105749775Y-95090209D01*
X105749775Y-95090210D01*
X105722643Y-95104450D01*
X105599146Y-95169267D01*
X105599143Y-95169269D01*
X105471815Y-95282072D01*
X105447624Y-95317119D01*
X105400062Y-95347869D01*
X105344686Y-95335981D01*
X105313936Y-95288419D01*
X105312980Y-95281226D01*
X105214267Y-94096656D01*
X105214266Y-94096648D01*
X105214265Y-94096636D01*
X105208289Y-94061708D01*
X105197511Y-94020495D01*
X105197496Y-94020439D01*
X105197466Y-94020324D01*
X105197014Y-94018631D01*
X105197013Y-94018627D01*
X105187875Y-94001478D01*
X105154006Y-93937919D01*
X105154001Y-93937912D01*
X105108251Y-93885115D01*
X105108248Y-93885111D01*
X105090657Y-93867157D01*
X105090654Y-93867155D01*
X105010840Y-93822510D01*
X105010842Y-93822510D01*
X104943804Y-93802825D01*
X104943799Y-93802824D01*
X104885905Y-93794500D01*
X104885903Y-93794500D01*
X103855310Y-93794500D01*
X103802984Y-93772826D01*
X103781310Y-93720500D01*
X103781310Y-93347551D01*
X103781310Y-93347550D01*
X103769677Y-93289067D01*
X103725362Y-93222746D01*
X103703153Y-93207906D01*
X103659042Y-93178431D01*
X103659043Y-93178431D01*
X103629799Y-93172614D01*
X103600558Y-93166798D01*
X102981062Y-93166798D01*
X102919746Y-93178994D01*
X102864197Y-93167944D01*
X102832732Y-93120852D01*
X102831310Y-93106416D01*
X102831310Y-92500000D01*
X102994353Y-92500000D01*
X103014834Y-92642454D01*
X103074623Y-92773373D01*
X103168868Y-92882139D01*
X103168869Y-92882140D01*
X103168872Y-92882143D01*
X103289947Y-92959953D01*
X103396403Y-92991211D01*
X103428035Y-93000499D01*
X103428037Y-93000500D01*
X103428039Y-93000500D01*
X103571963Y-93000500D01*
X103571964Y-93000499D01*
X103710053Y-92959953D01*
X103831128Y-92882143D01*
X103925377Y-92773373D01*
X103985165Y-92642457D01*
X104005647Y-92500000D01*
X103985165Y-92357543D01*
X103925377Y-92226627D01*
X103848252Y-92137619D01*
X103831131Y-92117860D01*
X103831129Y-92117859D01*
X103831128Y-92117857D01*
X103774182Y-92081260D01*
X103710054Y-92040047D01*
X103710050Y-92040046D01*
X103571964Y-91999500D01*
X103571961Y-91999500D01*
X103428039Y-91999500D01*
X103428036Y-91999500D01*
X103289949Y-92040046D01*
X103289945Y-92040047D01*
X103168875Y-92117855D01*
X103168868Y-92117860D01*
X103074623Y-92226626D01*
X103014834Y-92357545D01*
X102994353Y-92500000D01*
X102831310Y-92500000D01*
X102831310Y-92264916D01*
X102831309Y-92264915D01*
X102828411Y-92254101D01*
X102797202Y-92137624D01*
X102731310Y-92023496D01*
X102638124Y-91930310D01*
X102341040Y-91633226D01*
X102327567Y-91614759D01*
X102325582Y-91610902D01*
X102325579Y-91610897D01*
X102321059Y-91605211D01*
X101840244Y-91000393D01*
X101832826Y-90991581D01*
X101831961Y-90990610D01*
X101831958Y-90990608D01*
X101830077Y-90988495D01*
X101823103Y-90980965D01*
X101816682Y-90972597D01*
X101816681Y-90972596D01*
X101816679Y-90972594D01*
X101691241Y-90876343D01*
X101545161Y-90815834D01*
X101388400Y-90795197D01*
X101231639Y-90815834D01*
X101231638Y-90815834D01*
X101085558Y-90876343D01*
X100960120Y-90972594D01*
X100960115Y-90972599D01*
X100863864Y-91098037D01*
X100803355Y-91244117D01*
X100803355Y-91244118D01*
X100782718Y-91400879D01*
X100803355Y-91557639D01*
X100803355Y-91557640D01*
X100863864Y-91703720D01*
X100960115Y-91829158D01*
X100960119Y-91829162D01*
X100980939Y-91845138D01*
X100991302Y-91854800D01*
X100991849Y-91855418D01*
X101064396Y-91910558D01*
X101064397Y-91910558D01*
X101614470Y-92328642D01*
X101614474Y-92328644D01*
X101618184Y-92330611D01*
X101635854Y-92343668D01*
X101808636Y-92516450D01*
X101830310Y-92568776D01*
X101830310Y-93106416D01*
X101808636Y-93158742D01*
X101756310Y-93180416D01*
X101741874Y-93178994D01*
X101680558Y-93166798D01*
X101061062Y-93166798D01*
X101031820Y-93172614D01*
X101002577Y-93178431D01*
X100936259Y-93222745D01*
X100936257Y-93222747D01*
X100891943Y-93289065D01*
X100880310Y-93347551D01*
X100880310Y-93720500D01*
X100858636Y-93772826D01*
X100806310Y-93794500D01*
X99204504Y-93794500D01*
X99152178Y-93772826D01*
X99130504Y-93720500D01*
X99130504Y-93347551D01*
X99130504Y-93347550D01*
X99118871Y-93289067D01*
X99074556Y-93222746D01*
X99052347Y-93207906D01*
X99008236Y-93178431D01*
X99008237Y-93178431D01*
X98978993Y-93172614D01*
X98949752Y-93166798D01*
X98330256Y-93166798D01*
X98268940Y-93178994D01*
X98213391Y-93167944D01*
X98181926Y-93120852D01*
X98180504Y-93106416D01*
X98180504Y-92557961D01*
X98202178Y-92505636D01*
X98258989Y-92448824D01*
X98278156Y-92434994D01*
X98280764Y-92433687D01*
X98898572Y-91953171D01*
X98908189Y-91945211D01*
X98909258Y-91944270D01*
X98910022Y-91943593D01*
X98910022Y-91943592D01*
X98913154Y-91940817D01*
X98913166Y-91940831D01*
X98919206Y-91935245D01*
X98928282Y-91928282D01*
X99024536Y-91802841D01*
X99085044Y-91656762D01*
X99105682Y-91500000D01*
X99085044Y-91343238D01*
X99024536Y-91197159D01*
X98948478Y-91098038D01*
X98928284Y-91071720D01*
X98928279Y-91071715D01*
X98802841Y-90975464D01*
X98656761Y-90914955D01*
X98500000Y-90894318D01*
X98343239Y-90914955D01*
X98343238Y-90914955D01*
X98197158Y-90975464D01*
X98071720Y-91071715D01*
X98071717Y-91071718D01*
X98057642Y-91090060D01*
X98047374Y-91100953D01*
X98046832Y-91101422D01*
X97609387Y-91663853D01*
X97609386Y-91663852D01*
X97566317Y-91719228D01*
X97566311Y-91719237D01*
X97563622Y-91724208D01*
X97550862Y-91741322D01*
X97372690Y-91919496D01*
X97279504Y-92012681D01*
X97213614Y-92126805D01*
X97213610Y-92126814D01*
X97179504Y-92254101D01*
X97179504Y-93106416D01*
X97157830Y-93158742D01*
X97105504Y-93180416D01*
X97091068Y-93178994D01*
X97029752Y-93166798D01*
X96410256Y-93166798D01*
X96381014Y-93172614D01*
X96351771Y-93178431D01*
X96285453Y-93222745D01*
X96285451Y-93222747D01*
X96241137Y-93289065D01*
X96229504Y-93347551D01*
X96229504Y-94967045D01*
X96240958Y-95024633D01*
X96229908Y-95080182D01*
X96182816Y-95111647D01*
X96137488Y-95104083D01*
X96136656Y-95105871D01*
X96133607Y-95104450D01*
X96067868Y-95080807D01*
X96043740Y-95073763D01*
X95952285Y-95073903D01*
X95884207Y-95089551D01*
X95860079Y-95096675D01*
X95783219Y-95146238D01*
X95734402Y-95196215D01*
X95734396Y-95196221D01*
X95717968Y-95215239D01*
X95680101Y-95298492D01*
X95680099Y-95298498D01*
X95666052Y-95366927D01*
X95666051Y-95366934D01*
X95662563Y-95425315D01*
X94907681Y-95425315D01*
X94900856Y-95419269D01*
X94900853Y-95419267D01*
X94900852Y-95419266D01*
X94750225Y-95340210D01*
X94750222Y-95340209D01*
X94585058Y-95299500D01*
X94585056Y-95299500D01*
X94414944Y-95299500D01*
X94414941Y-95299500D01*
X94249777Y-95340209D01*
X94099146Y-95419267D01*
X94099143Y-95419269D01*
X93971816Y-95532071D01*
X93875181Y-95672070D01*
X93814859Y-95831128D01*
X93794355Y-95999996D01*
X91024398Y-95999996D01*
X91044979Y-95964861D01*
X91131004Y-95744901D01*
X91181560Y-95514192D01*
X91195402Y-95278414D01*
X91172191Y-95043373D01*
X91112497Y-94814858D01*
X91017790Y-94598494D01*
X90890402Y-94399609D01*
X90885142Y-94393693D01*
X90733470Y-94223101D01*
X90550857Y-94073314D01*
X90550853Y-94073311D01*
X90347066Y-93953941D01*
X90127105Y-93867917D01*
X90127103Y-93867916D01*
X90127102Y-93867916D01*
X89896393Y-93817359D01*
X89896397Y-93817359D01*
X89739207Y-93808131D01*
X89660615Y-93803517D01*
X89660614Y-93803517D01*
X89660613Y-93803517D01*
X89660608Y-93803517D01*
X87656048Y-94001478D01*
X87601845Y-93985051D01*
X87575134Y-93935111D01*
X87433433Y-92500000D01*
X95994353Y-92500000D01*
X96014834Y-92642454D01*
X96074623Y-92773373D01*
X96168868Y-92882139D01*
X96168869Y-92882140D01*
X96168872Y-92882143D01*
X96289947Y-92959953D01*
X96396403Y-92991211D01*
X96428035Y-93000499D01*
X96428037Y-93000500D01*
X96428039Y-93000500D01*
X96571963Y-93000500D01*
X96571964Y-93000499D01*
X96710053Y-92959953D01*
X96831128Y-92882143D01*
X96925377Y-92773373D01*
X96985165Y-92642457D01*
X97005647Y-92500000D01*
X96985165Y-92357543D01*
X96925377Y-92226627D01*
X96848252Y-92137619D01*
X96831131Y-92117860D01*
X96831129Y-92117859D01*
X96831128Y-92117857D01*
X96774182Y-92081260D01*
X96710054Y-92040047D01*
X96710050Y-92040046D01*
X96571964Y-91999500D01*
X96571961Y-91999500D01*
X96428039Y-91999500D01*
X96428036Y-91999500D01*
X96289949Y-92040046D01*
X96289945Y-92040047D01*
X96168875Y-92117855D01*
X96168868Y-92117860D01*
X96074623Y-92226626D01*
X96014834Y-92357545D01*
X95994353Y-92500000D01*
X87433433Y-92500000D01*
X87235956Y-90499996D01*
X91044355Y-90499996D01*
X91044355Y-90500003D01*
X91064859Y-90668871D01*
X91125181Y-90827929D01*
X91211618Y-90953153D01*
X91221817Y-90967929D01*
X91230322Y-90975464D01*
X91338967Y-91071715D01*
X91349148Y-91080734D01*
X91499775Y-91159790D01*
X91664944Y-91200500D01*
X91664948Y-91200500D01*
X91835052Y-91200500D01*
X91835056Y-91200500D01*
X92000225Y-91159790D01*
X92150852Y-91080734D01*
X92278183Y-90967929D01*
X92349561Y-90864521D01*
X95932502Y-90864521D01*
X95932502Y-90864526D01*
X95937107Y-90902449D01*
X95937647Y-90911370D01*
X95937647Y-90933518D01*
X95945399Y-90972492D01*
X95946281Y-90978008D01*
X95953005Y-91033388D01*
X95953007Y-91033398D01*
X95960301Y-91052630D01*
X95963686Y-91064428D01*
X95964564Y-91068843D01*
X95964568Y-91068857D01*
X95986483Y-91121765D01*
X95987307Y-91123842D01*
X96013328Y-91192454D01*
X96058340Y-91257664D01*
X96058968Y-91258589D01*
X96094032Y-91311067D01*
X96096340Y-91313879D01*
X96096264Y-91313941D01*
X96101626Y-91320375D01*
X96104954Y-91325196D01*
X96109964Y-91332454D01*
X96152064Y-91369751D01*
X96156106Y-91373332D01*
X96159356Y-91376391D01*
X96191604Y-91408639D01*
X96205127Y-91417675D01*
X96205135Y-91417680D01*
X96213094Y-91423819D01*
X96237295Y-91445259D01*
X96276339Y-91465751D01*
X96283035Y-91469731D01*
X96306336Y-91485300D01*
X96337642Y-91498267D01*
X96343681Y-91501095D01*
X96387922Y-91524315D01*
X96413603Y-91530644D01*
X96413607Y-91530645D01*
X96424223Y-91534130D01*
X96433813Y-91538103D01*
X96433815Y-91538103D01*
X96433819Y-91538105D01*
X96484276Y-91548141D01*
X96487492Y-91548856D01*
X96553091Y-91565025D01*
X96553095Y-91565025D01*
X96723199Y-91565025D01*
X96723203Y-91565025D01*
X96788773Y-91548863D01*
X96791960Y-91548152D01*
X96842475Y-91538105D01*
X96852076Y-91534127D01*
X96862672Y-91530648D01*
X96888372Y-91524315D01*
X96932606Y-91501098D01*
X96938645Y-91498269D01*
X96969958Y-91485300D01*
X96993266Y-91469725D01*
X96999967Y-91465744D01*
X97038999Y-91445259D01*
X97063208Y-91423810D01*
X97071158Y-91417680D01*
X97084690Y-91408639D01*
X97116937Y-91376390D01*
X97120187Y-91373332D01*
X97166330Y-91332454D01*
X97174666Y-91320375D01*
X97183236Y-91310091D01*
X98379626Y-90113702D01*
X98426930Y-90067049D01*
X98426940Y-90067033D01*
X98427971Y-90065796D01*
X98428062Y-90065696D01*
X98428415Y-90065267D01*
X98428759Y-90064850D01*
X98428931Y-90064643D01*
X98428984Y-90064572D01*
X98430021Y-90063307D01*
X98430032Y-90063297D01*
X98467045Y-90007901D01*
X98504383Y-89952851D01*
X98504384Y-89952847D01*
X98505170Y-89951402D01*
X98505215Y-89951327D01*
X98505398Y-89950985D01*
X98505707Y-89950412D01*
X98505874Y-89950103D01*
X98505917Y-89950014D01*
X98506681Y-89948581D01*
X98506693Y-89948565D01*
X98532174Y-89887046D01*
X98558068Y-89825737D01*
X98558071Y-89825720D01*
X98558559Y-89824155D01*
X98558595Y-89824055D01*
X98558706Y-89823689D01*
X98558893Y-89823081D01*
X98558994Y-89822756D01*
X98559018Y-89822660D01*
X98559492Y-89821094D01*
X98559498Y-89821082D01*
X98572492Y-89755754D01*
X98585924Y-89690591D01*
X98585924Y-89690586D01*
X98586096Y-89688954D01*
X98586110Y-89688863D01*
X98586142Y-89688540D01*
X98586193Y-89688038D01*
X98586252Y-89687474D01*
X98586258Y-89687361D01*
X98586416Y-89685753D01*
X98586418Y-89685748D01*
X98586418Y-89619396D01*
X98586420Y-89618884D01*
X98589312Y-89200865D01*
X98611347Y-89148690D01*
X98663310Y-89127377D01*
X99288895Y-89127377D01*
X99288897Y-89127377D01*
X99347380Y-89115744D01*
X99413701Y-89071429D01*
X99458016Y-89005108D01*
X99469649Y-88946625D01*
X99469649Y-87907130D01*
X100568649Y-87907130D01*
X100568649Y-88946623D01*
X100580282Y-89005109D01*
X100590850Y-89020924D01*
X100624597Y-89071429D01*
X100631983Y-89076364D01*
X100690916Y-89115743D01*
X100690917Y-89115743D01*
X100690918Y-89115744D01*
X100749401Y-89127377D01*
X101353077Y-89127377D01*
X101405403Y-89149051D01*
X101427077Y-89201377D01*
X101427060Y-89202944D01*
X101420522Y-89511649D01*
X101419120Y-89524505D01*
X101418927Y-89525475D01*
X101418927Y-89586270D01*
X101418910Y-89587837D01*
X101417623Y-89648618D01*
X101417623Y-89648621D01*
X101417794Y-89649586D01*
X101418927Y-89662486D01*
X101418927Y-89663466D01*
X101423997Y-89688954D01*
X101430787Y-89723094D01*
X101431076Y-89724632D01*
X101441670Y-89784485D01*
X101441675Y-89784502D01*
X101442030Y-89785413D01*
X101445653Y-89797828D01*
X101445844Y-89798792D01*
X101445845Y-89798793D01*
X101445846Y-89798795D01*
X101445847Y-89798800D01*
X101469129Y-89855009D01*
X101469695Y-89856419D01*
X101491769Y-89913072D01*
X101491771Y-89913076D01*
X101492300Y-89913905D01*
X101498273Y-89925368D01*
X101498652Y-89926283D01*
X101514774Y-89950412D01*
X101532442Y-89976853D01*
X101533244Y-89978082D01*
X101565982Y-90029396D01*
X101565984Y-90029398D01*
X101566665Y-90030109D01*
X101574759Y-90040187D01*
X101575308Y-90041008D01*
X101575315Y-90041017D01*
X101618315Y-90084017D01*
X101619410Y-90085136D01*
X101661463Y-90129007D01*
X101661467Y-90129011D01*
X101662260Y-90129566D01*
X101672184Y-90137886D01*
X102899293Y-91364995D01*
X102907868Y-91375285D01*
X102920204Y-91393157D01*
X102920831Y-91394080D01*
X102955881Y-91446536D01*
X102958189Y-91449347D01*
X102958112Y-91449409D01*
X102963472Y-91455840D01*
X102971817Y-91467929D01*
X103017958Y-91508806D01*
X103017967Y-91508814D01*
X103021222Y-91511878D01*
X103053458Y-91544114D01*
X103066988Y-91553155D01*
X103074943Y-91559292D01*
X103099145Y-91580733D01*
X103138168Y-91601213D01*
X103144890Y-91605208D01*
X103168185Y-91620773D01*
X103168187Y-91620774D01*
X103168189Y-91620775D01*
X103199495Y-91633742D01*
X103205534Y-91636570D01*
X103249775Y-91659790D01*
X103275456Y-91666119D01*
X103275460Y-91666120D01*
X103286076Y-91669605D01*
X103295666Y-91673578D01*
X103295668Y-91673578D01*
X103295672Y-91673580D01*
X103346169Y-91683624D01*
X103349377Y-91684339D01*
X103414935Y-91700498D01*
X103414938Y-91700498D01*
X103414944Y-91700500D01*
X103414946Y-91700500D01*
X103585054Y-91700500D01*
X103585056Y-91700500D01*
X103585058Y-91700499D01*
X103585061Y-91700499D01*
X103612492Y-91693737D01*
X103650633Y-91684335D01*
X103653828Y-91683624D01*
X103704328Y-91673580D01*
X103713929Y-91669602D01*
X103724525Y-91666123D01*
X103750225Y-91659790D01*
X103794459Y-91636573D01*
X103800498Y-91633744D01*
X103831811Y-91620775D01*
X103855108Y-91605208D01*
X103861818Y-91601219D01*
X103900852Y-91580734D01*
X103925059Y-91559288D01*
X103933011Y-91553154D01*
X103946542Y-91544114D01*
X103978782Y-91511872D01*
X103982032Y-91508814D01*
X104028183Y-91467929D01*
X104036516Y-91455856D01*
X104041882Y-91449418D01*
X104041806Y-91449355D01*
X104044109Y-91446548D01*
X104044111Y-91446544D01*
X104044114Y-91446542D01*
X104079232Y-91393981D01*
X104079762Y-91393202D01*
X104124818Y-91327930D01*
X104150850Y-91259285D01*
X104151649Y-91257271D01*
X104173580Y-91204328D01*
X104174458Y-91199907D01*
X104177844Y-91188106D01*
X104185140Y-91168872D01*
X104191866Y-91113465D01*
X104192748Y-91107958D01*
X104200500Y-91068993D01*
X104200500Y-91046845D01*
X104201040Y-91037924D01*
X104205645Y-91000001D01*
X104205645Y-90999996D01*
X104201040Y-90962073D01*
X104200500Y-90953153D01*
X104200500Y-90906051D01*
X104197828Y-90892619D01*
X104173581Y-90770722D01*
X104173580Y-90770721D01*
X104173580Y-90770717D01*
X104120775Y-90643234D01*
X104044114Y-90528502D01*
X102848422Y-89332810D01*
X102826748Y-89280484D01*
X102826765Y-89278917D01*
X102828440Y-89199810D01*
X102851217Y-89147955D01*
X102902423Y-89127377D01*
X103538895Y-89127377D01*
X103538897Y-89127377D01*
X103597380Y-89115744D01*
X103663701Y-89071429D01*
X103708016Y-89005108D01*
X103719649Y-88946625D01*
X103719649Y-88711564D01*
X104438879Y-88711564D01*
X104445281Y-88771111D01*
X104445282Y-88771116D01*
X104495524Y-88905823D01*
X104495525Y-88905824D01*
X104581690Y-89020924D01*
X104696790Y-89107089D01*
X104696791Y-89107090D01*
X104831498Y-89157332D01*
X104831503Y-89157333D01*
X104891050Y-89163736D01*
X105113879Y-89163736D01*
X105113879Y-88443736D01*
X104438879Y-88443736D01*
X104438879Y-88711564D01*
X103719649Y-88711564D01*
X103719649Y-87907129D01*
X103708016Y-87848646D01*
X103663701Y-87782325D01*
X103641492Y-87767485D01*
X103597381Y-87738010D01*
X103597382Y-87738010D01*
X103559338Y-87730443D01*
X103538897Y-87726377D01*
X103538895Y-87726377D01*
X102152349Y-87726377D01*
X102150784Y-87726360D01*
X102129025Y-87725899D01*
X102090002Y-87725073D01*
X102089999Y-87725073D01*
X102089533Y-87725155D01*
X102089032Y-87725244D01*
X102076135Y-87726377D01*
X100749401Y-87726377D01*
X100728960Y-87730443D01*
X100690916Y-87738010D01*
X100624598Y-87782324D01*
X100624596Y-87782326D01*
X100580282Y-87848644D01*
X100568649Y-87907130D01*
X99469649Y-87907130D01*
X99469649Y-87907129D01*
X99458016Y-87848646D01*
X99413701Y-87782325D01*
X99391492Y-87767485D01*
X99347381Y-87738010D01*
X99347382Y-87738010D01*
X99309338Y-87730443D01*
X99288897Y-87726377D01*
X99288895Y-87726377D01*
X97896759Y-87726377D01*
X97896248Y-87726375D01*
X97830004Y-87725917D01*
X97830003Y-87725917D01*
X97830002Y-87725917D01*
X97828333Y-87726070D01*
X97821596Y-87726377D01*
X96499401Y-87726377D01*
X96478960Y-87730443D01*
X96440916Y-87738010D01*
X96374598Y-87782324D01*
X96374596Y-87782326D01*
X96330282Y-87848644D01*
X96318649Y-87907130D01*
X96318649Y-88946623D01*
X96330282Y-89005109D01*
X96340850Y-89020924D01*
X96374597Y-89071429D01*
X96381983Y-89076364D01*
X96440916Y-89115743D01*
X96440917Y-89115743D01*
X96440918Y-89115744D01*
X96499401Y-89127377D01*
X97114273Y-89127377D01*
X97166599Y-89149051D01*
X97188273Y-89201377D01*
X97188271Y-89201889D01*
X97187632Y-89294239D01*
X97165960Y-89346053D01*
X96159360Y-90352653D01*
X96156106Y-90355716D01*
X96109963Y-90396596D01*
X96109961Y-90396598D01*
X96101621Y-90408680D01*
X96096264Y-90415111D01*
X96096339Y-90415173D01*
X96094028Y-90417988D01*
X96058957Y-90470476D01*
X96058367Y-90471344D01*
X96038591Y-90499996D01*
X96013329Y-90536594D01*
X95987307Y-90605207D01*
X95986484Y-90607282D01*
X95964566Y-90660199D01*
X95963688Y-90664615D01*
X95960302Y-90676415D01*
X95953006Y-90695653D01*
X95953006Y-90695654D01*
X95946281Y-90751040D01*
X95945399Y-90756555D01*
X95937647Y-90795530D01*
X95937647Y-90817678D01*
X95937107Y-90826598D01*
X95932502Y-90864521D01*
X92349561Y-90864521D01*
X92374818Y-90827930D01*
X92435140Y-90668872D01*
X92440266Y-90626654D01*
X92455645Y-90500003D01*
X92455645Y-90499996D01*
X92435140Y-90331128D01*
X92374818Y-90172070D01*
X92278183Y-90032071D01*
X92150856Y-89919269D01*
X92150853Y-89919267D01*
X92150852Y-89919266D01*
X92000225Y-89840210D01*
X92000222Y-89840209D01*
X91835058Y-89799500D01*
X91835056Y-89799500D01*
X91664944Y-89799500D01*
X91664941Y-89799500D01*
X91499777Y-89840209D01*
X91349146Y-89919267D01*
X91349143Y-89919269D01*
X91221816Y-90032071D01*
X91125181Y-90172070D01*
X91064859Y-90331128D01*
X91044355Y-90499996D01*
X87235956Y-90499996D01*
X87088166Y-89003218D01*
X87104594Y-88949017D01*
X87154533Y-88922307D01*
X89257642Y-88714613D01*
X89486158Y-88654919D01*
X89702521Y-88560212D01*
X89901406Y-88432825D01*
X90077914Y-88275892D01*
X90227700Y-88093281D01*
X90347075Y-87889485D01*
X90433099Y-87669525D01*
X90483656Y-87438816D01*
X90497498Y-87203038D01*
X90474948Y-86974705D01*
X96019149Y-86974705D01*
X96025551Y-87034252D01*
X96025552Y-87034257D01*
X96075794Y-87168964D01*
X96075795Y-87168965D01*
X96161960Y-87284065D01*
X96277060Y-87370230D01*
X96277061Y-87370231D01*
X96411768Y-87420473D01*
X96411773Y-87420474D01*
X96471320Y-87426877D01*
X97644149Y-87426877D01*
X98144149Y-87426877D01*
X99316978Y-87426877D01*
X99376524Y-87420474D01*
X99376529Y-87420473D01*
X99511236Y-87370231D01*
X99511237Y-87370230D01*
X99626337Y-87284065D01*
X99712502Y-87168965D01*
X99712503Y-87168964D01*
X99762745Y-87034257D01*
X99762746Y-87034252D01*
X99769149Y-86974705D01*
X100269149Y-86974705D01*
X100275551Y-87034252D01*
X100275552Y-87034257D01*
X100325794Y-87168964D01*
X100325795Y-87168965D01*
X100411960Y-87284065D01*
X100527060Y-87370230D01*
X100527061Y-87370231D01*
X100661768Y-87420473D01*
X100661773Y-87420474D01*
X100721320Y-87426877D01*
X101894149Y-87426877D01*
X102394149Y-87426877D01*
X103566978Y-87426877D01*
X103626524Y-87420474D01*
X103626529Y-87420473D01*
X103758013Y-87371433D01*
X104438879Y-87371433D01*
X104445281Y-87430980D01*
X104445282Y-87430985D01*
X104470206Y-87497810D01*
X104470207Y-87549530D01*
X104445281Y-87616361D01*
X104438879Y-87675907D01*
X104438879Y-87943736D01*
X105113879Y-87943736D01*
X105113879Y-87103605D01*
X104438879Y-87103605D01*
X104438879Y-87371433D01*
X103758013Y-87371433D01*
X103761236Y-87370231D01*
X103761237Y-87370230D01*
X103876337Y-87284065D01*
X103962502Y-87168965D01*
X103962503Y-87168964D01*
X104012745Y-87034257D01*
X104012746Y-87034252D01*
X104019149Y-86974705D01*
X104019149Y-86676877D01*
X102394149Y-86676877D01*
X102394149Y-87426877D01*
X101894149Y-87426877D01*
X101894149Y-86676877D01*
X100269149Y-86676877D01*
X100269149Y-86974705D01*
X99769149Y-86974705D01*
X99769149Y-86676877D01*
X98144149Y-86676877D01*
X98144149Y-87426877D01*
X97644149Y-87426877D01*
X97644149Y-86676877D01*
X96019149Y-86676877D01*
X96019149Y-86974705D01*
X90474948Y-86974705D01*
X90474286Y-86967997D01*
X90414592Y-86739482D01*
X90319885Y-86523118D01*
X90243751Y-86404252D01*
X90199892Y-86335776D01*
X104438879Y-86335776D01*
X104438879Y-86603605D01*
X105113879Y-86603605D01*
X105113879Y-86513000D01*
X105037879Y-86513000D01*
X104985553Y-86491326D01*
X104963879Y-86439000D01*
X104963879Y-85840605D01*
X105463879Y-85840605D01*
X105539879Y-85840605D01*
X105592205Y-85862279D01*
X105613879Y-85914605D01*
X105613879Y-89163736D01*
X105836708Y-89163736D01*
X105896254Y-89157333D01*
X105896259Y-89157332D01*
X106030966Y-89107090D01*
X106030967Y-89107089D01*
X106146067Y-89020924D01*
X106232232Y-88905823D01*
X106233900Y-88902771D01*
X106278000Y-88867233D01*
X106298848Y-88864236D01*
X106438421Y-88864236D01*
X106455940Y-88866834D01*
X106455986Y-88866607D01*
X106489742Y-88873321D01*
X106594886Y-88894236D01*
X107531731Y-88894236D01*
X107549440Y-88896386D01*
X107601064Y-88909110D01*
X107601068Y-88909110D01*
X107771172Y-88909110D01*
X107771176Y-88909110D01*
X107936345Y-88868400D01*
X108086972Y-88789344D01*
X108214303Y-88676539D01*
X108310938Y-88536540D01*
X108371260Y-88377482D01*
X108376386Y-88335264D01*
X108391765Y-88208613D01*
X108391765Y-88208606D01*
X108371260Y-88039738D01*
X108310938Y-87880680D01*
X108214303Y-87740681D01*
X108168151Y-87699794D01*
X108164896Y-87696730D01*
X108117791Y-87649625D01*
X108117788Y-87649622D01*
X108096448Y-87635362D01*
X108088517Y-87629244D01*
X108086972Y-87627876D01*
X108086968Y-87627873D01*
X108086967Y-87627873D01*
X108082377Y-87625464D01*
X108075657Y-87621471D01*
X108068009Y-87616361D01*
X108028808Y-87590167D01*
X107997343Y-87543076D01*
X108008392Y-87487527D01*
X108028805Y-87467113D01*
X108041234Y-87458808D01*
X108047938Y-87454824D01*
X108086972Y-87434339D01*
X108111179Y-87412893D01*
X108119131Y-87406759D01*
X108132662Y-87397719D01*
X108164902Y-87365477D01*
X108168141Y-87362428D01*
X108214303Y-87321534D01*
X108222636Y-87309461D01*
X108228002Y-87303023D01*
X108227926Y-87302960D01*
X108230229Y-87300153D01*
X108230231Y-87300149D01*
X108230234Y-87300147D01*
X108265352Y-87247586D01*
X108265882Y-87246807D01*
X108310938Y-87181535D01*
X108336970Y-87112890D01*
X108337769Y-87110876D01*
X108359700Y-87057933D01*
X108360578Y-87053512D01*
X108363964Y-87041711D01*
X108371260Y-87022477D01*
X108377986Y-86967070D01*
X108378868Y-86961563D01*
X108386620Y-86922598D01*
X108386620Y-86900450D01*
X108387160Y-86891529D01*
X108391765Y-86853606D01*
X108391765Y-86853601D01*
X108387160Y-86815678D01*
X108386620Y-86806758D01*
X108386620Y-86784613D01*
X108378868Y-86745645D01*
X108377985Y-86740126D01*
X108371260Y-86684733D01*
X108363963Y-86665495D01*
X108360576Y-86653685D01*
X108359700Y-86649277D01*
X108337773Y-86596341D01*
X108336967Y-86594311D01*
X108310938Y-86525675D01*
X108265914Y-86460447D01*
X108265286Y-86459522D01*
X108230234Y-86407063D01*
X108227927Y-86404252D01*
X108228002Y-86404189D01*
X108222641Y-86397756D01*
X108214301Y-86385673D01*
X108168151Y-86344789D01*
X108164896Y-86341725D01*
X108132664Y-86309493D01*
X108132659Y-86309489D01*
X108126501Y-86305374D01*
X108119131Y-86300449D01*
X108111178Y-86294315D01*
X108086972Y-86272871D01*
X108080072Y-86269249D01*
X108047948Y-86252389D01*
X108041226Y-86248395D01*
X108026164Y-86238331D01*
X107994698Y-86191239D01*
X108005747Y-86135690D01*
X108026159Y-86115276D01*
X108041236Y-86105201D01*
X108047938Y-86101219D01*
X108086972Y-86080734D01*
X108111179Y-86059288D01*
X108119131Y-86053154D01*
X108132662Y-86044114D01*
X108164902Y-86011872D01*
X108168141Y-86008823D01*
X108214303Y-85967929D01*
X108222636Y-85955856D01*
X108228002Y-85949418D01*
X108227926Y-85949355D01*
X108230229Y-85946548D01*
X108230231Y-85946544D01*
X108230234Y-85946542D01*
X108265352Y-85893981D01*
X108265882Y-85893202D01*
X108310938Y-85827930D01*
X108336970Y-85759285D01*
X108337769Y-85757271D01*
X108359700Y-85704328D01*
X108360578Y-85699907D01*
X108363964Y-85688106D01*
X108371260Y-85668872D01*
X108377986Y-85613465D01*
X108378868Y-85607958D01*
X108381389Y-85595286D01*
X108386620Y-85568993D01*
X108386620Y-85546845D01*
X108387160Y-85537924D01*
X108391765Y-85500001D01*
X108391765Y-85499996D01*
X108387160Y-85462073D01*
X108386620Y-85453153D01*
X108386620Y-85431008D01*
X108378868Y-85392040D01*
X108377985Y-85386521D01*
X108372962Y-85345150D01*
X108371260Y-85331128D01*
X108363963Y-85311890D01*
X108360576Y-85300080D01*
X108359700Y-85295672D01*
X108337773Y-85242736D01*
X108336967Y-85240706D01*
X108310938Y-85172070D01*
X108265914Y-85106842D01*
X108265286Y-85105917D01*
X108230234Y-85053458D01*
X108227927Y-85050647D01*
X108228002Y-85050584D01*
X108222641Y-85044151D01*
X108214301Y-85032068D01*
X108168151Y-84991184D01*
X108164896Y-84988120D01*
X108132664Y-84955888D01*
X108132659Y-84955884D01*
X108126499Y-84951768D01*
X108119131Y-84946844D01*
X108111178Y-84940710D01*
X108086972Y-84919266D01*
X108047948Y-84898784D01*
X108041227Y-84894790D01*
X108017932Y-84879225D01*
X108017930Y-84879224D01*
X107986635Y-84866261D01*
X107980565Y-84863418D01*
X107936345Y-84840210D01*
X107910652Y-84833877D01*
X107900047Y-84830395D01*
X107890454Y-84826422D01*
X107890443Y-84826418D01*
X107840005Y-84816386D01*
X107836733Y-84815658D01*
X107771178Y-84799500D01*
X107771176Y-84799500D01*
X107755113Y-84799500D01*
X106744886Y-84799500D01*
X106663655Y-84815658D01*
X106605986Y-84827129D01*
X106605940Y-84826901D01*
X106588421Y-84829500D01*
X106524131Y-84829500D01*
X106494889Y-84835316D01*
X106465646Y-84841133D01*
X106399328Y-84885447D01*
X106399326Y-84885449D01*
X106355011Y-84951768D01*
X106352223Y-84958501D01*
X106351151Y-84958057D01*
X106335057Y-84988164D01*
X106269766Y-85053456D01*
X106269764Y-85053458D01*
X106193102Y-85168191D01*
X106140300Y-85295667D01*
X106140297Y-85295677D01*
X106130457Y-85345150D01*
X106098991Y-85392242D01*
X106043442Y-85403291D01*
X105996350Y-85371825D01*
X105983879Y-85330713D01*
X105983879Y-84982171D01*
X105977476Y-84922624D01*
X105977475Y-84922619D01*
X105927233Y-84787912D01*
X105927232Y-84787911D01*
X105841067Y-84672811D01*
X105725967Y-84586646D01*
X105725966Y-84586645D01*
X105591259Y-84536403D01*
X105591254Y-84536402D01*
X105531708Y-84530000D01*
X105463879Y-84530000D01*
X105463879Y-85840605D01*
X104963879Y-85840605D01*
X104963879Y-85750000D01*
X104443879Y-85750000D01*
X104443879Y-86017828D01*
X104450281Y-86077374D01*
X104475219Y-86144238D01*
X104475219Y-86195957D01*
X104445281Y-86276230D01*
X104438879Y-86335776D01*
X90199892Y-86335776D01*
X90192501Y-86324237D01*
X90192498Y-86324233D01*
X90035565Y-86147725D01*
X89852953Y-85997938D01*
X89852949Y-85997935D01*
X89649986Y-85879048D01*
X96019149Y-85879048D01*
X96019149Y-86176877D01*
X97644149Y-86176877D01*
X98144149Y-86176877D01*
X99769149Y-86176877D01*
X99769149Y-85879048D01*
X100269149Y-85879048D01*
X100269149Y-86176877D01*
X101894149Y-86176877D01*
X102394149Y-86176877D01*
X104019149Y-86176877D01*
X104019149Y-85879048D01*
X104012746Y-85819501D01*
X104012745Y-85819496D01*
X103962503Y-85684789D01*
X103962502Y-85684788D01*
X103876337Y-85569688D01*
X103761237Y-85483523D01*
X103761236Y-85483522D01*
X103626529Y-85433280D01*
X103626524Y-85433279D01*
X103566978Y-85426877D01*
X102394149Y-85426877D01*
X102394149Y-86176877D01*
X101894149Y-86176877D01*
X101894149Y-85426877D01*
X100721320Y-85426877D01*
X100661773Y-85433279D01*
X100661768Y-85433280D01*
X100527061Y-85483522D01*
X100527060Y-85483523D01*
X100411960Y-85569688D01*
X100325795Y-85684788D01*
X100325794Y-85684789D01*
X100275552Y-85819496D01*
X100275551Y-85819501D01*
X100269149Y-85879048D01*
X99769149Y-85879048D01*
X99762746Y-85819501D01*
X99762745Y-85819496D01*
X99712503Y-85684789D01*
X99712502Y-85684788D01*
X99626337Y-85569688D01*
X99511237Y-85483523D01*
X99511236Y-85483522D01*
X99376529Y-85433280D01*
X99376524Y-85433279D01*
X99316978Y-85426877D01*
X98144149Y-85426877D01*
X98144149Y-86176877D01*
X97644149Y-86176877D01*
X97644149Y-85426877D01*
X96471320Y-85426877D01*
X96411773Y-85433279D01*
X96411768Y-85433280D01*
X96277061Y-85483522D01*
X96277060Y-85483523D01*
X96161960Y-85569688D01*
X96075795Y-85684788D01*
X96075794Y-85684789D01*
X96025552Y-85819496D01*
X96025551Y-85819501D01*
X96019149Y-85879048D01*
X89649986Y-85879048D01*
X89649161Y-85878565D01*
X89429201Y-85792541D01*
X89429199Y-85792540D01*
X89429198Y-85792540D01*
X89198489Y-85741983D01*
X89198493Y-85741983D01*
X89041303Y-85732755D01*
X88962711Y-85728141D01*
X88962710Y-85728141D01*
X88962709Y-85728141D01*
X88962704Y-85728141D01*
X86859657Y-85935829D01*
X86805454Y-85919402D01*
X86778743Y-85869462D01*
X86630286Y-84365925D01*
X97794355Y-84365925D01*
X97794355Y-84365932D01*
X97814859Y-84534800D01*
X97875181Y-84693858D01*
X97969661Y-84830734D01*
X97971817Y-84833858D01*
X97978987Y-84840210D01*
X98072007Y-84922619D01*
X98099148Y-84946663D01*
X98249775Y-85025719D01*
X98414944Y-85066429D01*
X98414948Y-85066429D01*
X98585052Y-85066429D01*
X98585056Y-85066429D01*
X98750225Y-85025719D01*
X98833198Y-84982171D01*
X104443879Y-84982171D01*
X104443879Y-85250000D01*
X104963879Y-85250000D01*
X104963879Y-84530000D01*
X104896050Y-84530000D01*
X104836503Y-84536402D01*
X104836498Y-84536403D01*
X104701791Y-84586645D01*
X104701790Y-84586646D01*
X104586690Y-84672811D01*
X104500525Y-84787911D01*
X104500524Y-84787912D01*
X104450282Y-84922619D01*
X104450281Y-84922624D01*
X104443879Y-84982171D01*
X98833198Y-84982171D01*
X98900852Y-84946663D01*
X99028183Y-84833858D01*
X99124818Y-84693859D01*
X99185140Y-84534801D01*
X99190266Y-84492583D01*
X99205645Y-84365932D01*
X99205645Y-84365925D01*
X99191568Y-84249996D01*
X101044355Y-84249996D01*
X101044355Y-84250003D01*
X101064859Y-84418871D01*
X101125181Y-84577929D01*
X101221816Y-84717928D01*
X101345078Y-84827129D01*
X101349148Y-84830734D01*
X101499775Y-84909790D01*
X101664944Y-84950500D01*
X101664948Y-84950500D01*
X101835052Y-84950500D01*
X101835056Y-84950500D01*
X102000225Y-84909790D01*
X102150852Y-84830734D01*
X102278183Y-84717929D01*
X102374818Y-84577930D01*
X102435140Y-84418872D01*
X102455645Y-84250000D01*
X102449216Y-84197057D01*
X102435140Y-84081128D01*
X102374818Y-83922070D01*
X102278183Y-83782071D01*
X102150856Y-83669269D01*
X102150853Y-83669267D01*
X102150852Y-83669266D01*
X102000225Y-83590210D01*
X102000222Y-83590209D01*
X101835058Y-83549500D01*
X101835056Y-83549500D01*
X101664944Y-83549500D01*
X101664941Y-83549500D01*
X101499777Y-83590209D01*
X101349146Y-83669267D01*
X101349143Y-83669269D01*
X101221816Y-83782071D01*
X101125181Y-83922070D01*
X101064859Y-84081128D01*
X101044355Y-84249996D01*
X99191568Y-84249996D01*
X99185140Y-84197057D01*
X99124818Y-84037999D01*
X99028183Y-83898000D01*
X98900856Y-83785198D01*
X98900853Y-83785196D01*
X98900852Y-83785195D01*
X98750225Y-83706139D01*
X98750222Y-83706138D01*
X98585058Y-83665429D01*
X98585056Y-83665429D01*
X98414944Y-83665429D01*
X98414941Y-83665429D01*
X98249777Y-83706138D01*
X98099146Y-83785196D01*
X98099143Y-83785198D01*
X97971816Y-83898000D01*
X97875181Y-84037999D01*
X97814859Y-84197057D01*
X97794355Y-84365925D01*
X86630286Y-84365925D01*
X86566994Y-83724919D01*
X86583422Y-83670719D01*
X86633363Y-83644008D01*
X87777080Y-83533836D01*
X87778192Y-83533737D01*
X90216272Y-83337307D01*
X90217538Y-83337216D01*
X92658586Y-83184370D01*
X92659876Y-83184300D01*
X95103405Y-83075069D01*
X95104511Y-83075029D01*
X97549560Y-83009459D01*
X97550823Y-83009436D01*
X99996698Y-82987544D01*
X99997818Y-82987544D01*
X102443698Y-83009338D01*
G37*
%TD.AperFunction*%
%TD*%
%TA.AperFunction,Conductor*%
%TO.N,Net-(J3-SIGNAL)*%
G36*
X98225458Y-91225540D02*
G01*
X98226527Y-91226481D01*
X98500707Y-91499293D01*
X98500749Y-91499335D01*
X98773518Y-91773472D01*
X98776924Y-91781753D01*
X98773476Y-91790018D01*
X98772407Y-91790959D01*
X98154599Y-92271475D01*
X98145965Y-92273850D01*
X98139143Y-92270513D01*
X97729486Y-91860856D01*
X97726059Y-91852583D01*
X97728524Y-91845400D01*
X97771599Y-91790018D01*
X98209041Y-91227591D01*
X98216824Y-91223165D01*
X98225458Y-91225540D01*
G37*
%TD.AperFunction*%
%TD*%
%TA.AperFunction,Conductor*%
%TO.N,GND*%
G36*
X104952942Y-94019685D02*
G01*
X104998697Y-94072489D01*
X105009475Y-94113702D01*
X105238808Y-96865702D01*
X105224758Y-96934145D01*
X105175937Y-96984127D01*
X105115236Y-97000000D01*
X96114097Y-97000000D01*
X96047058Y-96980315D01*
X96001303Y-96927511D01*
X95990525Y-96886298D01*
X95969996Y-96639958D01*
X95874191Y-95490297D01*
X96933784Y-95490297D01*
X96936405Y-95514667D01*
X96936406Y-95514675D01*
X96986649Y-95649384D01*
X96986653Y-95649391D01*
X97072813Y-95764485D01*
X97072816Y-95764488D01*
X97187910Y-95850648D01*
X97187917Y-95850652D01*
X97322624Y-95900894D01*
X97322631Y-95900896D01*
X97382159Y-95907297D01*
X97382176Y-95907298D01*
X97430004Y-95907298D01*
X97930004Y-95907298D01*
X97977832Y-95907298D01*
X97977848Y-95907297D01*
X98037376Y-95900896D01*
X98037383Y-95900894D01*
X98172090Y-95850652D01*
X98172097Y-95850648D01*
X98287191Y-95764488D01*
X98287194Y-95764485D01*
X98373354Y-95649391D01*
X98373358Y-95649384D01*
X98423601Y-95514675D01*
X98423602Y-95514667D01*
X98426223Y-95490297D01*
X101584590Y-95490297D01*
X101587211Y-95514667D01*
X101587212Y-95514675D01*
X101637455Y-95649384D01*
X101637459Y-95649391D01*
X101723619Y-95764485D01*
X101723622Y-95764488D01*
X101838716Y-95850648D01*
X101838723Y-95850652D01*
X101973430Y-95900894D01*
X101973437Y-95900896D01*
X102032965Y-95907297D01*
X102032982Y-95907298D01*
X102080810Y-95907298D01*
X102580810Y-95907298D01*
X102628638Y-95907298D01*
X102628654Y-95907297D01*
X102688182Y-95900896D01*
X102688189Y-95900894D01*
X102822896Y-95850652D01*
X102822903Y-95850648D01*
X102937997Y-95764488D01*
X102938000Y-95764485D01*
X103024160Y-95649391D01*
X103024164Y-95649384D01*
X103074407Y-95514675D01*
X103074408Y-95514667D01*
X103077029Y-95490297D01*
X103072560Y-95485322D01*
X103054368Y-95447298D01*
X103540810Y-95447298D01*
X103628638Y-95447298D01*
X103628654Y-95447297D01*
X103688182Y-95440896D01*
X103688189Y-95440894D01*
X103822896Y-95390652D01*
X103822903Y-95390648D01*
X103937997Y-95304488D01*
X103938000Y-95304485D01*
X104024160Y-95189391D01*
X104024164Y-95189384D01*
X104074406Y-95054677D01*
X104074408Y-95054670D01*
X104080809Y-94995142D01*
X104080810Y-94995125D01*
X104080810Y-94407298D01*
X103540810Y-94407298D01*
X103540810Y-95447298D01*
X103054368Y-95447298D01*
X103042406Y-95422294D01*
X103040810Y-95402461D01*
X103040810Y-94407298D01*
X102580810Y-94407298D01*
X102580810Y-95907298D01*
X102080810Y-95907298D01*
X102080810Y-94407298D01*
X101620810Y-94407298D01*
X101620810Y-95402461D01*
X101601125Y-95469500D01*
X101589060Y-95485322D01*
X101584590Y-95490297D01*
X98426223Y-95490297D01*
X98421754Y-95485322D01*
X98403562Y-95447298D01*
X98890004Y-95447298D01*
X98977832Y-95447298D01*
X98977848Y-95447297D01*
X99037376Y-95440896D01*
X99037383Y-95440894D01*
X99172090Y-95390652D01*
X99172097Y-95390648D01*
X99287191Y-95304488D01*
X99287194Y-95304485D01*
X99373354Y-95189391D01*
X99373358Y-95189384D01*
X99423600Y-95054677D01*
X99423602Y-95054670D01*
X99430003Y-94995142D01*
X100580810Y-94995142D01*
X100587211Y-95054670D01*
X100587213Y-95054677D01*
X100637455Y-95189384D01*
X100637459Y-95189391D01*
X100723619Y-95304485D01*
X100723622Y-95304488D01*
X100838716Y-95390648D01*
X100838723Y-95390652D01*
X100973430Y-95440894D01*
X100973437Y-95440896D01*
X101032965Y-95447297D01*
X101032982Y-95447298D01*
X101120810Y-95447298D01*
X101120810Y-94407298D01*
X100580810Y-94407298D01*
X100580810Y-94995142D01*
X99430003Y-94995142D01*
X99430004Y-94995125D01*
X99430004Y-94407298D01*
X98890004Y-94407298D01*
X98890004Y-95447298D01*
X98403562Y-95447298D01*
X98391600Y-95422294D01*
X98390004Y-95402461D01*
X98390004Y-94407298D01*
X97930004Y-94407298D01*
X97930004Y-95907298D01*
X97430004Y-95907298D01*
X97430004Y-94407298D01*
X96970004Y-94407298D01*
X96970004Y-95402461D01*
X96950319Y-95469500D01*
X96938254Y-95485322D01*
X96933784Y-95490297D01*
X95874191Y-95490297D01*
X95867354Y-95408255D01*
X95881404Y-95339815D01*
X95930225Y-95289833D01*
X95998319Y-95274181D01*
X96064066Y-95297827D01*
X96065685Y-95299213D01*
X96065716Y-95299173D01*
X96187910Y-95390648D01*
X96187917Y-95390652D01*
X96322624Y-95440894D01*
X96322631Y-95440896D01*
X96382159Y-95447297D01*
X96382176Y-95447298D01*
X96470004Y-95447298D01*
X96470004Y-94031298D01*
X96479194Y-94000000D01*
X104123810Y-94000000D01*
X104885903Y-94000000D01*
X104952942Y-94019685D01*
G37*
%TD.AperFunction*%
%TD*%
%TA.AperFunction,Conductor*%
%TO.N,Net-(J2-SIGNAL)*%
G36*
X101678517Y-91127303D02*
G01*
X101679382Y-91128274D01*
X102164718Y-91738779D01*
X102167183Y-91747388D01*
X102163832Y-91754333D01*
X101754172Y-92163993D01*
X101745899Y-92167420D01*
X101738820Y-92165035D01*
X101188747Y-91746951D01*
X101116200Y-91691811D01*
X101111687Y-91684076D01*
X101113965Y-91675416D01*
X101114973Y-91674258D01*
X101387693Y-91400172D01*
X101661972Y-91127260D01*
X101670252Y-91123855D01*
X101678517Y-91127303D01*
G37*
%TD.AperFunction*%
%TD*%
M02*
